<?xml version="1.0" encoding="UTF-8" standalone="no"?>
<svg
   width="32"
   height="32"
   version="1.1"
   id="svg12"
   sodipodi:docname="akregator.svg"
   inkscape:version="1.2 (dc2aedaf03, 2022-05-15)"
   xmlns:inkscape="http://www.inkscape.org/namespaces/inkscape"
   xmlns:sodipodi="http://sodipodi.sourceforge.net/DTD/sodipodi-0.dtd"
   xmlns:xlink="http://www.w3.org/1999/xlink"
   xmlns="http://www.w3.org/2000/svg"
   xmlns:svg="http://www.w3.org/2000/svg"
   xmlns:rdf="http://www.w3.org/1999/02/22-rdf-syntax-ns#"
   xmlns:cc="http://creativecommons.org/ns#"
   xmlns:dc="http://purl.org/dc/elements/1.1/">
  <metadata
     id="metadata18">
    <rdf:RDF>
      <cc:Work
         rdf:about="">
        <dc:format>image/svg+xml</dc:format>
        <dc:type
           rdf:resource="http://purl.org/dc/dcmitype/StillImage" />
      </cc:Work>
    </rdf:RDF>
  </metadata>
  <defs
     id="defs16">
    <linearGradient
       inkscape:collect="always"
       xlink:href="#linearGradient855"
       id="linearGradient873"
       x1="3.0619521"
       y1="16.631489"
       x2="8.1415768"
       y2="16.631489"
       gradientUnits="userSpaceOnUse"
       gradientTransform="matrix(1.3750003,0,0,1.3750003,-31.210187,-9.3848437)" />
    <linearGradient
       inkscape:collect="always"
       id="linearGradient855">
      <stop
         style="stop-color:#00cccc;stop-opacity:1"
         offset="0"
         id="stop851" />
      <stop
         style="stop-color:#008080;stop-opacity:1"
         offset="1"
         id="stop853" />
    </linearGradient>
  </defs>
  <sodipodi:namedview
     pagecolor="#ffffff"
     bordercolor="#666666"
     borderopacity="1"
     objecttolerance="10"
     gridtolerance="10"
     guidetolerance="10"
     inkscape:pageopacity="0"
     inkscape:pageshadow="2"
     inkscape:window-width="1920"
     inkscape:window-height="1002"
     id="namedview14"
     showgrid="false"
     inkscape:zoom="9.8125003"
     inkscape:cx="16.254777"
     inkscape:cy="13.401273"
     inkscape:window-x="0"
     inkscape:window-y="0"
     inkscape:window-maximized="1"
     inkscape:current-layer="svg12"
     inkscape:document-rotation="0"
     inkscape:pagecheckerboard="0"
     inkscape:lockguides="true"
     inkscape:showpageshadow="2"
     inkscape:deskcolor="#d1d1d1">
    <inkscape:grid
       type="xygrid"
       id="grid894"
       originx="0"
       originy="-2.7795411e-07" />
  </sodipodi:namedview>
  <g
     id="akregator">
    <rect
       style="opacity:0.00100002;fill:#d3dae3;fill-opacity:1"
       width="32"
       height="32"
       x="0"
       y="2.7795411e-07"
       id="rect7" />
    <path
       d="M 6.602115,4 C 5.66742,4 4.909478,4.757942 4.909478,5.692638 c 0,0.934696 0.757942,1.692637 1.692637,1.692637 9.928459,0 18.0127,8.084242 18.0127,18.012701 0,0.934695 0.757942,1.692637 1.692637,1.692637 0.934696,0 1.692639,-0.757942 1.692639,-1.692637 C 28.000091,13.600036 18.400054,4 6.602115,4 Z"
       id="path1086"
       style="fill:#d3dae3;fill-opacity:1;stroke-width:0.0451129" />
    <path
       d="m 6.602115,10.265287 c -0.934695,0 -1.692637,0.757943 -1.692637,1.692638 0,0.934695 0.757942,1.692638 1.692637,1.692638 6.492657,0 11.772676,5.280019 11.772676,11.747413 0,0.934695 0.757943,1.692637 1.692638,1.692637 0.934695,0 1.692639,-0.757942 1.692639,-1.692637 -0.0252,-8.362138 -6.821079,-15.132689 -15.157953,-15.132689 z"
       id="path1088"
       style="fill:#d3dae3;fill-opacity:1;stroke-width:0.0451129" />
    <path
       d="m 6.602115,16.505311 c -0.934695,0 -1.692637,0.757942 -1.692637,1.692637 0,0.934695 0.757942,1.692639 1.692637,1.692639 3.031546,0 5.50739,2.450535 5.50739,5.482125 0,0.934696 0.757943,1.692638 1.692638,1.692638 0.934694,0 1.692637,-0.757942 1.692637,-1.692638 -0.0252,-4.875807 -3.991458,-8.867401 -8.892665,-8.867401 z"
       id="path1090"
       style="fill:#d3dae3;fill-opacity:1;stroke-width:0.0451129" />
    <path
       d="M 6.602115,22.770597 C 5.16202,22.770597 4,23.932797 4,25.372712 4,26.812807 5.162201,28 6.602115,28 8.042211,28 9.229403,26.812627 9.229403,25.372712 9.229584,23.932797 8.042211,22.770597 6.602115,22.770597 Z"
       id="path1092"
       style="fill:#088699;fill-opacity:1;stroke-width:0.0451129" />
  </g>
  <g
     id="22-22-akregator"
     transform="translate(32,10.000006)">
    <rect
       style="opacity:0.00100002;fill:#d3dae3;fill-opacity:1"
       width="22"
       height="22"
       x="0"
       y="-2.7795411e-07"
       id="rect2" />
    <path
       d="m 4.734743,3 c -0.62313,0 -1.128424,0.505295 -1.128424,1.128425 0,0.623131 0.505294,1.128425 1.128424,1.128425 6.618973,0 12.008467,5.389495 12.008467,12.008467 0,0.62313 0.505295,1.128425 1.128425,1.128425 0.62313,0 1.128426,-0.505295 1.128426,-1.128425 C 19.000061,9.400024 12.600036,3 4.734743,3 Z"
       id="path1086-3"
       style="fill:#d3dae3;fill-opacity:1;stroke-width:0.0300753" />
    <path
       d="m 4.734743,7.176858 c -0.62313,0 -1.128424,0.505295 -1.128424,1.128425 0,0.62313 0.505294,1.128426 1.128424,1.128426 4.328438,0 7.848451,3.520012 7.848451,7.831608 0,0.62313 0.505295,1.128425 1.128425,1.128425 0.62313,0 1.128426,-0.505295 1.128426,-1.128425 C 14.823245,11.690559 10.292659,7.176858 4.734743,7.176858 Z"
       id="path1088-6"
       style="fill:#d3dae3;fill-opacity:1;stroke-width:0.0300753" />
    <path
       d="m 4.734743,11.336874 c -0.62313,0 -1.128424,0.505295 -1.128424,1.128425 0,0.62313 0.505294,1.128426 1.128424,1.128426 2.021031,0 3.671594,1.63369 3.671594,3.65475 0,0.62313 0.505295,1.128425 1.128425,1.128425 0.623129,0 1.128425,-0.505295 1.128425,-1.128425 -0.0168,-3.250538 -2.660972,-5.911601 -5.928444,-5.911601 z"
       id="path1090-7"
       style="fill:#d3dae3;fill-opacity:1;stroke-width:0.0300753" />
    <path
       d="M 4.734743,15.513731 C 3.77468,15.513731 3,16.288531 3,17.248475 3,18.208538 3.774801,19 4.734743,19 5.694807,19 6.486269,18.208418 6.486269,17.248475 6.486389,16.288531 5.694807,15.513731 4.734743,15.513731 Z"
       id="path1092-5"
       style="fill:#088699;fill-opacity:1;stroke-width:0.0300753" />
  </g>
</svg>
