<?xml version="1.0" encoding="UTF-8" standalone="no"?>
<svg
   width="32"
   height="32"
   version="1.1"
   id="svg12"
   sodipodi:docname="applications.svg"
   inkscape:version="1.1.2 (0a00cf5339, 2022-02-04)"
   xmlns:inkscape="http://www.inkscape.org/namespaces/inkscape"
   xmlns:sodipodi="http://sodipodi.sourceforge.net/DTD/sodipodi-0.dtd"
   xmlns:xlink="http://www.w3.org/1999/xlink"
   xmlns="http://www.w3.org/2000/svg"
   xmlns:svg="http://www.w3.org/2000/svg"
   xmlns:rdf="http://www.w3.org/1999/02/22-rdf-syntax-ns#"
   xmlns:cc="http://creativecommons.org/ns#"
   xmlns:dc="http://purl.org/dc/elements/1.1/">
  <metadata
     id="metadata18">
    <rdf:RDF>
      <cc:Work
         rdf:about="">
        <dc:format>image/svg+xml</dc:format>
        <dc:type
           rdf:resource="http://purl.org/dc/dcmitype/StillImage" />
      </cc:Work>
    </rdf:RDF>
  </metadata>
  <defs
     id="defs16">
    <linearGradient
       inkscape:collect="always"
       id="linearGradient1451">
      <stop
         style="stop-color:#5c5c88;stop-opacity:1"
         offset="0"
         id="stop1447" />
      <stop
         style="stop-color:#088699;stop-opacity:1"
         offset="1"
         id="stop1449" />
    </linearGradient>
    <linearGradient
       inkscape:collect="always"
       xlink:href="#linearGradient1451"
       id="linearGradient1453"
       x1="4"
       y1="9.6050634"
       x2="15.210127"
       y2="9.6050634"
       gradientUnits="userSpaceOnUse" />
    <linearGradient
       inkscape:collect="always"
       xlink:href="#linearGradient1451"
       id="linearGradient1608"
       x1="16.789873"
       y1="9.6050634"
       x2="28"
       y2="9.6050634"
       gradientUnits="userSpaceOnUse"
       gradientTransform="matrix(0.9812556,0,0,0.9812556,0.52484295,0.07497756)" />
    <linearGradient
       inkscape:collect="always"
       xlink:href="#linearGradient1451"
       id="linearGradient1738"
       x1="2"
       y1="6.2037973"
       x2="10.407595"
       y2="6.2037973"
       gradientUnits="userSpaceOnUse"
       gradientTransform="matrix(1.0704605,0,0,1.0704605,-1.1409207,-1.1409207)" />
    <linearGradient
       inkscape:collect="always"
       xlink:href="#linearGradient1451"
       id="linearGradient1746"
       x1="11.592405"
       y1="6.2037973"
       x2="20"
       y2="6.2037973"
       gradientUnits="userSpaceOnUse"
       gradientTransform="matrix(1.0704605,0,0,1.0704605,-0.40920749,-1.1409207)" />
    <linearGradient
       inkscape:collect="always"
       xlink:href="#linearGradient1451"
       id="linearGradient1754"
       x1="2"
       y1="15.796202"
       x2="10.407595"
       y2="15.796202"
       gradientUnits="userSpaceOnUse"
       gradientTransform="matrix(1.0704605,0,0,1.0704605,-1.1409207,-0.40920749)" />
    <linearGradient
       inkscape:collect="always"
       xlink:href="#linearGradient1451"
       id="linearGradient1762"
       x1="11.592405"
       y1="15.796202"
       x2="20"
       y2="15.796202"
       gradientUnits="userSpaceOnUse"
       gradientTransform="matrix(1.0704605,0,0,1.0704605,-0.40920749,-0.40920749)" />
    <linearGradient
       inkscape:collect="always"
       xlink:href="#linearGradient1451"
       id="linearGradient2623"
       gradientUnits="userSpaceOnUse"
       x1="4"
       y1="9.6050634"
       x2="15.210127"
       y2="9.6050634"
       gradientTransform="translate(0,13)" />
    <linearGradient
       inkscape:collect="always"
       xlink:href="#linearGradient1451"
       id="linearGradient2795"
       gradientUnits="userSpaceOnUse"
       gradientTransform="translate(13,13)"
       x1="4"
       y1="9.6050634"
       x2="15.210127"
       y2="9.6050634" />
  </defs>
  <sodipodi:namedview
     pagecolor="#ffffff"
     bordercolor="#666666"
     borderopacity="1"
     objecttolerance="10"
     gridtolerance="10"
     guidetolerance="10"
     inkscape:pageopacity="0"
     inkscape:pageshadow="2"
     inkscape:window-width="1920"
     inkscape:window-height="1009"
     id="namedview14"
     showgrid="false"
     inkscape:zoom="9.8125003"
     inkscape:cx="27.668789"
     inkscape:cy="20.687897"
     inkscape:window-x="0"
     inkscape:window-y="0"
     inkscape:window-maximized="1"
     inkscape:current-layer="svg12"
     inkscape:document-rotation="0"
     showguides="false"
     inkscape:lockguides="false"
     inkscape:pagecheckerboard="0">
    <inkscape:grid
       type="xygrid"
       id="grid942"
       originx="0"
       originy="0" />
  </sodipodi:namedview>
  <g
     id="22-22-applications-other"
     transform="translate(32,9.9999997)">
    <path
       style="clip-rule:evenodd;fill:#ffffc1;fill-opacity:0;fill-rule:evenodd;stroke-width:0.688964;stroke-linejoin:round;stroke-miterlimit:1.41421"
       d="M 0,0 V 22 H 22 V 0 Z"
       id="rect817-5"
       inkscape:connector-curvature="0" />
    <path
       d="M 7.5853635,10 H 3.4146325 C 2.0975607,10 1,8.9268249 1,7.5853635 V 3.4146325 C 1,2.0975607 2.07317,1 3.4146325,1 h 4.170731 C 8.9024389,1 10,2.07317 10,3.4146325 v 4.170731 C 10,8.9024389 8.9024389,10 7.5853635,10 Z M 3.4146325,2 C 2.609755,2 2,2.6097551 2,3.3902438 V 7.5609729 C 2,8.3658504 2.6341461,8.999998 3.414633,8.999998 H 7.585364 C 8.3902415,8.999998 9,8.3414617 9,7.5609729 V 3.4146325 C 9,2.609755 8.3658509,2 7.585364,2 Z"
       id="path2-3-3"
       style="fill:url(#linearGradient1738);fill-opacity:1;stroke-width:0.243905"
       sodipodi:nodetypes="ssssssssscssssssscc" />
    <path
       d="M 7.5853635,21 H 3.4146325 C 2.0975607,21 1,19.926821 1,18.585359 V 14.414641 C 1,13.097556 2.07317,12 3.4146325,12 h 4.170731 C 8.9024389,12 10,13.073179 10,14.414641 v 4.170718 C 10,19.926821 8.9024389,21 7.5853635,21 Z M 3.4146325,13 C 2.609755,13 2,13.634146 2,14.414641 v 4.170718 C 2,19.390252 2.6341456,20 3.4146325,20 h 4.170731 C 8.390241,20 9,19.365854 9,18.585359 V 14.414641 C 9,13.609767 8.3658504,13 7.5853635,13 Z"
       id="path6"
       style="fill:url(#linearGradient1754);fill-opacity:1;stroke-width:0.243905"
       sodipodi:nodetypes="ssssssssssssssssss" />
    <path
       d="M 18.585359,21 H 14.414641 C 13.097556,21 12,19.926821 12,18.585359 V 14.414641 C 12,13.097556 13.073179,12 14.414641,12 h 4.170718 C 19.902443,12 21,13.073179 21,14.414641 v 4.170718 C 21,19.926821 19.926821,21 18.585359,21 Z M 14.414641,13 C 13.609767,13 13,13.634146 13,14.414641 v 4.170718 C 13,19.390252 13.634146,20 14.414641,20 h 4.170718 C 19.390252,20 20,19.365854 20,18.585359 V 14.414641 C 20,13.609767 19.365854,13 18.585359,13 Z"
       id="path10-6"
       style="fill:url(#linearGradient1762);fill-opacity:1;stroke-width:0.243905"
       sodipodi:nodetypes="ssssssssssssssssss" />
    <path
       d="m 13.926829,1 h 5.146342 C 20.14635,1 21,1.8536587 21,2.9268287 V 8.0731693 C 21,9.146334 20.14635,10 19.073171,10 H 13.926829 C 12.85367,10 12,9.146334 12,8.0731693 V 2.9268287 C 12,1.8536587 12.878049,1 13.926829,1 Z"
       id="path14-7"
       style="fill:url(#linearGradient1746);fill-opacity:1;stroke-width:0.243905" />
  </g>
  <g
     id="applications-other">
    <path
       d="M 12.202532,15 H 7.007595 C 5.3670886,15 4,13.873418 4,12.202532 V 7.007595 C 4,5.3670886 5.3367089,4 7.007595,4 h 5.194937 C 13.843038,4 15,5.3367089 15,7.007595 v 5.194937 C 15,13.843038 13.843038,15 12.202532,15 Z M 7.007595,5 C 6.0050633,5 5,6.0050633 5,6.9772152 V 12.172152 C 5,13.174684 6.035443,14 7.007595,14 h 5.194937 C 13.205063,14 14,13.144304 14,12.172152 V 7.007595 C 14,6.0050633 13.174684,5 12.202532,5 Z"
       id="path2-3"
       style="fill:url(#linearGradient1453);fill-opacity:1;stroke-width:0.303797"
       sodipodi:nodetypes="ssssssssscssssssscc" />
    <path
       d="m 19.355014,4 h 6.289972 C 26.95664,4 28,5.0433604 28,6.3550135 V 12.644986 C 28,13.956639 26.95664,15 25.644986,15 H 19.355014 C 18.043361,15 17,13.956639 17,12.644986 V 6.3550135 C 17,5.0433604 18.073171,4 19.355014,4 Z"
       id="path14"
       style="fill:url(#linearGradient1608);fill-opacity:1;stroke-width:0.298103" />
    <path
       style="clip-rule:evenodd;fill:#ffffc1;fill-opacity:0;fill-rule:evenodd;stroke-width:1.00213;stroke-linejoin:round;stroke-miterlimit:1.41421"
       d="M 0,0 V 32 H 32 V 0 Z"
       id="rect817"
       inkscape:connector-curvature="0" />
    <path
       d="M 12.202532,28 H 7.007595 C 5.3670886,28 4,26.873418 4,25.202532 V 20.007595 C 4,18.367089 5.3367089,17 7.007595,17 h 5.194937 C 13.843038,17 15,18.336709 15,20.007595 v 5.194937 C 15,26.843038 13.843038,28 12.202532,28 Z M 7.007595,18 C 6.0050633,18 5,19.005063 5,19.977215 v 5.194937 C 5,26.174684 6.035443,27 7.007595,27 h 5.194937 C 13.205063,27 14,26.144304 14,25.172152 V 20.007595 C 14,19.005063 13.174684,18 12.202532,18 Z"
       id="path2-3-7"
       style="fill:url(#linearGradient2623);fill-opacity:1;stroke-width:0.303797"
       sodipodi:nodetypes="ssssssssscssssssscc" />
    <path
       d="M 25.202532,28 H 20.007595 C 18.367089,28 17,26.873418 17,25.202532 V 20.007595 C 17,18.367089 18.336709,17 20.007595,17 h 5.194937 C 26.843038,17 28,18.336709 28,20.007595 v 5.194937 C 28,26.843038 26.843038,28 25.202532,28 Z M 20.007595,18 C 19.005063,18 18,19.005063 18,19.977215 v 5.194937 C 18,26.174684 19.035443,27 20.007595,27 h 5.194937 C 26.205063,27 27,26.144304 27,25.172152 V 20.007595 C 27,19.005063 26.174684,18 25.202532,18 Z"
       id="path2-3-7-5"
       style="fill:url(#linearGradient2795);fill-opacity:1;stroke-width:0.303797"
       sodipodi:nodetypes="ssssssssscssssssscc" />
  </g>
</svg>
