<?xml version="1.0" encoding="UTF-8" standalone="no"?>
<svg
   width="32"
   height="32"
   version="1.1"
   id="svg12"
   sodipodi:docname="choqok.svg"
   inkscape:version="1.2 (dc2aedaf03, 2022-05-15)"
   xmlns:inkscape="http://www.inkscape.org/namespaces/inkscape"
   xmlns:sodipodi="http://sodipodi.sourceforge.net/DTD/sodipodi-0.dtd"
   xmlns="http://www.w3.org/2000/svg"
   xmlns:svg="http://www.w3.org/2000/svg"
   xmlns:rdf="http://www.w3.org/1999/02/22-rdf-syntax-ns#"
   xmlns:cc="http://creativecommons.org/ns#"
   xmlns:dc="http://purl.org/dc/elements/1.1/">
  <metadata
     id="metadata18">
    <rdf:RDF>
      <cc:Work
         rdf:about="">
        <dc:format>image/svg+xml</dc:format>
        <dc:type
           rdf:resource="http://purl.org/dc/dcmitype/StillImage" />
      </cc:Work>
    </rdf:RDF>
  </metadata>
  <defs
     id="defs16">
    <linearGradient
       id="oomox"
       x1="0"
       x2="0"
       y1="4.426218"
       y2="16.600946"
       gradientTransform="matrix(1.7114077,0,0,0.99090516,5.5319556,2.8240382)"
       gradientUnits="userSpaceOnUse">
      <stop
         offset="0%"
         style="stop-color:#303b3d; stop-opacity:1"
         id="stop18" />
      <stop
         offset="100%"
         style="stop-color:#bc985d; stop-opacity:1"
         id="stop20" />
    </linearGradient>
    <linearGradient
       id="oomox-3"
       x1="0"
       x2="0"
       y1="4.426218"
       y2="16.600946"
       gradientTransform="matrix(1.1155928,0,0,0.64592825,4.2500004,2.3909811)"
       gradientUnits="userSpaceOnUse">
      <stop
         offset="0%"
         style="stop-color:#303b3d; stop-opacity:1"
         id="stop18-6" />
      <stop
         offset="100%"
         style="stop-color:#bc985d; stop-opacity:1"
         id="stop20-7" />
    </linearGradient>
  </defs>
  <sodipodi:namedview
     pagecolor="#ffffff"
     bordercolor="#000000"
     borderopacity="1"
     objecttolerance="10"
     gridtolerance="10"
     guidetolerance="10"
     inkscape:pageopacity="0"
     inkscape:pageshadow="2"
     inkscape:window-width="1920"
     inkscape:window-height="1000"
     id="namedview14"
     showgrid="false"
     inkscape:zoom="9.8125"
     inkscape:cx="23.235669"
     inkscape:cy="18.802548"
     inkscape:window-x="0"
     inkscape:window-y="0"
     inkscape:window-maximized="1"
     inkscape:current-layer="svg12"
     inkscape:document-rotation="0"
     inkscape:lockguides="false"
     inkscape:showpageshadow="false"
     inkscape:pagecheckerboard="0"
     inkscape:deskcolor="#d1d1d1">
    <inkscape:grid
       type="xygrid"
       id="grid1361"
       originx="4.5801639e-07"
       originy="1.1033535e-08" />
  </sodipodi:namedview>
  <g
     id="choqok"
     style="fill:#d3dae3;fill-opacity:1"
     transform="translate(-0.06726454,-0.04998199)">
    <rect
       style="opacity:0.00100002;fill:#d3dae3;fill-opacity:1"
       width="32"
       height="32"
       x="0.067264542"
       y="0.049981989"
       id="rect7" />
    <path
       style="color:#d5c289;isolation:isolate;fill:#09a6c3;fill-opacity:1;stroke-width:1.27239"
       class="ColorScheme-Text"
       fill-rule="evenodd"
       d="m 13.372266,18.37122 c 0.752494,1.046634 1.943742,1.676165 3.221239,1.678762 1.277499,0 2.468752,-0.632128 3.221262,-1.678762 l 0.431247,-0.07906 c 0.541249,0 0.743741,-1.242226 0.360004,-1.66192 l -3.581259,-3.476633 c -0.113734,-0.125647 -0.269989,-0.1943 -0.431254,-0.1943 -0.161236,0 -0.316251,0.06995 -0.431247,0.1943 l -3.581246,3.47669 c -0.383751,0.419685 -0.181241,1.661916 0.360005,1.661916 z M 9.2247679,8.5966145 c -1.7437466,0 -3.1575034,1.4650255 -3.1575034,3.2720205 9.599e-4,0.277201 0.036216,0.553108 0.1037725,0.821243 0.3587507,-1.4443 1.6150055,-2.455958 3.053751,-2.457253 1.438747,0.0013 2.69375,1.009068 3.055007,2.450776 0.06743,-0.265543 0.101208,-0.540156 0.103756,-0.814766 0,-1.806995 -1.413757,-3.2720205 -3.1587533,-3.2720205 z M 21.456765,10.232625 c 0,-1.204664 1.142002,-2.182643 2.3045,-2.182643 1.161253,0 2.306,0.977979 2.306,2.182643 0,1.203368 -1.143747,2.181347 -2.305,2.181347 -1.162498,0 -2.3055,-0.977979 -2.3055,-2.181347 z"
       id="path58"
       sodipodi:nodetypes="ccccccsccccscccccsssssss" />
    <path
       d="m 21.770915,24.049982 -3.444726,3.141888 c -1.242416,1.144149 -3.275342,1.144149 -4.545888,0 L 10.363705,24.049982 H 7.2295752 c -1.7223579,0 -3.1623107,-1.304416 -3.1623107,-2.916514 V 6.9621976 c 0,-1.5861436 1.4117745,-2.9122156 3.1623107,-2.9122156 H 24.90495 c 1.722359,0 3.162315,1.3001175 3.162315,2.9122156 V 21.133468 c 0,1.586142 -1.411765,2.916514 -3.162315,2.916514 z m -14.5412323,-19 c -1.0164806,0 -2.1624182,0.9760386 -2.1624182,1.9121226 V 21.133375 c 0,0.936084 1.1459376,1.916607 2.1624182,1.916607 h 3.6706533 l 3.811878,3.484 c 0.734084,0.676014 1.948298,0.676014 2.682311,0 l 3.840016,-3.484 h 3.670668 c 1.016465,0 2.162056,-0.980339 2.162056,-1.916423 V 6.961982 c 0,-0.9360825 -1.145591,-1.912 -2.162056,-1.912 z"
       fill-rule="evenodd"
       id="path85"
       sodipodi:nodetypes="ccccsssssssscccccccccccccc"
       style="fill:#d3dae3;fill-opacity:1;stroke-width:0.0483856" />
  </g>
  <g
     id="22-22-choqok"
     style="fill:#d3dae3;fill-opacity:1"
     transform="translate(-0.06726454,-0.04998199)">
    <rect
       style="opacity:0.00100002;fill:#d3dae3;fill-opacity:1"
       width="22"
       height="22"
       x="32.067265"
       y="10.049982"
       id="rect2" />
    <path
       style="color:#d5c289;isolation:isolate;fill:#09a6c3;fill-opacity:1;stroke-width:0.848879"
       class="ColorScheme-Text"
       fill-rule="evenodd"
       d="m 41.278104,22.063837 c 0.511025,0.685892 1.320005,1.098448 2.187556,1.100145 0.867554,0 1.676533,-0.414253 2.187557,-1.100145 l 0.292864,-0.05177 c 0.367564,0 0.505082,-0.81407 0.244475,-1.089104 l -2.432032,-2.278402 c -0.07725,-0.08234 -0.183358,-0.127331 -0.292864,-0.127331 -0.109506,0 -0.214765,0.04584 -0.292861,0.127331 l -2.432034,2.278387 c -0.260605,0.275037 -0.123087,1.089109 0.244477,1.089109 z m -2.816575,-6.405629 c -1.184184,0 -2.144264,0.960081 -2.144264,2.144265 8.47e-4,0.181659 0.02462,0.36247 0.07046,0.538188 0.243628,-0.946499 1.096749,-1.609472 2.073807,-1.610321 0.977059,8.48e-4 1.829331,0.661276 2.074657,1.606076 0.04584,-0.17402 0.06876,-0.353982 0.07046,-0.533943 0,-1.184184 -0.960081,-2.144265 -2.145112,-2.144265 z m 8.378736,1.072132 c 0,-0.789456 0.740544,-1.430358 1.53,-1.430358 0.788608,0 1.529036,0.640902 1.529036,1.430358 0,0.788607 -0.740428,1.42951 -1.529036,1.42951 -0.789457,0 -1.53,-0.640903 -1.53,-1.42951 z"
       id="path58-5"
       sodipodi:nodetypes="ccccccsccccscccccsssssss" />
    <path
       d="m 47.345015,26.049982 -2.58355,2.427925 c -0.93181,0.762767 -2.45652,0.762767 -3.40943,0 l -2.56243,-2.427925 h -2.35061 c -1.29176,0 -2.37173,-0.936268 -2.37173,-2.011 v -9.047523 c 0,-1.057429 1.05884,-1.941477 2.37173,-1.941477 h 13.25653 c 1.29178,0 2.37174,0.866745 2.37174,1.941477 v 9.047523 c 0,1.057428 -1.05882,2.011 -2.37174,2.011 z m -10.90594,-12 c -0.76236,0 -1.37181,0.317359 -1.37181,0.941415 v 9.047585 c 0,0.624056 0.60945,1.011 1.37181,1.011 h 2.753 l 2.8589,2.656 c 0.55056,0.450676 1.46122,0.450676 2.01174,0 l 2.88002,-2.656 h 2.75298 c 0.762369,0 1.37155,-0.386944 1.37155,-1.011 V 14.99152 c 0,-0.624055 -0.609181,-0.941538 -1.37155,-0.941538 z"
       fill-rule="evenodd"
       id="path85-3"
       sodipodi:nodetypes="ccccsssssssscccccccccccccc"
       style="fill:#d3dae3;fill-opacity:1;stroke-width:0.0342137" />
  </g>
</svg>
