<?xml version="1.0" encoding="UTF-8" standalone="no"?>
<svg
   width="32"
   height="32"
   version="1.1"
   id="svg12"
   sodipodi:docname="choqok_offline.svg"
   inkscape:version="1.1.2 (0a00cf5339, 2022-02-04)"
   xmlns:inkscape="http://www.inkscape.org/namespaces/inkscape"
   xmlns:sodipodi="http://sodipodi.sourceforge.net/DTD/sodipodi-0.dtd"
   xmlns="http://www.w3.org/2000/svg"
   xmlns:svg="http://www.w3.org/2000/svg"
   xmlns:rdf="http://www.w3.org/1999/02/22-rdf-syntax-ns#"
   xmlns:cc="http://creativecommons.org/ns#"
   xmlns:dc="http://purl.org/dc/elements/1.1/">
  <metadata
     id="metadata18">
    <rdf:RDF>
      <cc:Work
         rdf:about="">
        <dc:format>image/svg+xml</dc:format>
        <dc:type
           rdf:resource="http://purl.org/dc/dcmitype/StillImage" />
      </cc:Work>
    </rdf:RDF>
  </metadata>
  <defs
     id="defs16">
    <linearGradient
       id="oomox"
       x1="0"
       x2="0"
       y1="4.426218"
       y2="16.600946"
       gradientTransform="matrix(1.7114077,0,0,0.99090516,5.5319556,2.8240382)"
       gradientUnits="userSpaceOnUse">
      <stop
         offset="0%"
         style="stop-color:#303b3d; stop-opacity:1"
         id="stop18" />
      <stop
         offset="100%"
         style="stop-color:#bc985d; stop-opacity:1"
         id="stop20" />
    </linearGradient>
    <linearGradient
       id="oomox-3"
       x1="0"
       x2="0"
       y1="4.426218"
       y2="16.600946"
       gradientTransform="matrix(1.1155928,0,0,0.64592825,4.2500004,2.3909811)"
       gradientUnits="userSpaceOnUse">
      <stop
         offset="0%"
         style="stop-color:#303b3d; stop-opacity:1"
         id="stop18-6" />
      <stop
         offset="100%"
         style="stop-color:#bc985d; stop-opacity:1"
         id="stop20-7" />
    </linearGradient>
  </defs>
  <sodipodi:namedview
     pagecolor="#ffffff"
     bordercolor="#000000"
     borderopacity="1"
     objecttolerance="10"
     gridtolerance="10"
     guidetolerance="10"
     inkscape:pageopacity="0"
     inkscape:pageshadow="2"
     inkscape:window-width="1920"
     inkscape:window-height="1009"
     id="namedview14"
     showgrid="false"
     inkscape:zoom="9.8125"
     inkscape:cx="29.605096"
     inkscape:cy="27.414013"
     inkscape:window-x="0"
     inkscape:window-y="0"
     inkscape:window-maximized="1"
     inkscape:current-layer="svg12"
     inkscape:document-rotation="0"
     inkscape:lockguides="false"
     inkscape:showpageshadow="false"
     inkscape:pagecheckerboard="0">
    <inkscape:grid
       type="xygrid"
       id="grid941"
       originx="0"
       originy="0" />
  </sodipodi:namedview>
  <g
     id="choqok_offline"
     style="fill:#bf616a;fill-opacity:1">
    <rect
       style="opacity:0.00100002;fill:#bf616a;fill-opacity:1"
       width="32"
       height="32"
       x="0"
       y="0"
       id="rect7" />
    <path
       style="color:#d5c289;isolation:isolate;fill:#bf616a;fill-opacity:1;stroke-width:1.27239"
       class="ColorScheme-Text"
       fill-rule="evenodd"
       d="m 13.305001,18.321238 c 0.752494,1.046634 1.943742,1.676165 3.221239,1.678762 1.277499,0 2.468752,-0.632128 3.221262,-1.678762 l 0.431247,-0.07906 c 0.541249,0 0.743741,-1.242226 0.360004,-1.66192 l -3.581259,-3.476633 c -0.113734,-0.125647 -0.269989,-0.1943 -0.431254,-0.1943 -0.161236,0 -0.316251,0.06995 -0.431247,0.1943 l -3.581246,3.47669 C 12.129996,17 12.332506,18.242231 12.873752,18.242231 Z M 9.1575034,8.5466325 C 7.4137568,8.5466325 6,10.011658 6,11.818653 c 9.599e-4,0.277201 0.036216,0.553108 0.1037725,0.821243 0.3587507,-1.4443 1.6150055,-2.455958 3.053751,-2.457253 1.4387465,0.0013 2.6937495,1.009068 3.0550065,2.450776 0.06743,-0.265543 0.101208,-0.540156 0.103756,-0.814766 0,-1.806995 -1.413757,-3.2720205 -3.1587528,-3.2720205 z M 21.790001,10.182643 C 21.790001,8.977979 22.732501,8 23.894999,8 25.056252,8 26,8.977979 26,10.182643 c 0,1.203368 -0.943748,2.181347 -2.105001,2.181347 -1.162498,0 -2.104998,-0.977979 -2.104998,-2.181347 z"
       id="path58" />
    <path
       d="m 21.70365,24 -3.444726,3.141888 c -1.242416,1.144149 -3.275343,1.144149 -4.545888,0 L 10.296439,24 H 7.1623107 C 5.4399528,24 4,22.695584 4,21.083486 V 6.9122156 C 4,5.326072 5.4117745,4 7.1623107,4 H 24.837685 C 26.560044,4 28,5.3001175 28,6.9122156 V 21.083486 C 28,22.669628 26.588235,24 24.837685,24 Z M 7.1624182,5 C 6.1459376,5 5,5.9760386 5,6.9121226 V 21.083393 C 5,22.019477 6.1459376,23 7.1624182,23 h 3.6706528 l 3.811878,3.484 c 0.734084,0.676014 1.948298,0.676014 2.682311,0 L 21.167276,23 h 3.670668 C 25.854409,23 27,22.019661 27,21.083577 V 6.912 C 27,5.9759175 25.854409,5 24.837944,5 Z"
       fill-rule="evenodd"
       id="path85"
       sodipodi:nodetypes="ccccsssssssscccccccccccccc"
       style="fill:#bf616a;fill-opacity:1;stroke-width:0.0483856" />
  </g>
  <g
     id="22-22-choqok_offline"
     transform="translate(32,10)"
     style="fill:#bf616a;fill-opacity:1">
    <rect
       style="opacity:0.00100002;fill:#bf616a;fill-opacity:1"
       width="22"
       height="22"
       x="0"
       y="0"
       id="rect2" />
    <path
       style="color:#d5c289;isolation:isolate;fill:#bf616a;fill-opacity:1;stroke-width:0.848879"
       class="ColorScheme-Text"
       fill-rule="evenodd"
       d="m 9.2108394,12.013855 c 0.5110243,0.685892 1.3200046,1.098448 2.1875556,1.100145 0.867554,0 1.676533,-0.414253 2.187557,-1.100145 l 0.292864,-0.05177 c 0.367564,0 0.505082,-0.81407 0.244475,-1.089104 L 11.691259,8.5945793 c -0.07725,-0.082342 -0.183358,-0.1273317 -0.292864,-0.1273317 -0.109506,0 -0.214765,0.045838 -0.292861,0.1273317 L 8.6735,10.872966 c -0.2606054,0.275037 -0.1230872,1.089109 0.2444768,1.089109 z M 6.3942643,5.6082263 C 5.2100804,5.6082263 4.25,6.5683066 4.25,7.7524906 4.2508474,7.9341503 4.274618,8.1149613 4.3204562,8.2906788 4.564084,7.3441805 5.4172055,6.6812072 6.3942634,6.6803582 c 0.9770582,8.478e-4 1.829331,0.6612756 2.0746563,1.6060761 0.045839,-0.1740198 0.068761,-0.3539818 0.070456,-0.5339437 0,-1.184184 -0.9600803,-2.1442643 -2.1451114,-2.1442643 z m 8.5787537,1.0721319 c 0,-0.7894559 0.640054,-1.4303582 1.42951,-1.4303582 0.788608,0 1.429508,0.6409023 1.429508,1.4303582 0,0.7886071 -0.6409,1.4295096 -1.429508,1.4295096 -0.789457,0 -1.42951,-0.6409025 -1.42951,-1.4295096 z"
       id="path58-5" />
    <path
       d="m 15.27775,16 -2.58355,2.427925 c -0.93181,0.762767 -2.45652,0.762767 -3.40943,0 L 6.7223398,16 H 4.3717299 C 3.0799699,16 2,15.063732 2,13.989 V 4.941477 C 2,3.884048 3.0588399,3 4.3717299,3 H 17.62826 C 18.92004,3 20,3.866745 20,4.941477 V 13.989 C 20,15.046428 18.94118,16 17.62826,16 Z M 4.3718099,4 C 3.6094499,4 3,4.317359 3,4.941415 V 13.989 C 3,14.613056 3.6094499,15 4.3718099,15 H 7.1248098 L 9.98371,17.656 c 0.55056,0.450676 1.46122,0.450676 2.01174,0 L 14.87547,15 h 2.75298 C 18.390819,15 19,14.613056 19,13.989 V 4.941538 C 19,4.317483 18.390819,4 17.62845,4 Z"
       fill-rule="evenodd"
       id="path85-3"
       sodipodi:nodetypes="ccccsssssssscccccccccccccc"
       style="fill:#bf616a;fill-opacity:1;stroke-width:0.0342137" />
  </g>
</svg>
