<?xml version="1.0" encoding="UTF-8" standalone="no"?>
<svg
   id="svg2"
   width="32"
   height="32"
   version="1.0"
   inkscape:version="1.1.2 (0a00cf5339, 2022-02-04)"
   sodipodi:docname="computer.svg"
   xmlns:inkscape="http://www.inkscape.org/namespaces/inkscape"
   xmlns:sodipodi="http://sodipodi.sourceforge.net/DTD/sodipodi-0.dtd"
   xmlns:xlink="http://www.w3.org/1999/xlink"
   xmlns="http://www.w3.org/2000/svg"
   xmlns:svg="http://www.w3.org/2000/svg"
   xmlns:rdf="http://www.w3.org/1999/02/22-rdf-syntax-ns#"
   xmlns:cc="http://creativecommons.org/ns#"
   xmlns:dc="http://purl.org/dc/elements/1.1/">
  <g
     id="computer-laptop"
     transform="translate(31.999992)">
    <rect
       y="-3.6468506e-09"
       x="-1.8041993e-07"
       height="32"
       width="32"
       id="rect820-3"
       style="clip-rule:evenodd;fill:#2020ff;fill-opacity:0;fill-rule:evenodd;stroke-linejoin:round;stroke-miterlimit:1.41421" />
    <path
       d="m 12.893643,24.995974 v 1.606585 h -2.005701 c -0.629684,0 -1.1402,0.62537 -1.1402,1.397441 h 12.407189 c 0,-0.772071 -0.510516,-1.397441 -1.1402,-1.397441 h -1.971858 v -1.606585 z"
       id="path2-5"
       style="fill:url(#linearGradient3395);fill-opacity:1;stroke-width:0.360234"
       sodipodi:nodetypes="ccsccsccc" />
    <path
       d="M 3,18.997124 H 2.00036 v 0.965657 2.376008 c 0,0.913765 0.741182,1.657377 1.651962,1.657377 h 24.696075 c 0.910781,0 1.651963,-0.743612 1.651963,-1.657377 V 19.962781 18.997124 H 29 Z m 26,3.342026 c 0,0.367442 -0.249841,0.657207 -0.651964,0.657207 H 3.652 C 3.329575,22.996357 3,22.762165 3,22.33915 v -2.342217 h 26 z"
       id="path4-3"
       style="fill:url(#linearGradient3397);fill-opacity:1;stroke-width:0.361438"
       sodipodi:nodetypes="cccssssccccssssccs" />
    <path
       d="M 28.348059,4 H 3.65194 C 2.741172,4 2,4.753739 2,5.679583 V 18.997124 H 3 V 5.67995 C 3,5.356866 3.337108,4.999808 3.65158,4.999808 H 28.348059 C 28.793574,4.999808 29,5.277179 29,5.67995 v 13.317174 h 1 V 5.67995 C 29.999639,4.753739 29.258827,4 28.348059,4 Z"
       id="path6-5"
       style="fill:url(#linearGradient3399);fill-opacity:1;stroke-width:0.363889"
       sodipodi:nodetypes="sssccsssscccs" />
    <path
       inkscape:connector-curvature="0"
       id="path3825-5-6"
       style="color:#31363b;clip-rule:evenodd;fill:url(#linearGradient3401);fill-opacity:1;fill-rule:nonzero;stroke-width:0.532761;stroke-linejoin:round;stroke-miterlimit:1.41421"
       d="m 16.885165,6.499521 -1.773507,0.170255 v 7.294487 l 1.754569,-0.264838 v -3.109997 l 2.36089,3.450508 1.849298,-0.586439 -2.417733,-3.318076 2.436687,-3.128917 -1.8872,-0.431313 -2.341942,3.128915 z M 12.86445,8.277743 c -0.02008,0.0021 -0.04172,0.0076 -0.0568,0.02266 l -0.697281,0.696153 c -0.02929,0.02937 -0.03288,0.07424 -0.0114,0.109727 l 0.814755,1.34312 c -0.144672,0.242801 -0.262145,0.503251 -0.344848,0.779383 L 11.072,11.53904 C 11.03035,11.54764 11,11.58722 11,11.62984 v 0.983699 c 0,0.04159 0.03167,0.07722 0.072,0.08702 l 1.451402,0.351859 c 0.07761,0.319682 0.19751,0.625598 0.356219,0.904242 l -0.841284,1.278803 c -0.02346,0.03567 -0.01892,0.08336 0.0114,0.11351 l 0.697275,0.69615 c 0.02943,0.02923 0.07443,0.03287 0.109897,0.01136 l 1.318769,-0.798303 c 0.258663,0.149103 0.538695,0.26854 0.833708,0.348083 l 0.306944,1.475546 c 0.0086,0.04171 0.04453,0.07192 0.08717,0.07192 h 0.985281 c 0.04136,0 0.07734,-0.02773 0.08716,-0.06811 l 0.363795,-1.483112 c 0.304255,-0.0819 0.591109,-0.203491 0.856441,-0.359428 l 1.29982,0.851273 c 0.03585,0.02329 0.0833,0.01881 0.113688,-0.01137 l 0.693489,-0.696153 c 0.02948,-0.02936 0.03673,-0.07432 0.01512,-0.109719 l -0.473696,-0.77939 -0.155373,0.04919 c -0.02246,0.0072 -0.04729,-0.0028 -0.06062,-0.02267 0,0 -0.299226,-0.439458 -0.6897,-1.010169 -0.466987,0.912321 -1.41936,1.536071 -2.516267,1.536071 -1.558678,0 -2.823216,-1.262501 -2.823216,-2.818668 0,-1.144683 0.685612,-2.127845 1.667412,-2.568961 V 8.9361 c -0.178693,0.06246 -0.351317,0.137776 -0.515388,0.227007 -2.06e-4,-1.33e-4 3.38e-4,-0.0033 0,-0.0036 L 12.9213,8.289333 c -0.0179,-0.01168 -0.03676,-0.01337 -0.05681,-0.01139 z"
       class="ColorScheme-Text" />
  </g>
  <g
     id="computer">
    <rect
       y="0"
       x="0"
       height="32"
       width="32"
       id="rect820"
       style="clip-rule:evenodd;fill:#2020ff;fill-opacity:0;fill-rule:evenodd;stroke-linejoin:round;stroke-miterlimit:1.41421" />
    <path
       d="m 12.893635,24.995974 v 1.606585 h -2.005701 c -0.629684,0 -1.1401996,0.62537 -1.1401996,1.397441 H 22.154923 c 0,-0.772071 -0.510516,-1.397441 -1.1402,-1.397441 h -1.971858 v -1.606585 z"
       id="path2"
       style="fill:url(#linearGradient1082);fill-opacity:1;stroke-width:0.360234"
       sodipodi:nodetypes="ccsccsccc" />
    <path
       d="m 2.9999924,18.997124 h -0.99964 v 0.965657 2.376008 c 0,0.913765 0.741182,1.657377 1.651962,1.657377 H 28.348389 c 0.910781,0 1.651963,-0.743612 1.651963,-1.657377 v -2.376008 -0.965657 h -1.00036 z M 28.999992,22.33915 c 0,0.367442 -0.249841,0.657207 -0.651964,0.657207 H 3.6519924 c -0.322425,0 -0.652,-0.234192 -0.652,-0.657207 V 19.996933 H 28.999992 Z"
       id="path4"
       style="fill:url(#linearGradient1074);fill-opacity:1;stroke-width:0.361438"
       sodipodi:nodetypes="cccssssccccssssccs" />
    <path
       d="M 28.348051,3.9999998 H 3.6519324 c -0.910767,0 -1.65194,0.7537396 -1.65194,1.6795832 v 13.317541 h 1 V 5.6799499 c 0,-0.3230844 0.337108,-0.6801418 0.65158,-0.6801418 H 28.348051 c 0.445515,0 0.651941,0.2773705 0.651941,0.6801418 V 18.997124 h 1 V 5.6799499 C 29.999631,4.7537394 29.258819,3.9999998 28.348051,3.9999998 Z"
       id="path6"
       style="fill:url(#linearGradient874);fill-opacity:1;stroke-width:0.363889"
       sodipodi:nodetypes="sssccsssscccs" />
    <path
       inkscape:connector-curvature="0"
       id="path3825-5"
       style="color:#31363b;clip-rule:evenodd;fill:url(#linearGradient1090);fill-opacity:1;fill-rule:nonzero;stroke-width:0.532761;stroke-linejoin:round;stroke-miterlimit:1.41421"
       d="M 16.885157,6.4995205 15.11165,6.6697759 v 7.2944871 l 1.754569,-0.264838 v -3.109997 l 2.36089,3.450508 1.849298,-0.586439 -2.417733,-3.318076 2.436687,-3.1289177 -1.8872,-0.4313123 -2.341942,3.128915 z m -4.020715,1.778222 c -0.02008,0.0021 -0.04172,0.0076 -0.0568,0.022666 L 12.110361,8.996561 c -0.02929,0.029374 -0.03288,0.074236 -0.0114,0.109727 l 0.814755,1.34312 c -0.144672,0.242801 -0.262145,0.503251 -0.344848,0.779383 l -1.496876,0.310254 c -0.04165,0.0086 -0.072,0.04818 -0.072,0.0908 v 0.983699 c 0,0.04159 0.03167,0.07722 0.072,0.08702 l 1.451402,0.351859 c 0.07761,0.319682 0.19751,0.625598 0.356219,0.904242 l -0.841284,1.278803 c -0.02346,0.03567 -0.01892,0.08336 0.0114,0.11351 l 0.697275,0.69615 c 0.02943,0.02923 0.07443,0.03287 0.109897,0.01136 l 1.318769,-0.798303 c 0.258663,0.149103 0.538695,0.26854 0.833708,0.348083 l 0.306944,1.475546 c 0.0086,0.04171 0.04453,0.07192 0.08717,0.07192 h 0.985281 c 0.04136,0 0.07734,-0.02773 0.08716,-0.06811 l 0.363795,-1.483112 c 0.304255,-0.0819 0.591109,-0.203491 0.856441,-0.359428 l 1.29982,0.851273 c 0.03585,0.02329 0.0833,0.01881 0.113688,-0.01137 l 0.693489,-0.696153 c 0.02948,-0.02936 0.03673,-0.07432 0.01512,-0.109719 l -0.473696,-0.77939 -0.155373,0.04919 c -0.02246,0.0072 -0.04729,-0.0028 -0.06062,-0.02267 0,0 -0.299226,-0.439458 -0.6897,-1.010169 -0.466987,0.912321 -1.41936,1.536071 -2.516267,1.536071 -1.558678,0 -2.823216,-1.262501 -2.823216,-2.818668 0,-1.144683 0.685612,-2.127845 1.667412,-2.568961 V 8.9360993 c -0.178693,0.062458 -0.351317,0.1377766 -0.515388,0.2270075 -2.06e-4,-1.33e-4 3.38e-4,-0.0033 0,-0.0036 L 12.921292,8.2893333 c -0.0179,-0.011678 -0.03676,-0.013367 -0.05681,-0.011388 z"
       class="ColorScheme-Text" />
  </g>
  <sodipodi:namedview
     pagecolor="#ffffff"
     bordercolor="#000000"
     borderopacity="1"
     objecttolerance="10"
     gridtolerance="10"
     guidetolerance="10"
     inkscape:pageopacity="0"
     inkscape:pageshadow="2"
     inkscape:window-width="1920"
     inkscape:window-height="1009"
     id="namedview24"
     showgrid="false"
     inkscape:zoom="8.0751594"
     inkscape:cx="31.144896"
     inkscape:cy="27.244044"
     inkscape:window-x="0"
     inkscape:window-y="0"
     inkscape:window-maximized="1"
     inkscape:current-layer="svg2"
     inkscape:document-rotation="0"
     showguides="false"
     inkscape:pagecheckerboard="0"
     inkscape:showpageshadow="false">
    <inkscape:grid
       type="xygrid"
       id="grid3445"
       originx="31.999992"
       originy="-2.3635315e-07" />
  </sodipodi:namedview>
  <metadata
     id="metadata7">
    <rdf:RDF>
      <cc:Work
         rdf:about="">
        <dc:format>image/svg+xml</dc:format>
        <dc:type
           rdf:resource="http://purl.org/dc/dcmitype/StillImage" />
      </cc:Work>
    </rdf:RDF>
  </metadata>
  <defs
     id="defs5">
    <linearGradient
       inkscape:collect="always"
       id="linearGradient872">
      <stop
         style="stop-color:#5c5c88;stop-opacity:1"
         offset="0"
         id="stop868" />
      <stop
         style="stop-color:#088699;stop-opacity:1"
         offset="1"
         id="stop870" />
    </linearGradient>
    <style
       id="current-color-scheme"
       type="text/css" />
    <linearGradient
       inkscape:collect="always"
       xlink:href="#linearGradient872"
       id="linearGradient874"
       x1="2"
       y1="11.209684"
       x2="29.936516"
       y2="11.209684"
       gradientUnits="userSpaceOnUse"
       gradientTransform="matrix(1.0022725,0,0,1.0192666,-0.00455263,-0.07706679)" />
    <linearGradient
       inkscape:collect="always"
       xlink:href="#linearGradient872"
       id="linearGradient1074"
       x1="2.00036"
       y1="21.094177"
       x2="29.936516"
       y2="21.094177"
       gradientUnits="userSpaceOnUse"
       gradientTransform="matrix(1.0022854,0,0,1.0055706,-0.00457963,0.08499935)" />
    <linearGradient
       inkscape:collect="always"
       xlink:href="#linearGradient872"
       id="linearGradient1082"
       x1="9.7477417"
       y1="26.302301"
       x2="22.15493"
       y2="26.302301"
       gradientUnits="userSpaceOnUse"
       gradientTransform="matrix(1,0,0,1.0011634,-7.6293945e-6,-0.03257517)" />
    <linearGradient
       inkscape:collect="always"
       xlink:href="#linearGradient872"
       id="linearGradient1090"
       x1="11"
       y1="11.828129"
       x2="21.095369"
       y2="11.828129"
       gradientUnits="userSpaceOnUse"
       gradientTransform="matrix(1,0,0,0.99980829,-7.6293945e-6,7.6661661e-4)" />
    <linearGradient
       inkscape:collect="always"
       xlink:href="#linearGradient872"
       id="linearGradient3395"
       gradientUnits="userSpaceOnUse"
       gradientTransform="matrix(1,0,0,1.0011634,0,-0.032575)"
       x1="9.7477417"
       y1="26.302301"
       x2="22.15493"
       y2="26.302301" />
    <linearGradient
       inkscape:collect="always"
       xlink:href="#linearGradient872"
       id="linearGradient3397"
       gradientUnits="userSpaceOnUse"
       gradientTransform="matrix(1.0022854,0,0,1.0055706,-0.004572,0.085)"
       x1="2.00036"
       y1="21.094177"
       x2="29.936516"
       y2="21.094177" />
    <linearGradient
       inkscape:collect="always"
       xlink:href="#linearGradient872"
       id="linearGradient3399"
       gradientUnits="userSpaceOnUse"
       gradientTransform="matrix(1.0022725,0,0,1.0192666,-0.004545,-0.077066)"
       x1="2"
       y1="11.209684"
       x2="29.936516"
       y2="11.209684" />
    <linearGradient
       inkscape:collect="always"
       xlink:href="#linearGradient872"
       id="linearGradient3401"
       gradientUnits="userSpaceOnUse"
       x1="11"
       y1="11.828129"
       x2="21.095369"
       y2="11.828129"
       gradientTransform="matrix(1,0,0,0.99980829,0,7.67e-4)" />
  </defs>
  <g
     style="fill:none;stroke:#ffffff"
     id="g4171"
     transform="translate(-102.1118,-18.990759)">
    <g
       transform="translate(-38.38147,-1006.1003)"
       style="stroke-width:0.5"
       id="g4173" />
    <g
       transform="translate(-39.59798,-1004.3622)"
       style="stroke-width:0.4"
       id="g4175" />
  </g>
</svg>
