<?xml version="1.0" encoding="UTF-8" standalone="no"?>
<svg
   width="32"
   height="32"
   version="1.1"
   id="svg12"
   sodipodi:docname="compass.svg"
   inkscape:version="1.1.2 (0a00cf5339, 2022-02-04)"
   xmlns:inkscape="http://www.inkscape.org/namespaces/inkscape"
   xmlns:sodipodi="http://sodipodi.sourceforge.net/DTD/sodipodi-0.dtd"
   xmlns:xlink="http://www.w3.org/1999/xlink"
   xmlns="http://www.w3.org/2000/svg"
   xmlns:svg="http://www.w3.org/2000/svg"
   xmlns:rdf="http://www.w3.org/1999/02/22-rdf-syntax-ns#"
   xmlns:cc="http://creativecommons.org/ns#"
   xmlns:dc="http://purl.org/dc/elements/1.1/">
  <g
     id="compass">
    <path
       style="clip-rule:evenodd;fill:#ffffc1;fill-opacity:0;fill-rule:evenodd;stroke-width:1.00213;stroke-linejoin:round;stroke-miterlimit:1.41421"
       d="M 0,0 V 32 H 32 V 0 Z"
       id="rect817"
       inkscape:connector-curvature="0" />
    <circle
       cx="15.898582"
       cy="16.107157"
       r="1.6973615"
       id="circle4"
       style="fill:url(#linearGradient1395);fill-opacity:1;stroke-width:0.282899" />
    <path
       d="m 15.516664,19.387744 a 3.3747767,3.3747767 0 0 1 -1.654938,-0.687008 l -0.821942,0.821936 2.476881,6.499622 z"
       id="path6-3"
       style="fill:url(#linearGradient1387);fill-opacity:1;stroke-width:0.424333" />
    <path
       d="m 15.516664,12.656844 v -6.63455 l -2.476023,6.499622 0.821085,0.821936 a 3.3747767,3.3747767 0 0 1 1.654938,-0.687008 z"
       id="path8-6"
       style="fill:url(#linearGradient1347);fill-opacity:1;stroke-width:0.424333" />
    <path
       d="M 12.575549,16.446629 H 5.941 l 6.499621,2.476023 0.821937,-0.821085 a 3.3747767,3.3747767 0 0 1 -0.687009,-1.654938 z"
       id="path10-7"
       style="fill:url(#linearGradient1339);fill-opacity:1;stroke-width:0.424333" />
    <path
       d="m 6.025869,15.597959 h 6.549681 c 0.07563,-0.603477 0.313076,-1.175275 0.687008,-1.654938 l -0.821936,-0.821943 z"
       id="path12"
       sodipodi:nodetypes="ccccc"
       style="fill:url(#linearGradient1331);fill-opacity:1;stroke-width:0.424333" />
    <path
       d="M 18.841358,12.521916 16.365334,6.022294 v 6.63455 a 3.3747767,3.3747767 0 0 1 1.654939,0.687008 z"
       id="path16"
       style="fill:url(#linearGradient1355);fill-opacity:1;stroke-width:0.424333" />
    <path
       d="m 18.619442,13.943021 a 3.3747767,3.3747767 0 0 1 0.687007,1.654938 H 25.941 l -6.499622,-2.476023 z"
       id="path22"
       style="fill:url(#linearGradient1363);fill-opacity:1;stroke-width:0.424333" />
    <path
       d="m 18.020273,18.700736 a 3.3747767,3.3747767 0 0 1 -1.654939,0.687008 v 6.63455 l 2.476024,-6.499622 z"
       id="path24"
       style="fill:url(#linearGradient1379);fill-opacity:1;stroke-width:0.424333" />
    <path
       d="m 25.941,16.446629 h -6.634551 a 3.3747767,3.3747767 0 0 1 -0.687007,1.654938 l 0.821936,0.821943 z"
       id="path26"
       style="fill:url(#linearGradient1371);fill-opacity:1;stroke-width:0.424333" />
    <path
       d="M 24.485328,7.514736 C 22.218813,5.248176 19.205071,4 15.999999,4 12.794928,4 9.781184,5.248176 7.514928,7.514736 5.248192,9.781295 4,12.794761 4,16 4,19.205239 5.248192,22.218704 7.514928,24.485264 9.781184,26.751648 12.794928,28 15.999999,28 c 3.205328,0 6.218814,-1.248352 8.485329,-3.514736 2.26632,-2.26656 3.514669,-5.280025 3.514669,-8.485264 0,-3.205239 -1.248349,-6.218831 -3.514669,-8.485264 z M 23.114983,23.81465 C 20.905487,25.688864 19.123472,26.574873 16,26.551985 12.684048,26.527535 11.454032,25.904688 8.885017,23.814015 6.797575,21.726768 5.448015,18.951938 5.448015,16 c 0,-2.952128 1.392401,-6.090416 3.437002,-7.815008 C 11.178776,6.169423 13.090664,5.470055 16,5.448015 c 2.951871,-0.02249 4.927572,0.919473 7.114983,2.737205 2.087401,2.08737 3.437001,4.862668 3.437001,7.81478 0,2.951941 -1.3496,5.727412 -3.437001,7.81465 z"
       id="path2-36-912-3-36"
       style="fill:url(#linearGradient901);fill-opacity:1;stroke-width:0.037499"
       sodipodi:nodetypes="cscscscsccscscscsc" />
  </g>
  <metadata
     id="metadata18">
    <rdf:RDF>
      <cc:Work
         rdf:about="">
        <dc:format>image/svg+xml</dc:format>
        <dc:type
           rdf:resource="http://purl.org/dc/dcmitype/StillImage" />
      </cc:Work>
    </rdf:RDF>
  </metadata>
  <defs
     id="defs16">
    <linearGradient
       inkscape:collect="always"
       id="linearGradient1035">
      <stop
         style="stop-color:#5c5c88;stop-opacity:1"
         offset="0"
         id="stop1031" />
      <stop
         style="stop-color:#088699;stop-opacity:1"
         offset="1"
         id="stop1033" />
    </linearGradient>
    <linearGradient
       inkscape:collect="always"
       xlink:href="#linearGradient1035"
       id="linearGradient901"
       x1="4"
       y1="16"
       x2="27.999996"
       y2="16"
       gradientUnits="userSpaceOnUse" />
    <linearGradient
       inkscape:collect="always"
       xlink:href="#linearGradient1035"
       id="linearGradient1037"
       x1="34"
       y1="21"
       x2="51.999996"
       y2="21"
       gradientUnits="userSpaceOnUse"
       gradientTransform="matrix(1.1111118,0,0,1.1111118,-36.777795,-12.333338)" />
    <linearGradient
       inkscape:collect="always"
       xlink:href="#linearGradient1035"
       id="linearGradient1331"
       x1="6.0258689"
       y1="14.359519"
       x2="13.262558"
       y2="14.359519"
       gradientUnits="userSpaceOnUse" />
    <linearGradient
       inkscape:collect="always"
       xlink:href="#linearGradient1035"
       id="linearGradient1339"
       x1="5.941"
       y1="17.684641"
       x2="13.262558"
       y2="17.684641"
       gradientUnits="userSpaceOnUse" />
    <linearGradient
       inkscape:collect="always"
       xlink:href="#linearGradient1035"
       id="linearGradient1347"
       x1="13.040641"
       y1="9.683073"
       x2="15.516664"
       y2="9.683073"
       gradientUnits="userSpaceOnUse" />
    <linearGradient
       inkscape:collect="always"
       xlink:href="#linearGradient1035"
       id="linearGradient1355"
       x1="16.365334"
       y1="9.683073"
       x2="18.841358"
       y2="9.683073"
       gradientUnits="userSpaceOnUse" />
    <linearGradient
       inkscape:collect="always"
       xlink:href="#linearGradient1035"
       id="linearGradient1363"
       x1="18.619442"
       y1="14.359948"
       x2="25.941"
       y2="14.359948"
       gradientUnits="userSpaceOnUse" />
    <linearGradient
       inkscape:collect="always"
       xlink:href="#linearGradient1035"
       id="linearGradient1371"
       x1="18.619442"
       y1="17.68507"
       x2="25.941"
       y2="17.68507"
       gradientUnits="userSpaceOnUse" />
    <linearGradient
       inkscape:collect="always"
       xlink:href="#linearGradient1035"
       id="linearGradient1379"
       x1="16.365334"
       y1="22.361515"
       x2="18.841358"
       y2="22.361515"
       gradientUnits="userSpaceOnUse" />
    <linearGradient
       inkscape:collect="always"
       xlink:href="#linearGradient1035"
       id="linearGradient1387"
       x1="13.039784"
       y1="22.361515"
       x2="15.516665"
       y2="22.361515"
       gradientUnits="userSpaceOnUse" />
    <linearGradient
       inkscape:collect="always"
       xlink:href="#linearGradient1035"
       id="linearGradient1395"
       x1="14.201221"
       y1="16.107157"
       x2="17.595943"
       y2="16.107157"
       gradientUnits="userSpaceOnUse" />
    <linearGradient
       inkscape:collect="always"
       xlink:href="#linearGradient1035"
       id="linearGradient1403"
       x1="43.273998"
       y1="16.262304"
       x2="45.13102"
       y2="16.262304"
       gradientUnits="userSpaceOnUse"
       gradientTransform="matrix(1.1111118,0,0,1.1111118,-36.777795,-12.333338)" />
    <linearGradient
       inkscape:collect="always"
       xlink:href="#linearGradient1035"
       id="linearGradient1411"
       x1="40.780479"
       y1="16.262304"
       x2="42.637497"
       y2="16.262304"
       gradientUnits="userSpaceOnUse"
       gradientTransform="matrix(1.1111118,0,0,1.1111118,-36.777795,-12.333338)" />
    <linearGradient
       inkscape:collect="always"
       xlink:href="#linearGradient1035"
       id="linearGradient1419"
       x1="44.964581"
       y1="19.76996"
       x2="50.45575"
       y2="19.76996"
       gradientUnits="userSpaceOnUse"
       gradientTransform="matrix(1.1111118,0,0,1.1111118,-36.777795,-12.333338)" />
    <linearGradient
       inkscape:collect="always"
       xlink:href="#linearGradient1035"
       id="linearGradient1427"
       x1="44.964581"
       y1="22.263803"
       x2="50.45575"
       y2="22.263803"
       gradientUnits="userSpaceOnUse"
       gradientTransform="matrix(1.1111118,0,0,1.1111118,-36.777795,-12.333338)" />
    <linearGradient
       inkscape:collect="always"
       xlink:href="#linearGradient1035"
       id="linearGradient1499"
       x1="43.274002"
       y1="25.771135"
       x2="45.13102"
       y2="25.771135"
       gradientUnits="userSpaceOnUse"
       gradientTransform="matrix(1.1111118,0,0,1.1111118,-36.777795,-12.333338)" />
    <linearGradient
       inkscape:collect="always"
       xlink:href="#linearGradient1035"
       id="linearGradient1507"
       x1="35.45575"
       y1="22.263481"
       x2="40.946918"
       y2="22.263481"
       gradientUnits="userSpaceOnUse"
       gradientTransform="matrix(1.1111118,0,0,1.1111118,-36.777795,-12.333338)" />
    <linearGradient
       inkscape:collect="always"
       xlink:href="#linearGradient1035"
       id="linearGradient1515"
       x1="35.519402"
       y1="19.769638"
       x2="40.946918"
       y2="19.769638"
       gradientUnits="userSpaceOnUse"
       gradientTransform="matrix(1.1111118,0,0,1.1111118,-36.777795,-12.333338)" />
    <linearGradient
       inkscape:collect="always"
       xlink:href="#linearGradient1035"
       id="linearGradient1523"
       x1="40.779839"
       y1="25.771135"
       x2="42.637501"
       y2="25.771135"
       gradientUnits="userSpaceOnUse"
       gradientTransform="matrix(1.1111118,0,0,1.1111118,-36.777795,-12.333338)" />
    <linearGradient
       inkscape:collect="always"
       xlink:href="#linearGradient1035"
       id="linearGradient1531"
       x1="41.650917"
       y1="21.080368"
       x2="44.19696"
       y2="21.080368"
       gradientUnits="userSpaceOnUse"
       gradientTransform="matrix(1.1111118,0,0,1.1111118,-36.777795,-12.333338)" />
  </defs>
  <sodipodi:namedview
     pagecolor="#ffffff"
     bordercolor="#000000"
     borderopacity="1"
     objecttolerance="10"
     gridtolerance="10"
     guidetolerance="10"
     inkscape:pageopacity="0"
     inkscape:pageshadow="2"
     inkscape:window-width="1920"
     inkscape:window-height="1015"
     id="namedview14"
     showgrid="false"
     inkscape:zoom="5.6568543"
     inkscape:cx="16.528621"
     inkscape:cy="8.4852813"
     inkscape:window-x="0"
     inkscape:window-y="0"
     inkscape:window-maximized="1"
     inkscape:current-layer="svg12"
     inkscape:document-rotation="0"
     inkscape:lockguides="true"
     inkscape:showpageshadow="true"
     inkscape:pagecheckerboard="0">
    <inkscape:grid
       type="xygrid"
       id="grid880"
       originx="32"
       originy="9.9999997" />
  </sodipodi:namedview>
  <g
     id="22-22-compass"
     transform="translate(32,9.9999997)">
    <path
       style="clip-rule:evenodd;fill:#ffffc1;fill-opacity:0;fill-rule:evenodd;stroke-width:0.688964;stroke-linejoin:round;stroke-miterlimit:1.41421"
       d="M 0,0 V 22 H 22 V 0 Z"
       id="rect817-5"
       inkscape:connector-curvature="0" />
    <circle
       cx="10.915488"
       cy="11.089293"
       r="1.4144677"
       id="circle4-9"
       style="fill:url(#linearGradient1531);fill-opacity:1;stroke-width:0.235754" />
    <path
       d="m 10.597218,13.823128 a 2.8123145,2.8123145 0 0 1 -1.37911,-0.572516 l -0.684952,0.684952 2.064063,5.416356 z"
       id="path6-3-3"
       style="fill:url(#linearGradient1523);fill-opacity:1;stroke-width:0.35361" />
    <path
       d="M 10.597218,8.2140391 V 2.685244 l -2.063347,5.4163551 0.684237,0.684946 a 2.8123145,2.8123145 0 0 1 1.37911,-0.572506 z"
       id="path8-6-6"
       style="fill:url(#linearGradient1411);fill-opacity:1;stroke-width:0.35361" />
    <path
       d="M 8.146294,11.372192 H 2.6175 L 8.033854,13.435549 8.7188,12.751315 A 2.8123145,2.8123145 0 0 1 8.146294,11.372192 Z"
       id="path10-7-0"
       style="fill:url(#linearGradient1507);fill-opacity:1;stroke-width:0.35361" />
    <path
       d="m 2.688224,10.664969 h 5.45807 C 8.2093141,10.162061 8.407192,9.685573 8.7188,9.285852 L 8.033854,8.6009001 Z"
       id="path12-6"
       sodipodi:nodetypes="ccccc"
       style="fill:url(#linearGradient1515);fill-opacity:1;stroke-width:0.35361" />
    <path
       d="M 13.367798,8.1015991 11.30444,2.685247 v 5.5287921 a 2.8123145,2.8123145 0 0 1 1.379125,0.572506 z"
       id="path16-2"
       style="fill:url(#linearGradient1403);fill-opacity:1;stroke-width:0.35361" />
    <path
       d="m 13.182881,9.285852 a 2.8123145,2.8123145 0 0 1 0.572496,1.379117 H 19.28417 L 13.867813,8.6016161 Z"
       id="path22-6"
       style="fill:url(#linearGradient1419);fill-opacity:1;stroke-width:0.35361" />
    <path
       d="m 12.683565,13.250612 a 2.8123145,2.8123145 0 0 1 -1.379124,0.572516 v 5.528792 l 2.063357,-5.416356 z"
       id="path24-1"
       style="fill:url(#linearGradient1499);fill-opacity:1;stroke-width:0.35361" />
    <path
       d="m 19.28417,11.372192 h -5.528793 a 2.8123145,2.8123145 0 0 1 -0.572496,1.379123 l 0.684932,0.684938 z"
       id="path26-8"
       style="fill:url(#linearGradient1427);fill-opacity:1;stroke-width:0.35361" />
    <path
       d="M 18.071116,3.928948 C 16.18235,2.040146 13.670903,1 10.999999,1 8.3291081,1 5.817654,2.040146 3.929108,3.928948 2.04016,5.8177471 1,8.3289709 1,11 1,13.671029 2.04016,16.182248 3.929108,18.071068 5.817654,19.959716 8.3291081,21 10.999999,21 c 2.671116,0 5.182351,-1.040284 7.071117,-2.928932 1.8886,-1.88882 2.928882,-4.400039 2.928882,-7.071068 0,-2.6710291 -1.040282,-5.1823569 -2.928882,-7.071052 z M 16.929157,17.512207 C 15.087915,19.074068 13.602904,19.812395 11,19.793329 8.236708,19.772949 7.211696,19.253916 5.070849,17.511691 3.331313,15.772316 2.206679,13.459954 2.206679,11 c 0,-2.4601039 1.160335,-5.0753459 2.86417,-6.5125059 C 6.982316,2.807853 8.575556,2.225045 11,2.206679 13.459903,2.187933 15.106319,2.972908 16.929157,4.4876851 18.668668,6.2271611 19.793328,8.5399092 19.793328,11 c 0,2.459956 -1.12466,4.772839 -2.864171,6.512207 z"
       id="path2-36-912-3-36-7"
       style="fill:url(#linearGradient1037);fill-opacity:1;stroke-width:0.0312482"
       sodipodi:nodetypes="cscscscsccscscscsc" />
  </g>
</svg>
