<?xml version="1.0" encoding="UTF-8" standalone="no"?>
<svg
   width="8.4666672mm"
   height="8.4666672mm"
   id="svg3869"
   version="1.1"
   viewBox="0 0 32.000001 32.000003"
   sodipodi:docname="input.svg"
   inkscape:version="1.1.2 (0a00cf5339, 2022-02-04)"
   xmlns:inkscape="http://www.inkscape.org/namespaces/inkscape"
   xmlns:sodipodi="http://sodipodi.sourceforge.net/DTD/sodipodi-0.dtd"
   xmlns="http://www.w3.org/2000/svg"
   xmlns:svg="http://www.w3.org/2000/svg"
   xmlns:rdf="http://www.w3.org/1999/02/22-rdf-syntax-ns#"
   xmlns:cc="http://creativecommons.org/ns#"
   xmlns:dc="http://purl.org/dc/elements/1.1/">
  <sodipodi:namedview
     pagecolor="#ffffff"
     bordercolor="#000000"
     borderopacity="1"
     objecttolerance="10"
     gridtolerance="10"
     guidetolerance="10"
     inkscape:pageopacity="0"
     inkscape:pageshadow="2"
     inkscape:window-width="1920"
     inkscape:window-height="1009"
     id="namedview49"
     showgrid="false"
     inkscape:zoom="2.8284271"
     inkscape:cx="32.350136"
     inkscape:cy="122.8598"
     inkscape:window-x="0"
     inkscape:window-y="0"
     inkscape:window-maximized="1"
     inkscape:current-layer="svg3869"
     inkscape:document-rotation="0"
     inkscape:lockguides="false"
     inkscape:showpageshadow="false"
     inkscape:pagecheckerboard="0"
     showguides="true"
     units="mm"
     inkscape:document-units="mm">
    <inkscape:grid
       type="xygrid"
       id="grid5058"
       originx="-21.999996"
       originy="106" />
  </sodipodi:namedview>
  <metadata
     id="metadata25">
    <rdf:RDF>
      <cc:Work
         rdf:about="">
        <dc:format>image/svg+xml</dc:format>
        <dc:type
           rdf:resource="http://purl.org/dc/dcmitype/StillImage" />
      </cc:Work>
    </rdf:RDF>
  </metadata>
  <defs
     id="defs3871">
    <style
       type="text/css"
       id="current-color-scheme" />
    <linearGradient
       id="a"
       gradientUnits="userSpaceOnUse"
       x1="41"
       x2="23"
       y1="58"
       y2="6"
       gradientTransform="matrix(0.46153841,0,0,0.46153841,1.215575,1.2307666)">
      <stop
         offset="0"
         stop-color="#848f9a"
         id="stop2" />
      <stop
         offset=".33333299"
         stop-color="#bdc2c7"
         id="stop4" />
      <stop
         offset="1"
         stop-color="#f6f6f6"
         id="stop6" />
    </linearGradient>
    <linearGradient
       id="d"
       gradientUnits="userSpaceOnUse"
       x1="32"
       x2="32"
       y1="6"
       y2="28"
       gradientTransform="matrix(0.46153841,0,0,0.46153841,1.215575,1.2307666)">
      <stop
         offset="0"
         stop-color="#68737e"
         id="stop21" />
      <stop
         offset="1"
         stop-color="#7a8692"
         id="stop23" />
    </linearGradient>
    <linearGradient
       id="c"
       gradientTransform="matrix(-0.46153841,0,0,0.46153841,-10.322886,1.2307666)"
       gradientUnits="userSpaceOnUse"
       x1="-60"
       x2="-54"
       y1="22"
       y2="12">
      <stop
         offset="0"
         stop-color="#8e98a2"
         id="stop16" />
      <stop
         offset="1"
         stop-color="#6c7884"
         id="stop18" />
    </linearGradient>
    <linearGradient
       id="e"
       gradientTransform="matrix(-0.46153846,0,0,0.46153846,-10.322887,1.2307616)"
       gradientUnits="userSpaceOnUse"
       x1="-55"
       x2="-55"
       y1="22"
       y2="12">
      <stop
         offset="0"
         stop-color="#232629"
         id="stop26" />
      <stop
         offset=".333"
         stop-color="#373d43"
         id="stop28" />
      <stop
         offset=".667"
         stop-color="#565f68"
         id="stop30" />
      <stop
         offset="1"
         stop-color="#474e55"
         id="stop32" />
    </linearGradient>
    <linearGradient
       id="b"
       gradientTransform="matrix(-0.46153846,0,0,0.46153846,-10.322887,1.2307616)"
       gradientUnits="userSpaceOnUse"
       x1="-55"
       x2="-55"
       y1="12"
       y2="22">
      <stop
         offset="0"
         stop-color="#54b5e8"
         id="stop9" />
      <stop
         offset=".333"
         stop-color="#8fd9ff"
         id="stop11" />
      <stop
         offset="1"
         stop-color="#369acf"
         id="stop13" />
    </linearGradient>
    <linearGradient
       id="f"
       gradientUnits="userSpaceOnUse"
       x1="21.005859"
       x2="21"
       y1="21.005859"
       y2="58"
       gradientTransform="matrix(0.46153846,0,0,0.46153846,1.215574,1.2307616)">
      <stop
         offset="0"
         stop-color="#565f68"
         id="stop35" />
      <stop
         offset=".5945304"
         stop-color="#68737e"
         id="stop37" />
      <stop
         offset="1"
         stop-color="#424950"
         id="stop39" />
    </linearGradient>
    <linearGradient
       id="a-3"
       gradientUnits="userSpaceOnUse"
       x1="41"
       x2="23"
       y1="58"
       y2="6"
       gradientTransform="matrix(0.30769228,0,0,0.30769228,-18.922785,11.15386)">
      <stop
         offset="0"
         stop-color="#848f9a"
         id="stop2-6" />
      <stop
         offset=".33333299"
         stop-color="#bdc2c7"
         id="stop4-7" />
      <stop
         offset="1"
         stop-color="#f6f6f6"
         id="stop6-5" />
    </linearGradient>
    <linearGradient
       id="d-3"
       gradientUnits="userSpaceOnUse"
       x1="32"
       x2="32"
       y1="6"
       y2="28"
       gradientTransform="matrix(0.30769228,0,0,0.30769228,-18.922785,11.15386)">
      <stop
         offset="0"
         stop-color="#68737e"
         id="stop21-5" />
      <stop
         offset="1"
         stop-color="#7a8692"
         id="stop23-6" />
    </linearGradient>
    <linearGradient
       id="c-2"
       gradientTransform="matrix(-0.30769228,0,0,0.30769228,-26.615092,11.15386)"
       gradientUnits="userSpaceOnUse"
       x1="-60"
       x2="-54"
       y1="22"
       y2="12">
      <stop
         offset="0"
         stop-color="#8e98a2"
         id="stop16-9" />
      <stop
         offset="1"
         stop-color="#6c7884"
         id="stop18-1" />
    </linearGradient>
    <linearGradient
       id="e-2"
       gradientTransform="matrix(-0.30769232,0,0,0.30769232,-26.615093,11.153857)"
       gradientUnits="userSpaceOnUse"
       x1="-55"
       x2="-55"
       y1="22"
       y2="12">
      <stop
         offset="0"
         stop-color="#232629"
         id="stop26-7" />
      <stop
         offset=".333"
         stop-color="#373d43"
         id="stop28-0" />
      <stop
         offset=".667"
         stop-color="#565f68"
         id="stop30-9" />
      <stop
         offset="1"
         stop-color="#474e55"
         id="stop32-3" />
    </linearGradient>
    <linearGradient
       id="b-6"
       gradientTransform="matrix(-0.30769232,0,0,0.30769232,-26.615093,11.153857)"
       gradientUnits="userSpaceOnUse"
       x1="-55"
       x2="-55"
       y1="12"
       y2="22">
      <stop
         offset="0"
         stop-color="#54b5e8"
         id="stop9-0" />
      <stop
         offset=".333"
         stop-color="#8fd9ff"
         id="stop11-6" />
      <stop
         offset="1"
         stop-color="#369acf"
         id="stop13-2" />
    </linearGradient>
    <linearGradient
       id="f-6"
       gradientUnits="userSpaceOnUse"
       x1="21.005859"
       x2="21"
       y1="21.005859"
       y2="58"
       gradientTransform="matrix(0.30769232,0,0,0.30769232,-18.922785,11.153857)">
      <stop
         offset="0"
         stop-color="#565f68"
         id="stop35-1" />
      <stop
         offset=".5945304"
         stop-color="#68737e"
         id="stop37-8" />
      <stop
         offset="1"
         stop-color="#424950"
         id="stop39-7" />
    </linearGradient>
  </defs>
  <g
     id="16-16-input-mouse-battery"
     transform="translate(-341,-297.36218)">
    <path
       id="path4196"
       transform="translate(319,457.36217)"
       d="m -8,82 a 4,4 0 0 0 -4,4 v 4 a 4,4 0 0 0 4,4 4,4 0 0 0 4,-4 v -4 a 4,4 0 0 0 -4,-4 z m 0,1 a 3,3 0 0 1 3,3 v 4 a 3,3 0 0 1 -3,3 3,3 0 0 1 -3,-3 v -4 a 3,3 0 0 1 3,-3 z m 0,1 -2,5 h 2 v 3 l 2,-5 h -2 z"
       style="fill:#d3dae3;fill-opacity:1;stroke:none"
       inkscape:connector-curvature="0" />
    <rect
       style="opacity:1;fill:none"
       id="rect4442"
       width="16"
       height="16"
       x="303"
       y="537.36218" />
  </g>
  <g
     id="22-22-input-keyboard-virtual-on"
     transform="translate(-22,42.00001)">
    <path
       id="path6-6"
       transform="translate(0,-1030.3622)"
       d="m 2,1038.3622 v 11 h 18 v -11 z m 1,1 h 7 1 8 v 1 H 3 Z m 0,2 h 16 v 7 H 15 7 3 Z m 1,1 v 1 h 2 v -1 z m 3,0 v 1 h 2 v -1 z m 3,0 v 1 h 2 v -1 z m 3,0 v 1 h 2 v -1 z m 3,0 v 1 h 2 v -1 z m -12,2 v 1 h 2 v -1 z m 3,0 v 1 h 2 v -1 z m 3,0 v 1 h 2 v -1 z m 3,0 v 1 h 2 v -1 z m 3,0 v 1 h 2 v -1 z m -12,2 v 1 h 2 v -1 z m 3,0 v 1 h 8 v -1 z m 9,0 v 1 h 2 v -1 z"
       style="fill:#d3dae3;fill-opacity:1;stroke:none"
       inkscape:connector-curvature="0" />
    <path
       id="path8"
       d="M 4.0119684,2.8976383 A 1.7442518,1.7442418 0 0 0 2.2677165,4.6418902 1.7442518,1.7442418 0 0 0 4.0119684,6.3861422 1.7442518,1.7442418 0 0 0 5.7562204,4.6418902 1.7442518,1.7442418 0 0 0 4.0119684,2.8976383 Z"
       style="fill:#088699;fill-opacity:1;stroke:none;stroke-width:0.697701"
       inkscape:connector-curvature="0" />
    <rect
       y="0"
       x="0"
       height="22"
       width="22"
       id="rect4140"
       style="fill:none;fill-opacity:1;stroke:none;stroke-linejoin:bevel" />
  </g>
  <g
     transform="matrix(1.4545455,0,0,1.4545455,0,32.00001)"
     id="input-keyboard-virtual-on">
    <rect
       style="fill:none;fill-rule:evenodd;stroke:none;stroke-width:1px;stroke-linecap:butt;stroke-linejoin:miter;stroke-opacity:1"
       id="rect4192"
       width="22"
       height="22"
       x="0"
       y="0" />
    <path
       transform="matrix(0.68749998,0,0,0.68749998,-15.124999,22.000003)"
       style="fill:#d3dae3;fill-opacity:1;stroke:none"
       d="M 25,-21 V -4 H 25.5 51 v -17 z m 1,1 h 24 v 2 H 26 Z m 0,3 H 50 V -5 H 26 Z m 1,2 v 2 h 1 v -2 z m 2,0 v 2 h 2 v -2 z m 3,0 v 2 h 2 v -2 z m 3,0 v 2 h 2 v -2 z m 3,0 v 2 h 2 v -2 z m 3,0 v 2 h 2 v -2 z m 3,0 v 2 h 2 v -2 z m 3,0 v 2 h 2 v -2 z m -20,3 v 2 h 3 v -2 z m 4,0 v 2 h 2 v -2 z m 3,0 v 2 h 2 v -2 z m 3,0 v 2 h 2 v -2 z m 3,0 v 2 h 2 v -2 z m 3,0 v 2 h 2 v -2 z m 3,0 v 2 h 3 v -2 z m -19,3 v 2 h 2 v -2 z m 3,0 v 2 h 2 v -2 z m 3,0 v 2 h 10 v -2 z m 11,0 v 2 h 2 v -2 z m 3,0 v 2 h 2 v -2 z"
       id="path4194"
       inkscape:connector-curvature="0" />
    <path
       id="path8-9"
       d="m 3.7812499,2.7500013 a 1.7187497,1.71874 0 0 0 -1.71875,1.7187499 1.7187497,1.71874 0 0 0 1.71875,1.71875 1.7187497,1.71874 0 0 0 1.71875,-1.71875 1.7187497,1.71874 0 0 0 -1.71875,-1.7187499 z"
       style="fill:#088699;fill-opacity:1;stroke:none"
       inkscape:connector-curvature="0" />
  </g>
  <g
     id="input-keyboard-virtual-off"
     transform="translate(0,64.00001)">
    <rect
       style="fill:none;fill-rule:evenodd;stroke:none;stroke-width:1.45455px;stroke-linecap:butt;stroke-linejoin:miter;stroke-opacity:1"
       id="rect4176"
       width="32"
       height="32"
       x="0"
       y="0" />
    <path
       style="fill:#d3dae3;fill-opacity:1;stroke:none"
       d="m 3.000001,11.000005 v 17 h 0.5 25.5 v -17 z m 1,1 h 24 v 2 h -24 z m 0,3 h 24 v 12 h -24 z m 1,2 v 2 h 1 v -2 z m 2,0 v 2 h 2 v -2 z m 3,0 v 2 h 2 v -2 z m 3,0 v 2 h 2 v -2 z m 3,0 v 2 h 2 v -2 z m 3,0 v 2 h 2 v -2 z m 3,0 v 2 h 2 v -2 z m 3,0 v 2 h 2 v -2 z m -20,3 v 2 h 3 v -2 z m 4,0 v 2 h 2 v -2 z m 3,0 v 2 h 2 v -2 z m 3,0 v 2 h 2 v -2 z m 3,0 v 2 h 2 v -2 z m 3,0 v 2 h 2 v -2 z m 3,0 v 2 h 3 v -2 z m -19,3 v 2 h 2 v -2 z m 3,0 v 2 h 2 v -2 z m 3,0 v 2 h 10 v -2 z m 11,0 v 2 h 2 v -2 z m 3,0 v 2 h 2 v -2 z"
       id="path4178"
       inkscape:connector-curvature="0" />
    <path
       id="path8-9-3"
       d="m 5.6103128,1.9999896 a 2.4999995,2.4999854 0 0 0 -2.5,2.4999998 2.4999995,2.4999854 0 0 0 2.5,2.4999999 2.4999995,2.4999854 0 0 0 2.5,-2.4999999 2.4999995,2.4999854 0 0 0 -2.5,-2.4999998 z"
       style="fill:#bf616a;fill-opacity:1;stroke:none;stroke-width:1.45455"
       inkscape:connector-curvature="0" />
  </g>
  <g
     id="input-mouse-battery"
     transform="translate(0,223.99998)">
    <rect
       style="fill:none"
       id="rect4378-6"
       width="32"
       height="32"
       x="0"
       y="0"
       ry="0" />
    <path
       d="m 15.523272,4.2305936 c 0,0 -0.37368,0.017672 -0.461528,0.023431 C 11.444329,4.491131 8.600198,7.24364 8.600198,10.923076 c 0,0 0.923074,3.384617 0.923074,5.076923 0,1.692311 -0.461528,3.377642 -0.461528,5.076925 0,3.835381 2.626148,6.692325 6.461528,6.692325 h 0.923077 c 3.835394,0 6.461543,-2.856944 6.461543,-6.692325 0,-1.699282 -0.461543,-3.384614 -0.461543,-5.076925 0,-1.692306 0.923082,-3.377637 0.923082,-5.076923 0,-3.679436 -2.847823,-6.3813605 -6.461539,-6.6690507 -0.101875,-0.00815 -0.461543,-0.023432 -0.461543,-0.023432 v 2.5386422 h -0.923077 z"
       fill="url(#a)"
       fill-rule="evenodd"
       id="path42"
       style="fill:url(#a);stroke-width:0.461549" />
    <path
       d="m 15.523272,4.0000056 c 0,0 -0.37368,0.017669 -0.461528,0.023428 -3.617415,0.2371068 -6.461546,3.2202044 -6.461546,6.8996394 0,0.09297 0.0064,0.185655 0.0092,0.278546 0.09329,-3.5941323 2.89584,-6.4835203 6.452537,-6.7166467 0.08783,-0.00583 0.461532,-0.023428 0.461532,-0.023428 h 0.92308 c 0,0 0.359666,0.015321 0.461536,0.023428 3.5533,0.2828783 6.359445,3.1247314 6.452515,6.7175477 0.0034,-0.09319 0.0093,-0.186175 0.0093,-0.279447 0,-3.6794349 -2.847817,-6.6119495 -6.461536,-6.8996393 -0.101877,-0.00815 -0.461539,-0.023429 -0.461539,-0.023429 z"
       fill="#c9cdd1"
       id="path44"
       style="stroke-width:0.461549" />
    <path
       d="m 15.523272,4.0000056 v 1.8461545 l -0.923073,0.9230754 v 4.6153855 l 0.461545,0.461539 v 1.846153 c 0,0.511385 0.411686,0.923076 0.923065,0.923076 0.51139,0 0.923083,-0.411691 0.923083,-0.923076 V 11.84616 L 17.36943,11.384621 V 6.7692355 L 16.446349,5.8461601 V 4.0000056 Z"
       fill="url(#d)"
       id="path46"
       style="fill:url(#d);stroke-width:0.461549" />
    <path
       d="M 8.6092,20.791194 C 8.6058,20.886464 8.6,20.981563 8.6,21.076926 c 0,3.835382 3.087686,6.923078 6.923066,6.923078 h 0.923124 c 3.835378,0 6.923065,-3.087696 6.923065,-6.923078 0,-0.09537 -0.0062,-0.190461 -0.0093,-0.285753 -0.0936,3.752634 -3.138076,6.747283 -6.914056,6.747283 H 15.52279 c -3.775994,0 -6.820466,-2.994649 -6.914067,-6.747283 z"
       fill="#7a8692"
       fill-rule="evenodd"
       id="path48"
       style="stroke-width:0.461549" />
    <path
       d="M 17.36943,6.7692355 V 11.384621 L 16.446349,10.461544 V 7.6923131 Z m -2.769231,0 0.923073,0.9230776 v 2.7692309 l -0.923073,0.923077 z"
       fill="url(#c)"
       id="path50"
       style="fill:url(#c);stroke-width:0.461549" />
    <rect
       fill="#2a2e32"
       height="1.3846154"
       rx="0.46153846"
       width="0.92307693"
       x="15.523266"
       y="12.307685"
       id="rect52"
       style="fill:#2a2e32;fill-opacity:1;fill-rule:evenodd;stroke-width:0.461538" />
    <path
       d="m 15.984805,6.7692231 c 0.172145,0 0.323888,0.029612 0.461538,0.070313 v 4.4747599 c -0.13765,0.0407 -0.289393,0.07031 -0.461538,0.07031 -0.172146,0 -0.323888,-0.02961 -0.461539,-0.07031 V 6.8395361 c 0.137651,-0.040701 0.289393,-0.070313 0.461539,-0.070313 z"
       fill="url(#e)"
       id="path54"
       style="fill:url(#e);fill-rule:evenodd;stroke-width:0.461538" />
    <path
       d="m 16.446343,6.8395357 c 0.271261,0.080208 0.461539,0.6831448 0.461539,0.8527643 v 2.769231 c 0,0.169619 -0.190278,0.772557 -0.461539,0.852764 z m -0.923077,0 V 11.314295 C 15.252005,11.234088 15.061728,10.63115 15.061728,10.461531 V 7.6923 c 0,-0.1696195 0.190277,-0.7725567 0.461538,-0.8527643 z"
       fill="url(#b)"
       id="path56"
       style="fill:url(#b);fill-rule:evenodd;stroke-width:0.461538" />
    <path
       d="m 8.600189,10.925773 c 4.62e-4,1.698363 0.461539,3.375835 0.461539,5.074219 0,1.698385 -0.461049,3.375857 -0.461539,5.074219 v 0.0027 c 0,3.643494 2.788313,6.606289 6.355168,6.894231 -2.799586,-0.282616 -4.970552,-2.633077 -4.970552,-5.509616 v -5.538457 c 0,-1.562058 -0.518363,-4.841363 -1.384616,-5.997296 z m 14.769231,0 c -0.86625,1.155933 -1.384615,4.435238 -1.384615,5.997296 v 5.538461 c 0,2.876539 -2.170966,5.227 -4.970553,5.509616 3.566856,-0.287942 6.355168,-3.250737 6.355168,-6.894231 v -0.0027 c -5.08e-4,-1.698343 -0.461538,-3.375815 -0.461538,-5.0742 0,-1.698384 0.461049,-3.375856 0.461538,-5.074219 z"
       fill="url(#f)"
       stroke-width="0.461536"
       id="path58"
       style="fill:url(#f);fill-rule:evenodd" />
  </g>
  <g
     id="22-22-input-mouse-battery"
     transform="translate(0,223.99998)">
    <rect
       style="fill:none"
       width="22"
       height="22"
       x="-22"
       y="10.000017"
       ry="0"
       id="rect8" />
    <path
       style="fill:#088699;fill-opacity:1;stroke:none"
       d="m -17,13.000034 -2,5 h 2 v 3 l 2,-5 h -2 z"
       id="path12"
       inkscape:connector-curvature="0" />
    <path
       d="m -9.384318,13.153735 c 0,0 -0.249119,0.01183 -0.307696,0.0156 -2.411603,0.158082 -4.307691,1.993083 -4.307691,4.446036 0,0 0.615388,2.256404 0.615388,3.384614 0,1.128213 -0.307698,2.251766 -0.307698,3.384616 0,2.556924 1.750776,4.461543 4.307697,4.461543 h 0.615381 c 2.556925,0 4.307698,-1.904619 4.307698,-4.461543 0,-1.13285 -0.307697,-2.256403 -0.307697,-3.384616 0,-1.12821 0.615388,-2.251753 0.615388,-3.384614 0,-2.452953 -1.898548,-4.254241 -4.307691,-4.446026 -0.06795,-0.0057 -0.307698,-0.01561 -0.307698,-0.01561 v 1.692436 h -0.615381 z"
       fill="url(#a)"
       fill-rule="evenodd"
       id="path42-9"
       style="fill:url(#a-3);stroke-width:0.307696" />
    <path
       d="m -9.384318,13.000014 c 0,0 -0.249119,0.01184 -0.307696,0.01565 -2.411603,0.158076 -4.307691,2.146816 -4.307691,4.59977 0,0.06195 0.0042,0.123765 0.0066,0.185688 0.06211,-2.396078 1.930562,-4.322334 4.301686,-4.477762 0.05851,-0.0038 0.307686,-0.01562 0.307686,-0.01562 h 0.615389 c 0,0 0.239782,0.01024 0.307694,0.01562 2.368862,0.188593 4.239625,2.08316 4.301683,4.478366 0.0026,-0.06205 0.0066,-0.124122 0.0066,-0.186291 0,-2.452955 -1.898544,-4.407964 -4.307694,-4.599765 -0.06792,-0.0057 -0.307683,-0.01564 -0.307683,-0.01564 z"
       fill="#c9cdd1"
       id="path44-2"
       style="stroke-width:0.307696" />
    <path
       d="m -9.384318,13.000014 v 1.23077 l -0.61539,0.615393 v 3.076916 l 0.307694,0.30769 v 1.230766 c 0,0.340932 0.274466,0.615386 0.615386,0.615386 0.34092,0 0.615389,-0.274454 0.615389,-0.615386 v -1.230766 l 0.307691,-0.30769 v -3.076916 l -0.615389,-0.615393 v -1.23077 z"
       fill="url(#d)"
       id="path46-0"
       style="fill:url(#d-3);stroke-width:0.307696" />
    <path
       d="M -13.9937,24.194135 C -13.9964,24.257665 -14,24.321051 -14,24.384622 c 0,2.556932 2.058468,4.615392 4.615395,4.615392 h 0.615372 c 2.556932,0 4.61539,-2.05846 4.61539,-4.615392 0,-0.06355 -0.0039,-0.126969 -0.0066,-0.190489 -0.0624,2.501754 -2.092049,4.498188 -4.609377,4.498188 h -0.615232 c -2.517323,0 -4.546974,-1.996434 -4.609375,-4.498188 z"
       fill="#7a8692"
       fill-rule="evenodd"
       id="path48-2"
       style="stroke-width:0.307696" />
    <path
       d="m -8.153548,14.846177 v 3.076916 l -0.615389,-0.615381 v -1.846166 z m -1.84616,0 0.61539,0.615369 v 1.846166 l -0.61539,0.615381 z"
       fill="url(#c)"
       id="path50-3"
       style="fill:url(#c-2);stroke-width:0.307696" />
    <rect
       fill="#2a2e32"
       height="0.92307699"
       rx="0.30769232"
       width="0.61538464"
       x="-9.3843231"
       y="18.538473"
       id="rect52-5"
       style="fill:#2a2e32;fill-opacity:1;fill-rule:evenodd;stroke-width:0.307692" />
    <path
       d="m -9.0766308,14.846165 c 0.1147637,0 0.2159253,0.01974 0.3076924,0.04687 v 2.983173 c -0.091767,0.02713 -0.1929287,0.04687 -0.3076924,0.04687 -0.1147637,0 -0.2159252,-0.01974 -0.3076923,-0.04687 V 14.89304 c 0.091767,-0.02713 0.1929286,-0.04687 0.3076923,-0.04687 z"
       fill="url(#e)"
       id="path54-9"
       style="fill:url(#e-2);fill-rule:evenodd;stroke-width:0.307692" />
    <path
       d="m -8.7689384,14.89304 c 0.1808406,0.05347 0.3076923,0.45543 0.3076923,0.568509 v 1.846154 c 0,0.11308 -0.1268517,0.515038 -0.3076923,0.56851 z m -0.6153847,0 v 2.983173 c -0.1808406,-0.05347 -0.3076923,-0.45543 -0.3076923,-0.56851 v -1.846154 c 0,-0.113079 0.1268517,-0.515037 0.3076923,-0.568509 z"
       fill="url(#b)"
       id="path56-2"
       style="fill:url(#b-6);fill-rule:evenodd;stroke-width:0.307692" />
    <path
       d="m -13.999708,17.617198 c 3.08e-4,1.132242 0.307692,2.250557 0.307692,3.382813 0,1.132257 -0.307366,2.250571 -0.307692,3.382813 v 0.0018 c 0,2.428996 1.858875,4.404192 4.2367791,4.596154 -1.8663911,-0.188411 -3.3137021,-1.755385 -3.3137021,-3.673077 v -3.692308 c 0,-1.041372 -0.345575,-3.227576 -0.923077,-3.998198 z m 9.8461544,0 c -0.5775001,0.770622 -0.923077,2.956826 -0.923077,3.998198 v 3.692308 c 0,1.917692 -1.4473108,3.484666 -3.313702,3.673077 2.3779041,-0.191962 4.236779,-2.167158 4.236779,-4.596154 v -0.0018 c -3.385e-4,-1.132229 -0.3076924,-2.250543 -0.3076924,-3.3828 0,-1.132256 0.3073662,-2.250571 0.3076924,-3.382813 z"
       fill="url(#f)"
       stroke-width="0.307691"
       id="path58-2"
       style="fill:url(#f-6);fill-rule:evenodd" />
  </g>
  <g
     id="input-keyboard">
    <rect
       style="fill:none;fill-rule:evenodd;stroke:none;stroke-width:1.45455px;stroke-linecap:butt;stroke-linejoin:miter;stroke-opacity:1"
       id="rect4196"
       width="32"
       height="32"
       x="0"
       y="4.6325684e-07" />
    <path
       style="fill:#088699;fill-opacity:1;stroke-width:1.89672"
       class="ColorScheme-Text"
       fill-rule="evenodd"
       d="m 7.000003,14 v 2 h 1.998668 v -2 z m 3.997329,0 v 2 h 1.998673 v -2 z m 3.997345,0 v 2 h 1.998673 v -2 z m 3.997329,0 v 2 h 1.998672 v -2 z m 3.997345,0 v 2 h 1.998656 V 14 Z M 8.994673,18 9,19.999958 h 2 L 10.9974,18 Z m 4.001332,0 0.004,1.999958 h 2 L 14.994677,18 Z M 16.99335,18 17,19.999958 h 2 L 18.992006,18 Z M 20.990678,18 21,19.999958 h 2 L 22.989351,18 Z M 7,23.999958 v -2 h 2 v 2 z m 4,0 v -2 h 10 v 2 z m 12,0 v -2 h 2 v 2 z"
       font-family="sans-serif"
       font-weight="400"
       overflow="visible"
       id="path60-5"
       sodipodi:nodetypes="cccccccccccccccccccccccccccccccccccccccccccccccccccccccccccc" />
    <path
       d="M 28,25.265311 V 11.734712 C 28,10.78063 27.1,10 26.000001,10 H 6.000003 C 4.9,10 4,10.78063 4,11.734712 v 13.530599 c 0,0.954082 0.9,1.73469 2.000003,1.73469 H 26.000001 C 27.1,27.000001 28,26.219393 28,25.265311 Z M 6.000003,25.99999 c -0.549995,0 -0.999995,-0.357976 -0.999995,-0.835 v -13.23 c 0,-0.477061 0.45,-0.935 0.999995,-0.935 H 26.000001 C 26.55,10.99999 27,11.357929 27,11.83499 v 13.33 c 0,0.477024 -0.45,0.835 -0.999999,0.835 z"
       id="path2-36"
       style="fill:#d3dae3;fill-opacity:1;stroke-width:0.465657"
       sodipodi:nodetypes="ssssssssssssssssss" />
    <path
       id="Keyboard-s"
       class="st1"
       d="m 19.5,6.25001 v -1.25 H 21 v 1.25 c 0,1.2375 -1.0125,2.25 -2.25,2.25 h -1.5 c -0.4125,0 -0.75,0.3375 -0.75,0.75 v 0.75 H 15 v -0.75 c 0,-1.2375 1.0125,-2.25 2.25,-2.25 h 1.5 c 0.4125,0 0.75,-0.3375 0.75,-0.75 z"
       style="clip-rule:evenodd;fill:#d3dae3;fill-opacity:1;fill-rule:evenodd;stroke-width:0.375"
       sodipodi:nodetypes="sccccccccsccs" />
  </g>
  <g
     id="22-22-input-keyboard"
     transform="translate(-22,10.00001)">
    <path
       style="fill:#088699;fill-opacity:1;stroke-width:1.26448"
       class="ColorScheme-Text"
       fill-rule="evenodd"
       d="m 5,10 v 1.999947 H 7 V 10 Z m 3,0 v 1.999947 h 2 V 10 Z m 3,0 v 1.999947 h 2 V 10 Z m 6,0 v 1.999947 h -2 v -2 z M 5,14.999947 v 0 h 2 v 0 z m 3,0 v 0 0 h 6 z m 7,0 v 0 h 2 v 0 z m -10,-1 v 2 h 2 v -2 z m 3,0 v 2 h 6 v -2 z m 7,0 v 2 h 2 v -2 z"
       font-family="sans-serif"
       font-weight="400"
       overflow="visible"
       id="path60-5-7"
       sodipodi:nodetypes="cccccccccccccccccccccccccccccccccccccccccccccccccc" />
    <path
       d="M 20,17.775513 V 8.2245026 C 20,7.5510323 19.325,7 18.500007,7 H 3.500001 C 2.675,7 2,7.5510323 2,8.2245026 V 17.775513 C 2,18.44898 2.675,19 3.500001,19 H 18.500007 C 19.325,19 20,18.44898 20,17.775513 Z M 3.724626,18 C 3.125,18 3.125,17.411722 3.125,17.075 V 8.925 C 3.125,8.5882503 3.0125,7.9995106 3.724626,8 L 18.27538,8.01 C 18.9875,8.0104894 18.875,8.5882503 18.875,8.925 v 8.15 c 0,0.336722 0,0.925 -0.59962,0.925 z"
       id="path2"
       style="fill:#d3dae3;fill-opacity:1;stroke-width:0.338818"
       sodipodi:nodetypes="ssssssssssssssssss" />
    <rect
       y="0"
       x="0"
       height="22"
       width="22"
       id="rect4147"
       style="fill:none;fill-rule:evenodd;stroke:none;stroke-width:1px;stroke-linecap:butt;stroke-linejoin:miter;stroke-opacity:1" />
    <path
       id="Keyboard-s-3"
       class="st1"
       d="m 14.75,3.999947 v -1 H 16 v 1 c 0,0.99 -0.84375,1.8 -1.875,1.8 h -1.25 c -0.34375,0 -0.625,0.27 -0.625,0.6 v 0.6 H 11 v -0.6 c 0,-0.99 0.84375,-1.8 1.875,-1.8 h 1.25 c 0.34375,0 0.625,-0.27 0.625,-0.6 z"
       style="clip-rule:evenodd;fill:#d3dae3;fill-opacity:1;fill-rule:evenodd;stroke-width:0.306186"
       sodipodi:nodetypes="sccccccccsccs" />
  </g>
  <g
     id="22-22-input-num-on"
     transform="translate(-22,202)">
    <rect
       style="opacity:0.00100002;fill-opacity:1;stroke:none;stroke-width:0.49066;stroke-linecap:round;stroke-linejoin:round;stroke-miterlimit:4;stroke-dasharray:none;stroke-opacity:1"
       id="rect972"
       width="22"
       height="22"
       x="0"
       y="0" />
    <path
       inkscape:connector-curvature="0"
       id="path896-7-7-5-1"
       d="m 4,4.33332 v 9.94864 c 0,1.38463 0.7000002,2.0513 1.4000004,2.36116 L 11,19 16.6,16.7036 C 17.3,16.33326 18,15.66659 18,14.28878 v -9.95546 0 C 18,3.66666 17.3,3 16.6,3 l -11.2051596,9e-5 C 4.7000002,3 4,3.66666 4,4.33332 Z M 5,5.002 C 5,4.000002 5.5397795,4.000002 6.073,4 h 9.873 c 0.58072,2e-6 1.054,2e-6 1.054,0.974 v 8.02594 C 17,14.000002 16.519258,14.000002 15.876867,14 H 6.0879936 C 5.5341922,14.000002 5,14.000002 5,12.99994 Z m 6,0.66474 V 7.00007 H 9.5999996 V 7.66673 H 11 v 3.99998 H 9.5999996 v 0.66666 H 13.1 V 11.66671 H 11.7 V 5.66674 Z M 5,15.00002 H 17 C 17,15.66659 16.6,16 15.899999,16 H 6.0999996 C 5.4000004,16 5,15.66659 5,15.00002 Z"
       style="fill:#d3dae3;fill-opacity:1;stroke:none;stroke-width:0.683128"
       sodipodi:nodetypes="cccccccccccccccccccccccccccccccccccccc" />
  </g>
  <g
     id="22-22-input-keyboard-brightness"
     transform="translate(-22,106.00001)">
    <rect
       ry="0"
       y="0"
       x="0"
       height="22"
       width="22"
       style="fill:none"
       id="rect20" />
    <path
       inkscape:connector-curvature="0"
       id="path880-8-6-6-9"
       d="m 4,4.333325 v 10.6666 c 0,0.666663 0.7000004,1.333326 1.3999998,1.666757 L 11,19.000001 16.6,16.617249 c 0.700001,-0.283998 1.4,-0.950661 1.4,-1.69683 v -10.587094 0 C 18,3.666663 17.300001,3 16.6,3 L 5.3904941,3.0001 C 4.7000004,3 4,3.666663 4,4.333325 Z M 5,5 C 5,4 5.4650539,4 6.089,4.000122 l 9.75,-2.44e-4 C 16.53418,3.999785 17,4 17,5 v 0 7.999938 C 17,14 16.521049,14 15.840327,14 H 6.1000002 C 5.4829304,14 5,14 5,12.999938 Z M 10.584374,5.66675 7.5,12.333375 h 0.9105456 l 0.9255888,-1.999989 h 3.3058596 l 0.944726,1.999989 H 14.5 L 11.35,5.66675 Z m 0.386913,1.1302 1.356247,2.869776 H 9.6437498 Z M 5,15.000025 H 17 C 17,15.666588 16.6,16 15.9,16 H 6.1000002 C 5.3999998,16 5,15.666588 5,15.000025 Z"
       style="fill:#d3dae3;fill-opacity:1;stroke:none;stroke-width:0.683128"
       sodipodi:nodetypes="ccccccccccccccccccccccccccccccccccccccc" />
    <path
       style="fill:#d3dae3;fill-opacity:1;stroke:none;stroke-width:0.399998"
       d="m 13.91836,4.312065 c -0.1108,0 -0.199999,0.0892 -0.199999,0.199999 v 0.399998 c 0,0.110799 0.0892,0.199998 0.199999,0.199998 0.110799,0 0.199998,-0.0892 0.199998,-0.199998 V 4.512064 c 0,-0.110799 -0.0892,-0.199999 -0.199998,-0.199999 z m -1.272646,0.527337 c -0.05113,0 -0.102233,0.0194 -0.141412,0.0586 -0.07835,0.07835 -0.07835,0.204465 0,0.282811 l 0.282811,0.282812 c 0.07835,0.07835 0.204466,0.07835 0.282818,0 0.07834,-0.07835 0.07834,-0.204472 0,-0.282812 L 12.787113,4.898002 c -0.03913,-0.03913 -0.09028,-0.0586 -0.141399,-0.0586 z m 2.545291,0 c -0.05113,0 -0.102226,0.0194 -0.141406,0.0586 l -0.282811,0.282811 c -0.07834,0.07834 -0.07834,0.204466 0,0.282812 0.07835,0.07835 0.204472,0.07835 0.282811,0 l 0.282819,-0.282812 c 0.07834,-0.07835 0.07834,-0.204465 0,-0.282811 -0.03913,-0.03913 -0.09029,-0.0586 -0.141413,-0.0586 z M 13.91836,5.512058 c -0.441824,0 -0.799995,0.358171 -0.799995,0.799995 0,0.441824 0.358171,0.799995 0.799995,0.799995 0.441824,0 0.799995,-0.358171 0.799995,-0.799995 0,-0.441824 -0.358171,-0.799995 -0.799995,-0.799995 z m 0,0.399998 v 0.799995 c -0.220912,0 -0.399998,-0.179086 -0.399998,-0.399998 0,-0.220912 0.179086,-0.399997 0.399998,-0.399997 z m -1.799989,0.199998 c -0.1108,0 -0.199999,0.0892 -0.199999,0.199999 0,0.1108 0.0892,0.199999 0.199999,0.199999 h 0.399997 c 0.1108,0 0.199999,-0.0892 0.199999,-0.199999 0,-0.110799 -0.0892,-0.199999 -0.199999,-0.199999 z m 3.19998,0 c -0.110799,0 -0.199999,0.0892 -0.199999,0.199999 0,0.1108 0.0892,0.199999 0.199999,0.199999 h 0.399998 c 0.110799,0 0.199998,-0.0892 0.199998,-0.199999 0,-0.110799 -0.0892,-0.199999 -0.199998,-0.199999 z m -2.389832,0.989834 c -0.05113,0 -0.102226,0.0194 -0.141406,0.0586 l -0.282811,0.282818 c -0.07835,0.07834 -0.07835,0.204459 0,0.282812 0.07835,0.07835 0.204472,0.07835 0.282811,0 l 0.282818,-0.282812 c 0.07834,-0.07835 0.07834,-0.204465 0,-0.282818 -0.03913,-0.03913 -0.09029,-0.0586 -0.141412,-0.0586 z m 1.979681,0 c -0.05113,0 -0.102232,0.0194 -0.141412,0.0586 -0.07834,0.07835 -0.07834,0.204472 0,0.282818 l 0.282811,0.282812 c 0.07835,0.07835 0.204466,0.07835 0.282819,0 0.07834,-0.07835 0.07834,-0.204472 0,-0.282812 L 15.049599,7.160488 c -0.03913,-0.03913 -0.09028,-0.0586 -0.141399,-0.0586 z m -0.98984,0.410158 c -0.1108,0 -0.199999,0.0892 -0.199999,0.199999 v 0.399997 c 0,0.1108 0.0892,0.199999 0.199999,0.199999 0.110799,0 0.199998,-0.0892 0.199998,-0.199999 V 7.712045 c 0,-0.1108 -0.0892,-0.199999 -0.199998,-0.199999 z"
       id="path4274-9-2-3-1"
       inkscape:connector-curvature="0" />
  </g>
  <g
     id="input-caps-on"
     transform="translate(0,160.00002)"
     style="fill:#d3dae3;fill-opacity:1">
    <rect
       y="7.3486326e-08"
       x="0"
       height="32"
       width="32"
       id="rect978"
       style="opacity:0.00100002;fill:#d3dae3;fill-opacity:1;stroke:none;stroke-width:0.713687;stroke-linecap:round;stroke-linejoin:round;stroke-miterlimit:4;stroke-dasharray:none;stroke-opacity:1" />
    <path
       inkscape:connector-curvature="0"
       id="path880-8-6"
       d="m 6,6 v 16 c 0,1 1,2 2,2.50015 l 8.000002,3.5 8,-3.57415 c 1,-0.426 2,-1.426 2,-2.54526 V 6 6 c 0,-1 -1,-2 -2,-2 L 7.986416,4.00015 C 7,4 6,5 6,6 Z M 7,6.44561 C 7,5.41727 7.401856,5 8.555658,5 l 14.928054,1.4e-4 c 0.99312,-1.4e-4 1.51629,0.46569 1.51629,1.47602 v 0 V 19 c 0,2 0,2 -2.08525,2.00013 L 9,21 C 7,21 7,21 7,19 Z m 8.406252,1.55454 -4.40625,10 h 1.30078 l 1.32227,-3 h 4.72265 l 1.34961,3 h 1.30469 l -4.5,-10 z m 0.55273,1.69531 1.9375,4.30469 h -3.83398 z M 7,22.00015 h 18.000002 c 0,0.99985 -1,0.99985 -2,0.99985 H 9 C 8,23 7,23 7,22.00015 Z"
       style="fill:#d3dae3;fill-opacity:1;stroke:none"
       sodipodi:nodetypes="ccccccccccccccccccccccccccccccccccccccc" />
  </g>
  <g
     id="input-keyboard-brightness"
     transform="translate(0,128.00001)">
    <rect
       ry="0"
       y="-31.999996"
       x="0"
       height="32"
       width="32"
       id="rect4266"
       style="fill:none" />
    <path
       inkscape:connector-curvature="0"
       id="path880-8-6-6"
       d="m 6,-25.999996 v 15.9999962 c 0,1 1,2 2,2.50015 l 8,3.5 8,-3.57415 c 1,-0.426 2,-1.426 2,-2.5452602 v -15.880736 0 c 0,-1 -1,-2 -2,-2 l -16.01358,1.5e-4 C 7,-27.999996 6,-26.999996 6,-25.999996 Z m 1,0.44561 c 0,-1.02834 0.40186,-1.44561 1.55566,-1.44561 l 14.92805,1.4e-4 c 0.99312,-1.4e-4 1.51629,0.46569 1.51629,1.47602 v 0 V -13 c 0,2 0,2 -2.08525,2.00013 L 9,-11 c -2,0 -2,0 -2,-2 z m 8.40625,1.55454 L 11,-13.99985 h 1.30078 l 1.32227,-3 h 4.72265 l 1.34961,3 H 21 l -4.5,-9.999996 z m 0.55273,1.695311 1.9375,4.304689 H 14.0625 Z M 7,-9.9998498 h 18 c 0,0.99985 -1,0.99985 -2,0.99985 H 9 c -1,0 -2,0 -2,-0.99985 z"
       style="fill:#d3dae3;fill-opacity:1;stroke:none"
       sodipodi:nodetypes="ccccccccccccccccccccccccccccccccccccccc" />
    <path
       style="fill:#d3dae3;fill-opacity:1;stroke:none;stroke-width:0.6"
       d="m 20.87763,-26.031886 c -0.1662,0 -0.3,0.1338 -0.3,0.3 v 0.6 c 0,0.1662 0.1338,0.3 0.3,0.3 0.1662,0 0.3,-0.1338 0.3,-0.3 v -0.6 c 0,-0.1662 -0.1338,-0.3 -0.3,-0.3 z m -1.90898,0.79101 c -0.0767,0 -0.15335,0.0291 -0.21212,0.0879 -0.11752,0.11752 -0.11752,0.3067 0,0.42422 l 0.42422,0.42422 c 0.11752,0.11752 0.3067,0.11752 0.42423,0 0.11751,-0.11752 0.11751,-0.30671 0,-0.42422 l -0.42423,-0.42422 c -0.0587,-0.0587 -0.13542,-0.0879 -0.2121,-0.0879 z m 3.81796,0 c -0.0767,0 -0.15334,0.0291 -0.21211,0.0879 l -0.42422,0.42422 c -0.11751,0.11751 -0.11751,0.3067 0,0.42422 0.11753,0.11752 0.30671,0.11752 0.42422,0 l 0.42423,-0.42422 c 0.11751,-0.11752 0.11751,-0.3067 0,-0.42422 -0.0587,-0.0587 -0.13543,-0.0879 -0.21212,-0.0879 z m -1.90898,1.00899 c -0.66274,0 -1.2,0.53726 -1.2,1.200001 0,0.66274 0.53726,1.199999 1.2,1.199999 0.66274,0 1.2,-0.537259 1.2,-1.199999 0,-0.662741 -0.53726,-1.200001 -1.2,-1.200001 z m 0,0.6 v 1.200001 c -0.33137,0 -0.6,-0.26863 -0.6,-0.6 0,-0.33137 0.26863,-0.600001 0.6,-0.600001 z m -2.7,0.300001 c -0.1662,0 -0.3,0.1338 -0.3,0.3 0,0.1662 0.1338,0.3 0.3,0.3 h 0.6 c 0.1662,0 0.3,-0.1338 0.3,-0.3 0,-0.1662 -0.1338,-0.3 -0.3,-0.3 z m 4.8,0 c -0.1662,0 -0.3,0.1338 -0.3,0.3 0,0.1662 0.1338,0.3 0.3,0.3 h 0.6 c 0.1662,0 0.3,-0.1338 0.3,-0.3 0,-0.1662 -0.1338,-0.3 -0.3,-0.3 z m -3.58477,1.484759 c -0.0767,0 -0.15334,0.0291 -0.21211,0.0879 l -0.42422,0.42423 c -0.11752,0.11751 -0.11752,0.30669 0,0.42422 0.11753,0.11752 0.30671,0.11752 0.42422,0 l 0.42423,-0.42422 c 0.11751,-0.11752 0.11751,-0.3067 0,-0.42423 -0.0587,-0.0587 -0.13543,-0.0879 -0.21212,-0.0879 z m 2.96954,0 c -0.0767,0 -0.15335,0.0291 -0.21212,0.0879 -0.11751,0.11753 -0.11751,0.30671 0,0.42423 l 0.42422,0.42422 c 0.11752,0.11752 0.3067,0.11752 0.42423,0 0.11751,-0.11753 0.11751,-0.30671 0,-0.42422 l -0.42423,-0.42423 c -0.0587,-0.0587 -0.13542,-0.0879 -0.2121,-0.0879 z m -1.48477,0.61524 c -0.1662,0 -0.3,0.1338 -0.3,0.3 v 0.6 c 0,0.1662 0.1338,0.3 0.3,0.3 0.1662,0 0.3,-0.1338 0.3,-0.3 v -0.6 c 0,-0.1662 -0.1338,-0.3 -0.3,-0.3 z"
       id="path4274-9-2-3"
       inkscape:connector-curvature="0" />
  </g>
  <g
     id="input-keyboard-battery"
     transform="translate(0,128.00001)">
    <rect
       style="fill:none"
       id="rect4378"
       width="32"
       height="32"
       x="0"
       y="-1.8530272e-07"
       ry="0" />
    <path
       inkscape:connector-curvature="0"
       id="path880-8-6-5"
       d="m 6,6 v 16 c 0,1 1,2 2,2.50015 l 8,3.5 8,-3.57415 C 25,24 26,23 26,21.88074 V 6 6 C 26,5 25,4 24,4 L 7.98642,4.00015 C 7,4 6,5 6,6 Z M 7,6.44561 C 7,5.41727 7.40186,5 8.55566,5 l 14.92805,1.4e-4 C 24.47683,5 25,5.46583 25,6.47616 v 0 V 19 c 0,2 0,2 -2.08525,2.00013 L 9,21 C 7,21 7,21 7,19 Z m 8.40625,1.55454 -4.40625,10 h 1.30078 l 1.32227,-3 h 4.72265 l 1.34961,3 H 21 l -4.5,-10 z m 0.55273,1.69531 1.9375,4.30469 H 14.0625 Z M 7,22.00015 H 25 C 25,23 24,23 23,23 H 9 C 8,23 7,23 7,22.00015 Z"
       style="fill:#d3dae3;fill-opacity:1;stroke:none"
       sodipodi:nodetypes="ccccccccccccccccccccccccccccccccccccccc" />
    <path
       style="fill:#bf616a;fill-opacity:1;stroke:none"
       d="m 20.92789,5.53992 -2,5 h 2 v 3 l 2,-5 h -2 z"
       id="path12-2-5"
       inkscape:connector-curvature="0" />
  </g>
  <g
     id="22-22-input-keyboard-battery"
     transform="translate(-22,106.00001)">
    <rect
       style="fill:none"
       width="22"
       height="22"
       x="0"
       y="32"
       ry="0"
       id="rect15" />
    <path
       inkscape:connector-curvature="0"
       id="path880-8-6-5-7"
       d="m 4,36.333325 v 10.6666 c 0,0.666663 0.7000005,1.333325 1.4,1.666756 L 11,51 16.6,48.617248 C 17.300001,48.33325 18,47.666588 18,46.920419 v -10.587094 0 C 18,35.666663 17.300001,35 16.6,35 l -11.2095057,1e-4 C 4.7000005,35 4,35.666663 4,36.333325 Z M 5,36.93 C 5,35.999999 5.5647864,35.999999 6.089,36 h 9.85 c 0.549903,-10e-7 1.061,-10e-7 1.061,0.93 v 0 8.069937 C 17,45.999999 16.414469,45.999999 15.840327,46 H 6.1000005 C 5.5020072,45.999999 5,45.999999 5,44.999937 Z m 5.584374,0.73675 -3.0843735,6.666625 h 0.9105457 l 0.9255896,-1.999988 h 3.3058512 l 0.944733,1.999988 h 0.913281 L 11.35,37.66675 Z m 0.386913,1.1302 1.356247,2.869775 H 9.6437496 Z M 5,47.000025 H 17 C 17,47.666588 16.6,48 15.900001,48 H 6.1000005 C 5.4,48 5,47.666588 5,47.000025 Z"
       style="fill:#d3dae3;fill-opacity:1;stroke:none;stroke-width:0.683128"
       sodipodi:nodetypes="ccccccccccccccccccccccccccccccccccccccc" />
    <path
       style="fill:#bf616a;fill-opacity:1;stroke:none;stroke-width:0.666663"
       d="m 13.951864,36.026607 -1.333325,3.333312 h 1.333325 v 1.999988 l 1.333325,-3.333313 h -1.333325 z"
       id="path12-2-5-0"
       inkscape:connector-curvature="0" />
  </g>
  <g
     id="22-22-input-caps-on">
    <rect
       style="fill:none"
       width="22"
       height="22"
       x="-22"
       y="170"
       ry="0"
       id="rect15-6" />
    <path
       inkscape:connector-curvature="0"
       id="path880-8-6-5-7-7"
       d="m -18,174.33332 v 10.66661 c 0,0.66666 0.700001,1.33332 1.4,1.66675 L -11,189 l 5.6,-2.38275 c 0.7000005,-0.284 1.4,-0.95066 1.4,-1.69683 v -10.5871 0 C -4,173.66666 -4.6999995,173 -5.4,173 l -11.209507,1e-4 C -17.299999,173 -18,173.66666 -18,174.33332 Z m 1,0.69668 c 0,-1.02999 0.472354,-1.02999 1.089,-1.03 h 9.85 c 0.6013983,1e-5 1.061,1e-5 1.061,1.051 v 0 7.94894 c 0,1.00007 -0.5865547,1.00007 -1.1596742,1.00006 h -9.7403248 c -0.593996,1e-5 -1.100001,1e-5 -1.100001,-1.00006 z m 5.584374,0.63675 -3.084373,6.66662 h 0.910546 l 0.925587,-1.99998 h 3.3058558 l 0.9447279,1.99998 h 0.9132828 L -10.65,175.66675 Z m 0.386913,1.1302 1.3562492,2.86978 H -12.356253 Z M -17,185.00002 H -5 C -5,185.66659 -5.4,186 -6.0999995,186 H -15.899999 C -16.6,186 -17,185.66659 -17,185.00002 Z"
       style="fill:#d3dae3;fill-opacity:1;stroke:none;stroke-width:0.683128"
       sodipodi:nodetypes="ccccccccccccccccccccccccccccccccccccccc" />
  </g>
  <g
     id="input-num-on"
     style="fill:#d3dae3;fill-opacity:1"
     transform="translate(-22,202)">
    <rect
       style="opacity:0.00100002;fill:#d3dae3;fill-opacity:1;stroke:none;stroke-width:0.713687;stroke-linecap:round;stroke-linejoin:round;stroke-miterlimit:4;stroke-dasharray:none;stroke-opacity:1"
       id="rect984"
       width="32"
       height="32"
       x="22"
       y="-9.9999981" />
    <path
       inkscape:connector-curvature="0"
       id="path896-7-7-5"
       d="M 28,-3.9 V 11.02304 C 28,13.1 29,14.1 30,14.5648 l 8,3.53534 8,-3.44462 C 47,14.1 48,13.1 48,11.03328 V -3.9 v 0 c 0,-1 -1,-2 -2,-2 l -16.00737,1.4e-4 C 29,-5.9 28,-4.9 28,-3.9 Z m 1,0.40366 C 29,-4.50643 29.382463,-4.9 30.390655,-4.9 l 15.104322,1.3e-4 C 46.520903,-4.9 47,-4.53898 47,-3.38916 V 9.1 c 0,2 0,2 -2.03305,2.00014 H 30.982849 C 29,11.1 29,11.1 29,9.1 Z m 9,1.59648 v 2 h -2 v 1 h 2 v 6 h -2 v 1 h 5 v -1 h -2 v -9 z m -9,14 H 47 C 47,13.1 46,13.1 45,13.1 H 31 c -1,0 -2,0 -2,-0.99986 z"
       style="fill:#d3dae3;fill-opacity:1;stroke:none"
       sodipodi:nodetypes="cccccccccccccccccccccccccccccccccccccc" />
  </g>
  <g
     id="22-22-input-keyboard-virtual-off"
     transform="translate(-22,74.00001)">
    <path
       style="fill:#d3dae3;fill-opacity:1;stroke:none"
       d="M 2,8 V 19 H 20 V 8 Z m 1,1 h 7 1 8 v 1 H 3 Z m 0,2 h 16 v 7 H 15 7 3 Z m 1,1 v 1 h 2 v -1 z m 3,0 v 1 h 2 v -1 z m 3,0 v 1 h 2 v -1 z m 3,0 v 1 h 2 v -1 z m 3,0 v 1 h 2 V 12 Z M 4,14 v 1 h 2 v -1 z m 3,0 v 1 h 2 v -1 z m 3,0 v 1 h 2 v -1 z m 3,0 v 1 h 2 v -1 z m 3,0 v 1 h 2 V 14 Z M 4,16 v 1 h 2 v -1 z m 3,0 v 1 h 8 v -1 z m 9,0 v 1 h 2 v -1 z"
       id="path4170"
       inkscape:connector-curvature="0" />
    <rect
       style="fill:none;fill-opacity:1;stroke:none;stroke-linejoin:bevel"
       id="rect4172"
       width="22"
       height="22"
       x="0"
       y="0" />
    <path
       id="path8-9-3-6"
       d="m 4.0119695,3.023622 a 1.7442517,1.7442418 0 0 0 -1.744253,1.7442519 1.7442517,1.7442418 0 0 0 1.744253,1.7442519 1.7442517,1.7442418 0 0 0 1.74425,-1.7442519 1.7442517,1.7442418 0 0 0 -1.74425,-1.7442519 z"
       style="fill:#bf616a;fill-opacity:1;stroke:none;stroke-width:1.01484"
       inkscape:connector-curvature="0" />
  </g>
</svg>
