<?xml version="1.0" encoding="UTF-8" standalone="no"?>
<svg
   width="32"
   height="32"
   version="1.1"
   id="svg12"
   sodipodi:docname="kgpg.svg"
   inkscape:version="1.2.1 (9c6d41e410, 2022-07-14)"
   xmlns:inkscape="http://www.inkscape.org/namespaces/inkscape"
   xmlns:sodipodi="http://sodipodi.sourceforge.net/DTD/sodipodi-0.dtd"
   xmlns="http://www.w3.org/2000/svg"
   xmlns:svg="http://www.w3.org/2000/svg"
   xmlns:rdf="http://www.w3.org/1999/02/22-rdf-syntax-ns#"
   xmlns:cc="http://creativecommons.org/ns#"
   xmlns:dc="http://purl.org/dc/elements/1.1/">
  <g
     id="22-22-kgpg"
     style="fill:#d6dbf1;fill-opacity:1"
     transform="translate(32,10.000001)">
    <rect
       style="opacity:0.00100002;fill:#d6dbf1;fill-opacity:1"
       width="22"
       height="22"
       x="0"
       y="0"
       id="rect2" />
    <path
       d="M 11,3 C 8.3027449,3 6.0000009,4.914299 6,7.267282 l -1e-6,2.732717 L 4.7761488,10 C 4.348182,10 4,10.249763 4,10.623106 v 7.699811 C 4,18.696259 4.348182,19 4.7761488,19 H 17.22385 C 17.651818,19 18,18.696259 18,18.322917 V 10.623106 C 18,10.249763 17.651818,10 17.22385,10 L 15.999999,9.999999 16,7.267282 C 16.000001,4.914299 13.697253,3 11,3 Z M 7,7.468 C 7.0000008,5.382299 8.6091339,4 11,4 c 2.390869,0 4.000001,1.381299 4,3.467 l -10e-7,2.532999 -8,3.59e-4 z m 9.999999,3.531999 v 7 0 h -12 v 0 -7 c 0,0 -0.1124698,0.04617 0,0 h 1 10 z"
       id="path2-36"
       style="fill:#d6dbf1;fill-opacity:1;stroke-width:0.259554"
       sodipodi:nodetypes="sscsssssssscsssssccsccccccsccc" />
    <path
       d="M 10.999996,12 C 10.007552,12 9.2,12.800495 9.2,13.784551 c 0,0.550692 0.2545537,1.063206 0.6880605,1.400586 v 1.527451 C 9.8880605,16.87145 10.017745,17 10.178006,17 h 1.643703 c 0.160261,0 0.289944,-0.12855 0.289944,-0.287412 V 15.185414 C 12.545444,14.847757 12.8,14.334959 12.8,13.784551 12.8,12.800495 11.992449,12 10.999996,12 Z m 0.663428,2.797239 c -0.08214,0.05305 -0.131662,0.143706 -0.131662,0.24082 v 1.387108 h -1.063803 v -1.387384 c 0,-0.09709 -0.04954,-0.187779 -0.13167,-0.240827 -0.3485586,-0.22482 -0.5563906,-0.603173 -0.5563906,-1.012405 0,-0.667169 0.5473336,-1.209719 1.2200976,-1.209719 0.672772,0 1.220105,0.54255 1.220105,1.209719 0,0.408949 -0.208117,0.787585 -0.556677,1.012688 z"
       id="path4-7"
       style="fill:#d6dbf1;fill-opacity:1;stroke-width:0.288677" />
  </g>
  <metadata
     id="metadata18">
    <rdf:RDF>
      <cc:Work
         rdf:about="">
        <dc:format>image/svg+xml</dc:format>
        <dc:type
           rdf:resource="http://purl.org/dc/dcmitype/StillImage" />
      </cc:Work>
    </rdf:RDF>
  </metadata>
  <defs
     id="defs16">
    <linearGradient
       id="oomox"
       x1="2.8236918"
       x2="2.8236918"
       y1="0"
       y2="13.423561"
       gradientTransform="matrix(1.2584592,0,0,1.7879013,3.9965,3.9999533)"
       gradientUnits="userSpaceOnUse">
      <stop
         offset="0%"
         style="stop-color:#303b3d; stop-opacity:1"
         id="stop18" />
      <stop
         offset="100%"
         style="stop-color:#bc985d; stop-opacity:1"
         id="stop20" />
    </linearGradient>
  </defs>
  <sodipodi:namedview
     pagecolor="#ffffff"
     bordercolor="#000000"
     borderopacity="1"
     objecttolerance="10"
     gridtolerance="10"
     guidetolerance="10"
     inkscape:pageopacity="0"
     inkscape:pageshadow="2"
     inkscape:window-width="1920"
     inkscape:window-height="1002"
     id="namedview14"
     showgrid="false"
     inkscape:zoom="9.8125004"
     inkscape:cx="19.617834"
     inkscape:cy="11.159235"
     inkscape:window-x="0"
     inkscape:window-y="0"
     inkscape:window-maximized="1"
     inkscape:current-layer="svg12"
     inkscape:document-rotation="0"
     inkscape:lockguides="true"
     inkscape:showpageshadow="false"
     inkscape:pagecheckerboard="0"
     inkscape:deskcolor="#d1d1d1">
    <inkscape:grid
       type="xygrid"
       id="grid871"
       originx="-1e-06"
       originy="0" />
  </sodipodi:namedview>
  <g
     id="kgpg"
     style="fill:#d6dbf1;fill-opacity:1">
    <rect
       style="opacity:0.00100002;fill:#d6dbf1;fill-opacity:1"
       width="32"
       height="32"
       x="0"
       y="0"
       id="rect7" />
    <path
       d="M 16.05,4 C 12.19678,4 9.000001,6.8714489 9,10.400923 L 8.999999,14 h -2 c -0.6113821,0 -1.0023365,0.439991 -1,1 L 6.05,26.984375 C 6.0523365,27.544384 6.3886169,28 6.999999,28 h 18 c 0.611383,0 1,-0.439986 1,-1 V 15 c 0,-0.560014 -0.388617,-1 -1,-1 h -2 L 23,10.400923 C 23.000001,6.8714489 19.90322,4 16.05,4 Z M 10,10.6 c 10e-7,-3.1285509 2.634471,-5.6 6.05,-5.6 3.415529,0 5.950001,2.4724491 5.95,5.601 l -1e-6,3.399 h -12 z M 24.999999,16 v 11 0 h -18 v 0 -11 -1 h 2 13 3 z"
       id="path2"
       style="fill:#d6dbf1;fill-opacity:1;stroke-width:0.379948"
       sodipodi:nodetypes="sscsssssssscsssssccsccccccccccc" />
    <path
       d="M 15.999991,17 C 14.345919,17 13,18.280792 13,19.855281 c 0,0.881109 0.277496,1.701132 1,2.24094 v 2.443921 C 13.999999,25 13.999999,25 14.630012,25 h 2.739497 C 17.999999,25 18,25 18,24.540142 L 17.999999,22 C 18.722982,21.459752 19,20.735934 19,19.855281 19,18.280792 17.65408,17 15.999991,17 Z m 1.10571,4.475585 C 16.968845,21.560445 16.999999,21.844622 16.999999,22 v 2 h -2 v -2 c 0,-0.155396 0.03071,-0.439993 -0.106188,-0.524871 C 14.312887,21.11542 13.966497,20.510055 13.966497,19.855281 13.966497,18.787814 14.878728,18 15.999999,18 c 1.121289,0 2.033504,0.787814 2.033504,1.855281 0,0.654318 -0.346867,1.260139 -0.927802,1.620304 z"
       id="path4"
       style="fill:#d6dbf1;fill-opacity:1;stroke-width:0.471411"
       sodipodi:nodetypes="sscccsscsscsccscsssc" />
  </g>
</svg>
