<?xml version="1.0" encoding="UTF-8" standalone="no"?>
<svg
   width="32"
   height="32"
   version="1.1"
   id="svg12"
   sodipodi:docname="ktorrent.svg"
   inkscape:version="1.1.2 (0a00cf5339, 2022-02-04)"
   xmlns:inkscape="http://www.inkscape.org/namespaces/inkscape"
   xmlns:sodipodi="http://sodipodi.sourceforge.net/DTD/sodipodi-0.dtd"
   xmlns:xlink="http://www.w3.org/1999/xlink"
   xmlns="http://www.w3.org/2000/svg"
   xmlns:svg="http://www.w3.org/2000/svg"
   xmlns:rdf="http://www.w3.org/1999/02/22-rdf-syntax-ns#"
   xmlns:cc="http://creativecommons.org/ns#"
   xmlns:dc="http://purl.org/dc/elements/1.1/">
  <metadata
     id="metadata18">
    <rdf:RDF>
      <cc:Work
         rdf:about="">
        <dc:format>image/svg+xml</dc:format>
        <dc:type
           rdf:resource="http://purl.org/dc/dcmitype/StillImage" />
      </cc:Work>
    </rdf:RDF>
  </metadata>
  <defs
     id="defs16">
    <linearGradient
       id="linearGradient1497"
       x1="0"
       x2="0"
       y1="0"
       y2="1">
      <stop
         offset="0%"
         style="stop-color:#088699;stop-opacity:1"
         id="stop1493" />
      <stop
         offset="100%"
         style="stop-color:#00ffff;stop-opacity:0"
         id="stop1495" />
    </linearGradient>
    <linearGradient
       id="linearGradient953"
       x1="0"
       x2="0"
       y1="0"
       y2="1">
      <stop
         offset="0%"
         style="stop-color:#088699;stop-opacity:1"
         id="stop949" />
      <stop
         offset="100%"
         style="stop-color:#00ffff;stop-opacity:0"
         id="stop951" />
    </linearGradient>
    <linearGradient
       id="linearGradient1849"
       x1="0"
       x2="0"
       y1="0"
       y2="1">
      <stop
         offset="0%"
         style="stop-color:#088699;stop-opacity:1"
         id="stop1845" />
      <stop
         offset="100%"
         style="stop-color:#00ffff;stop-opacity:0.05465223"
         id="stop1847" />
    </linearGradient>
    <linearGradient
       id="linearGradient1029"
       x1="0"
       x2="0"
       y1="0"
       y2="1">
      <stop
         offset="0%"
         style="stop-color:#088699;stop-opacity:1"
         id="stop1025" />
      <stop
         offset="100%"
         style="stop-color:#00ffff;stop-opacity:1"
         id="stop1027" />
    </linearGradient>
    <linearGradient
       id="linearGradient861"
       x1="0"
       x2="0"
       y1="0"
       y2="1">
      <stop
         offset="0%"
         style="stop-color:#cce0ff;stop-opacity:1"
         id="stop857" />
      <stop
         offset="100%"
         style="stop-color:#00ffff;stop-opacity:0"
         id="stop859" />
    </linearGradient>
    <linearGradient
       id="linearGradient924"
       x1="0"
       x2="0"
       y1="0"
       y2="1">
      <stop
         offset="0%"
         style="stop-color:#0062f7;stop-opacity:1"
         id="stop920" />
      <stop
         offset="100%"
         style="stop-color:#00ffff;stop-opacity:1"
         id="stop922" />
    </linearGradient>
    <linearGradient
       id="linearGradient900"
       x1="0"
       x2="0"
       y1="0"
       y2="1">
      <stop
         offset="0%"
         style="stop-color:#00ffff;stop-opacity:1"
         id="stop896" />
      <stop
         offset="100%"
         style="stop-color:#00ffff;stop-opacity:0.4678033"
         id="stop898" />
    </linearGradient>
    <linearGradient
       id="oomox"
       x1="0"
       x2="0"
       y1="0"
       y2="1">
      <stop
         offset="0%"
         style="stop-color:#303b3d; stop-opacity:1"
         id="stop18" />
      <stop
         offset="100%"
         style="stop-color:#bc985d; stop-opacity:1"
         id="stop20" />
    </linearGradient>
    <linearGradient
       inkscape:collect="always"
       xlink:href="#linearGradient1497"
       id="linearGradient929"
       x1="9.098629"
       y1="2.4857433"
       x2="8.9449377"
       y2="7.4051056"
       gradientTransform="matrix(1.0803357,0,0,2.4307553,2.3364654,4)"
       gradientUnits="userSpaceOnUse" />
    <linearGradient
       inkscape:collect="always"
       xlink:href="#linearGradient1029"
       id="linearGradient931"
       x1="6.1104064"
       y1="2.8908513"
       x2="6.1104064"
       y2="7.949378"
       gradientTransform="matrix(1.5814881,0,0,1.6604106,2.3364654,4)"
       gradientUnits="userSpaceOnUse" />
    <linearGradient
       inkscape:collect="always"
       xlink:href="#linearGradient1497"
       id="linearGradient975"
       gradientUnits="userSpaceOnUse"
       gradientTransform="matrix(0.81025181,0,0,1.6205036,0.7523478,2.9999999)"
       x1="8.9583111"
       y1="2.754586"
       x2="8.9449377"
       y2="7.4051056" />
    <linearGradient
       inkscape:collect="always"
       xlink:href="#linearGradient1029"
       id="linearGradient977"
       gradientUnits="userSpaceOnUse"
       gradientTransform="matrix(1.1863139,0,0,1.1070418,0.7511402,2.9997068)"
       x1="6.1104064"
       y1="2.8908513"
       x2="6.1104064"
       y2="7.949378" />
  </defs>
  <sodipodi:namedview
     pagecolor="#ffffff"
     bordercolor="#000000"
     borderopacity="1"
     objecttolerance="10"
     gridtolerance="10"
     guidetolerance="10"
     inkscape:pageopacity="0"
     inkscape:pageshadow="2"
     inkscape:window-width="1920"
     inkscape:window-height="1009"
     id="namedview14"
     showgrid="false"
     inkscape:zoom="9.8125"
     inkscape:cx="23.796178"
     inkscape:cy="13.808917"
     inkscape:window-x="0"
     inkscape:window-y="0"
     inkscape:window-maximized="1"
     inkscape:current-layer="svg12"
     inkscape:document-rotation="0"
     inkscape:lockguides="false"
     inkscape:showpageshadow="false"
     inkscape:pagecheckerboard="0">
    <inkscape:grid
       type="xygrid"
       id="grid848"
       originx="0"
       originy="0" />
  </sodipodi:namedview>
  <g
     id="ktorrent">
    <rect
       style="opacity:0.00100002"
       width="32"
       height="32"
       x="0"
       y="0"
       id="rect7" />
    <path
       style="color:#d5c289;isolation:isolate;fill:#eff0f1;fill-opacity:1;stroke-width:1.53748"
       class="ColorScheme-Text"
       d="m 7.6,18 8.399231,10 8.399232,-10 H 20 l 0,-3.200807 c 0,1.200769 -1.600769,1.200769 -1.600769,1.200769 0,0 -1.200768,0 -1.200768,-1.200769 0,-1.199231 -1.199232,-1.199231 -1.199232,-1.199231 0,0 -1.199231,0 -1.199231,1.199231 0,1.200769 -1.200769,1.200769 -1.200769,1.200769 0,0 -1.599231,0 -1.599231,-1.200769 V 18 Z"
       id="path58"
       sodipodi:nodetypes="ccccccscscccc" />
    <path
       style="opacity:1;isolation:isolate;fill:url(#linearGradient929);fill-opacity:1;stroke-width:1.62052"
       class="ColorScheme-Text"
       d="m 16,4 c 0,0 -1.332191,0 -1.332191,1.1992824 0,1.20082 -1.333904,1.20082 -1.333904,1.20082 0,0 -1.333905,0.00154 -1.333905,-1.20082 V 22 h 8 V 5.1992824 c 0,1.20082 -1.333905,1.20082 -1.333905,1.20082 0,0 -1.333904,0 -1.333904,-1.20082 C 17.332191,4 16,4 16,4 Z"
       id="path60" />
    <path
       style="isolation:isolate;fill:url(#linearGradient931);fill-opacity:1;stroke-width:1.62047"
       class="ColorScheme-Text"
       d="m 13.333905,8.8000001 c 0,0 -1.333905,-0.00154 -1.333905,1.1992313 v 7.1999996 h 8 V 9.9992314 c 0,-1.1992313 -1.333905,-1.1992313 -1.333905,-1.1992313 0,0 -1.333904,0 -1.333904,1.1992313 C 17.332191,11.2 16,11.2 16,11.2 c 0,0 -1.332191,0 -1.332191,-1.2007686 0,-1.1992313 -1.333904,-1.1992313 -1.333904,-1.1992313 z"
       id="path64" />
  </g>
  <g
     id="22-22-ktorrent"
     transform="translate(32,10.000001)">
    <rect
       style="opacity:0.00100002"
       width="22"
       height="22"
       x="0"
       y="0"
       id="rect2" />
    <path
       style="color:#d5c289;isolation:isolate;fill:#eff0f1;fill-opacity:1;stroke-width:1.02499"
       class="ColorScheme-Text"
       d="m 5.5,13 5.599487,6 5.599488,-6 H 14 l 0,-2.800538 c 0,0.800512 -1.300513,0.800512 -1.300513,0.800512 0,0 -0.800512,0 -0.800512,-0.800512 0,-0.7994873 -0.799488,-0.7994873 -0.799488,-0.7994873 0,0 -0.799487,0 -0.799487,0.7994873 0,0.800512 -0.800513,0.800512 -0.800513,0.800512 0,0 -1.499487,0 -1.499487,-0.800512 V 13 Z"
       id="path58-3"
       sodipodi:nodetypes="ccccccscscccc" />
    <path
       style="isolation:isolate;fill:url(#linearGradient975);fill-opacity:1;stroke-width:1.14588"
       class="ColorScheme-Text"
       d="m 10.999999,3 c 0,0 -0.999144,0 -0.999144,0.7995212 0,0.800547 -1.0004283,0.800547 -1.0004283,0.800547 0,0 -1.0004267,0.001 -1.0004267,-0.800547 V 15 h 6 V 3.7995212 c 0,0.800547 -1.00043,0.800547 -1.00043,0.800547 0,0 -1.000429,0 -1.000429,-0.800547 C 11.999141,3 10.999999,3 10.999999,3 Z"
       id="path60-5" />
    <path
       style="isolation:isolate;fill:url(#linearGradient977);fill-opacity:1;stroke-width:1.14601"
       class="ColorScheme-Text"
       d="M 9.0005934,6.2 C 9.0005934,6.2 8,6.199 8,6.9995612 V 11.8 h 6.001 V 6.9995612 C 14.001,6.2 13.000403,6.2 13.000403,6.2 c 0,0 -1.000595,0 -1.000595,0.7995612 0,0.8005854 -0.999309,0.8005854 -0.999309,0.8005854 0,0 -0.999307,0 -0.999307,-0.8005854 C 10.001192,6.2 9.0005934,6.2 9.0005934,6.2 Z"
       id="path64-6" />
  </g>
</svg>
