<?xml version="1.0" encoding="UTF-8" standalone="no"?>
<svg
   inkscape:version="1.2 (dc2aedaf03, 2022-05-15)"
   sodipodi:docname="media.svg"
   id="svg218"
   viewBox="0 0 19.999998 19.999998"
   version="1.1"
   height="20"
   width="20"
   xmlns:inkscape="http://www.inkscape.org/namespaces/inkscape"
   xmlns:sodipodi="http://sodipodi.sourceforge.net/DTD/sodipodi-0.dtd"
   xmlns="http://www.w3.org/2000/svg"
   xmlns:svg="http://www.w3.org/2000/svg"
   xmlns:rdf="http://www.w3.org/1999/02/22-rdf-syntax-ns#"
   xmlns:cc="http://creativecommons.org/ns#"
   xmlns:dc="http://purl.org/dc/elements/1.1/">
  <metadata
     id="metadata224">
    <rdf:RDF>
      <cc:Work
         rdf:about="">
        <dc:format>image/svg+xml</dc:format>
        <dc:type
           rdf:resource="http://purl.org/dc/dcmitype/StillImage" />
      </cc:Work>
    </rdf:RDF>
  </metadata>
  <defs
     id="defs222" />
  <sodipodi:namedview
     inkscape:document-rotation="0"
     inkscape:lockguides="false"
     inkscape:current-layer="svg218"
     inkscape:window-maximized="1"
     inkscape:window-y="0"
     inkscape:window-x="0"
     inkscape:cy="49.674254"
     inkscape:cx="114.19775"
     inkscape:zoom="2.828427"
     showgrid="false"
     id="namedview220"
     inkscape:window-height="1002"
     inkscape:window-width="1920"
     inkscape:pageshadow="2"
     inkscape:pageopacity="0"
     guidetolerance="10"
     gridtolerance="10"
     objecttolerance="10"
     borderopacity="1"
     bordercolor="#666666"
     pagecolor="#ffffff"
     inkscape:pagecheckerboard="0"
     showguides="false"
     inkscape:showpageshadow="2"
     inkscape:deskcolor="#d1d1d1">
    <inkscape:grid
       type="xygrid"
       id="grid2556"
       originx="99.999992"
       originy="0" />
  </sodipodi:namedview>
  <g
     transform="matrix(0.68181819,0,0,0.68181819,0,59.000002)"
     id="22-22-media-playback-start">
    <rect
       id="rect2"
       y="0"
       x="0"
       height="22"
       width="22"
       style="opacity:0.00100002" />
    <path
       sodipodi:nodetypes="ssssscccc"
       inkscape:connector-curvature="0"
       id="path4"
       d="M 11,2.9333333 C 6.544903,2.9333333 2.9333333,6.544903 2.9333333,11 c 0,4.455097 3.6115697,8.066666 8.0666667,8.066666 4.455097,0 8.066666,-3.611569 8.066666,-8.066666 C 19.066666,6.544903 15.455097,2.9333333 11,2.9333333 Z M 7.9749999,6.9666666 14.960248,11 7.9749999,15.033333 Z"
       style="opacity:1;fill:#d3dae3;fill-opacity:1;stroke-width:1.00833" />
  </g>
  <g
     transform="matrix(0.68181819,0,0,0.68181819,7,59.000002)"
     id="22-22-media-skip-forward">
    <rect
       id="rect7"
       y="0"
       x="22"
       height="22"
       width="22"
       style="opacity:0.00100002" />
    <path
       inkscape:connector-curvature="0"
       id="path9"
       d="m 33,2.9333333 c -4.455097,0 -8.066667,3.6115697 -8.066667,8.0666667 0,4.455097 3.61157,8.066666 8.066667,8.066666 4.455097,0 8.066666,-3.611569 8.066666,-8.066666 0,-4.455097 -3.611569,-8.0666667 -8.066666,-8.0666667 z m -4.033334,4.0333333 6.05,3.5291664 V 6.9666666 h 2.016667 V 11 15.033333 h -2.016667 v -3.529166 l -6.05,3.529166 z"
       style="opacity:1;fill:#d3dae3;fill-opacity:1;stroke-width:1.00833" />
  </g>
  <g
     transform="matrix(0.68181819,0,0,0.68181819,-3.5,42.636433)"
     id="22-22-media-playback-pause">
    <rect
       id="rect12"
       y="24"
       x="165"
       height="22"
       width="22"
       style="opacity:0.00100002" />
    <path
       inkscape:connector-curvature="0"
       id="path14"
       d="m 176,26.933334 c -4.4551,0 -8.06667,3.61157 -8.06667,8.066667 0,4.455097 3.61157,8.066666 8.06667,8.066666 4.4551,0 8.06666,-3.611569 8.06666,-8.066666 0,-4.455097 -3.61156,-8.066667 -8.06666,-8.066667 z m -4.03334,4.033333 h 3.02501 v 8.066667 h -3.02501 z m 5.04167,0 h 3.025 v 8.066667 h -3.025 z"
       style="opacity:1;fill:#d3dae3;fill-opacity:1;stroke-width:1.00833" />
  </g>
  <g
     transform="matrix(0.68181819,0,0,0.68181819,3.5,42.636366)"
     id="22-22-media-playback-stop">
    <rect
       id="rect17"
       y="24"
       x="187"
       height="22"
       width="22"
       style="opacity:0.00100002" />
    <path
       inkscape:connector-curvature="0"
       id="path19"
       d="m 198.0066,26.933334 c -4.45874,0 -8.07327,3.61157 -8.07327,8.066667 0,4.455097 3.61453,8.066666 8.07327,8.066666 4.45875,0 8.07326,-3.611569 8.07326,-8.066666 0,-4.455097 -3.61451,-8.066667 -8.07326,-8.066667 z m -4.03664,4.033333 h 2.01832 4.03663 2.01832 v 8.066667 h -2.01832 -4.03663 -2.01832 z"
       style="opacity:1;fill:#d3dae3;fill-opacity:1;stroke-width:1.00874" />
  </g>
  <g
     transform="matrix(0.68181819,0,0,0.68181819,69.999999,59.000002)"
     id="22-22-media-record">
    <rect
       id="rect22"
       y="0"
       x="154"
       height="22"
       width="22"
       style="opacity:0.00100002" />
    <path
       inkscape:connector-curvature="0"
       id="path24"
       d="M 165,2.9333333 A 8.0666667,8.0666667 0 0 0 156.93333,11 8.0666667,8.0666667 0 0 0 165,19.066666 8.0666667,8.0666667 0 0 0 173.06666,11 8.0666667,8.0666667 0 0 0 165,2.9333333 Z m 0,4.0333333 A 4.0333333,4.0333333 0 0 1 169.03333,11 4.0333333,4.0333333 0 0 1 165,15.033333 4.0333333,4.0333333 0 0 1 160.96666,11 4.0333333,4.0333333 0 0 1 165,6.9666666 Z"
       style="opacity:1;fill:#d3dae3;fill-opacity:1;stroke-width:1.00833" />
  </g>
  <g
     transform="matrix(0.68181819,0,0,0.68181819,-4.5,42.636366)"
     id="22-22-media-eject">
    <rect
       id="rect27"
       y="24"
       x="231"
       height="22"
       width="22"
       style="opacity:0.00100002" />
    <path
       inkscape:connector-curvature="0"
       id="path29"
       d="m 242,26.933334 c -4.4551,0 -8.06667,3.61157 -8.06667,8.066667 0,4.455097 3.61157,8.066666 8.06667,8.066666 4.4551,0 8.06666,-3.611569 8.06666,-8.066666 0,-4.455097 -3.61156,-8.066667 -8.06666,-8.066667 z m 0,3.025 4.03333,4.033333 v 1.008334 h -8.06667 v -1.008334 z m -4.03334,7.058333 h 8.06667 v 2.016667 h -8.06667 z"
       style="opacity:1;fill:#d3dae3;fill-opacity:1;stroke-width:1.00833" />
  </g>
  <g
     transform="matrix(0.68181819,0,0,0.68181819,51,59.000002)"
     id="22-22-media-seek-forward">
    <rect
       id="rect32"
       y="0"
       x="22"
       height="22"
       width="22"
       style="opacity:0.00100002" />
    <path
       inkscape:connector-curvature="0"
       id="path34"
       d="m 33,2.9333333 c -4.455097,0 -8.066667,3.6115697 -8.066667,8.0666667 0,4.455097 3.61157,8.066666 8.066667,8.066666 4.455097,0 8.066666,-3.611569 8.066666,-8.066666 C 41.066666,6.544903 37.455097,2.9333333 33,2.9333333 Z M 27.958333,6.9666666 33,9.9916663 V 6.9666666 L 39.049999,11 33,15.033333 v -3.025 l -5.041667,3.025 V 11 Z"
       style="opacity:1;fill:#d3dae3;fill-opacity:1;stroke-width:1.00833" />
  </g>
  <g
     transform="matrix(-0.68181819,0,0,0.68181819,74,59.000002)"
     id="22-22-media-skip-backward">
    <rect
       id="rect37"
       y="0"
       x="22"
       height="22"
       width="22"
       style="opacity:0.00100002" />
    <path
       inkscape:connector-curvature="0"
       id="path39"
       d="m 32.999999,2.9333333 c -4.455097,0 -8.066666,3.6115697 -8.066666,8.0666667 0,4.455097 3.611569,8.066666 8.066666,8.066666 4.455097,0 8.066667,-3.611569 8.066667,-8.066666 0,-4.455097 -3.61157,-8.0666667 -8.066667,-8.0666667 z m -4.033333,4.0333333 6.05,3.5291664 V 6.9666666 h 2.016667 V 11 15.033333 h -2.016667 v -3.529166 l -6.05,3.529166 z"
       style="opacity:1;fill:#d3dae3;fill-opacity:1;stroke-width:1.00833" />
  </g>
  <g
     transform="matrix(-0.68181819,0,0,0.68181819,118,59.000002)"
     id="22-22-media-seek-backward">
    <rect
       id="rect42"
       y="0"
       x="22"
       height="22"
       width="22"
       style="opacity:0.00100002" />
    <path
       inkscape:connector-curvature="0"
       id="path44"
       d="m 32.999999,2.9333333 c -4.455097,0 -8.066666,3.6115697 -8.066666,8.0666667 0,4.455097 3.611569,8.066666 8.066666,8.066666 4.455097,0 8.066667,-3.611569 8.066667,-8.066666 0,-4.455097 -3.61157,-8.0666667 -8.066667,-8.0666667 z m -5.041666,4.0333333 5.041666,3.0249997 V 6.9666666 l 6.05,4.0333334 -6.05,4.033333 v -3.025 l -5.041666,3.025 V 11 Z"
       style="opacity:1;fill:#d3dae3;fill-opacity:1;stroke-width:1.00833" />
  </g>
  <g
     transform="matrix(0.68181775,0,0,0.68181775,0,-26.999988)"
     id="22-22-media-playback-playing">
    <rect
       id="rect47"
       style="opacity:0.00100002"
       y="0"
       x="0"
       height="22"
       width="22" />
    <path
       sodipodi:nodetypes="ssssscccc"
       inkscape:connector-curvature="0"
       id="path49"
       style="opacity:1;fill:#d3dae3;fill-opacity:1;stroke-width:1.00833"
       d="m 11.000007,2.9333352 c -4.4550999,0 -8.0666718,3.6115719 -8.0666718,8.0666718 0,4.4551 3.6115719,8.066672 8.0666718,8.066672 4.4551,0 8.066672,-3.611572 8.066672,-8.066672 0,-4.4550999 -3.611572,-8.0666718 -8.066672,-8.0666718 z m -3.025002,4.0333358 7.031866,4.033336 -7.031866,4.033336 z" />
  </g>
  <g
     transform="matrix(0.68181775,0,0,0.68181775,-3.49993,-43.363608)"
     id="22-22-media-playback-paused">
    <rect
       id="rect52"
       style="opacity:0.00100002"
       y="24"
       x="165"
       height="22"
       width="22" />
    <path
       inkscape:connector-curvature="0"
       id="path54"
       style="opacity:1;fill:#d3dae3;fill-opacity:1;stroke-width:1.00833"
       d="m 176.00001,26.933335 c -4.45511,0 -8.06667,3.611572 -8.06667,8.066672 0,4.4551 3.61156,8.066672 8.06667,8.066672 4.4551,0 8.06667,-3.611572 8.06667,-8.066672 0,-4.4551 -3.61157,-8.066672 -8.06667,-8.066672 z m -4.03333,4.033336 h 3.02499 v 8.066672 h -3.02499 z m 5.04166,0 h 3.02501 v 8.066672 h -3.02501 z" />
  </g>
  <g
     transform="matrix(0.625,0,0,0.625,0,32)"
     id="media-playback-start">
    <rect
       id="rect62"
       y="0"
       x="0"
       height="32"
       width="32"
       style="opacity:0.00100002" />
    <path
       inkscape:connector-curvature="0"
       id="path70"
       style="opacity:1;fill:#d3dae3;fill-opacity:1"
       d="M 16,6 A 10,10 0 0 0 6,16 10,10 0 0 0 16,26 10,10 0 0 0 26,16 10,10 0 0 0 16,6 Z m -2.693359,4.001953 a 1.3639004,1.3848953 0 0 1 0.779297,0.208985 l 3.636718,2.30664 3.636719,2.308594 a 1.3639004,1.3848953 0 0 1 0,2.347656 l -3.636719,2.308594 -3.636718,2.30664 A 1.3639004,1.3848953 0 0 1 12,20.615234 v -9.230468 a 1.3639004,1.3848953 0 0 1 1.306641,-1.382813 z" />
  </g>
  <g
     transform="matrix(0.625,0,0,0.625,100,32.000031)"
     id="media-playback-pause">
    <rect
       id="rect75"
       style="opacity:0.00100002"
       y="0"
       x="0"
       height="32"
       width="32" />
    <path
       inkscape:connector-curvature="0"
       id="path83"
       style="opacity:1;fill:#d3dae3;fill-opacity:1"
       d="M 16,6 C 10.477153,6 6,10.477153 6,16 6,21.522847 10.477153,26 16,26 21.522847,26 26,21.522847 26,16 26,10.477153 21.522847,6 16,6 Z m -3.5,5 c 0.831,0 1.5,0.669 1.5,1.5 v 7 C 14,20.331 13.331,21 12.5,21 11.669,21 11,20.331 11,19.5 v -7 C 11,11.669 11.669,11 12.5,11 Z m 7,0 c 0.831,0 1.5,0.669 1.5,1.5 v 7 C 21,20.331 20.331,21 19.5,21 18.669,21 18,20.331 18,19.5 v -7 C 18,11.669 18.669,11 19.5,11 Z" />
  </g>
  <g
     transform="matrix(0.625,0,0,0.625,120,32)"
     id="media-playback-stop">
    <rect
       id="rect88"
       style="opacity:0.00100002"
       y="0"
       x="0"
       height="32"
       width="32" />
    <path
       inkscape:connector-curvature="0"
       id="path96"
       style="opacity:1;fill:#d3dae3;fill-opacity:1"
       d="M 16,6 A 10,10 0 0 0 6,16 10,10 0 0 0 16,26 10,10 0 0 0 26,16 10,10 0 0 0 16,6 Z m -4,5 h 1 7 c 0.554,0 1,0.446 1,1 v 4 4 c 0,0.554 -0.446,1 -1,1 h -7 -1 c -0.554,0 -1,-0.446 -1,-1 v -8 c 0,-0.554 0.446,-1 1,-1 z" />
  </g>
  <g
     transform="matrix(0.625,0,0,0.625,20,32)"
     id="media-skip-forward">
    <rect
       id="rect101"
       style="opacity:0.00100002"
       y="0"
       x="0"
       height="32"
       width="32" />
    <path
       inkscape:connector-curvature="0"
       id="path109"
       style="opacity:1;fill:#d3dae3;fill-opacity:1"
       d="M 16,6 C 10.477153,6 6,10.477153 6,16 6,21.522847 10.477153,26 16,26 21.522847,26 26,21.522847 26,16 26,10.477153 21.522847,6 16,6 Z m 5,4 c 0.554,0 1,0.446 1,1 v 10 c 0,0.554 -0.446,1 -1,1 -0.554,0 -1,-0.446 -1,-1 v -3.597656 l -3.277344,2.080078 -3.636718,2.30664 C 12.177886,22.364414 11.000839,21.702042 11,20.615234 v -9.230468 c 4.54e-4,-0.741908 0.576624,-1.351666 1.306641,-1.382813 0.274569,-0.011647 0.546197,0.0612 0.779297,0.208985 l 3.636718,2.30664 L 20,14.597656 V 11 c 0,-0.554 0.446,-1 1,-1 z" />
  </g>
  <g
     transform="matrix(-0.625,0,0,0.625,60,32.000031)"
     id="media-skip-backward">
    <rect
       id="rect114"
       y="0"
       x="0"
       height="32"
       width="32"
       style="opacity:0.00100002" />
    <path
       inkscape:connector-curvature="0"
       id="path122"
       d="M 16,6 C 10.477153,6 6,10.477153 6,16 6,21.522847 10.477153,26 16,26 21.522847,26 26,21.522847 26,16 26,10.477153 21.522847,6 16,6 Z m 5,4 c 0.554,0 1,0.446 1,1 v 10 c 0,0.554 -0.446,1 -1,1 -0.554,0 -1,-0.446 -1,-1 v -3.597656 l -3.277344,2.080078 -3.636718,2.30664 C 12.177886,22.364414 11.000839,21.702042 11,20.615234 v -9.230468 c 4.54e-4,-0.741908 0.576624,-1.351666 1.306641,-1.382813 0.274569,-0.011647 0.546197,0.0612 0.779297,0.208985 l 3.636718,2.30664 L 20,14.597656 V 11 c 0,-0.554 0.446,-1 1,-1 z"
       style="opacity:1;fill:#d3dae3;fill-opacity:1" />
  </g>
  <g
     transform="matrix(0.625,0,0,0.625,60,32.000034)"
     id="media-seek-forward">
    <rect
       id="rect127"
       style="opacity:0.00100002"
       y="0"
       x="0"
       height="32"
       width="32" />
    <path
       inkscape:connector-curvature="0"
       id="path135"
       style="opacity:1;fill:#d3dae3;fill-opacity:1"
       d="M 16,6 A 10,10 0 0 0 6,16 10,10 0 0 0 16,26 10,10 0 0 0 26,16 10,10 0 0 0 16,6 Z m -4.984375,5.003906 a 1.0911166,1.1542433 0 0 1 0.0293,0 1.0911166,1.1542433 0 0 1 0.623047,0.173828 L 14.578125,13.099609 16,14.039062 V 12.15625 a 1.0911166,1.1542433 0 0 1 1.044922,-1.152344 1.0911166,1.1542433 0 0 1 0.623047,0.173828 l 2.910156,1.921875 2.910156,1.923829 a 1.0911166,1.1542433 0 0 1 0,1.957031 l -2.910156,1.923828 -2.910156,1.921875 A 1.0911166,1.1542433 0 0 1 16,19.847656 v -1.882812 l -1.421875,0.939453 -2.910156,1.921875 A 1.0911166,1.1542433 0 0 1 10,19.847656 V 12.15625 a 1.0911166,1.1542433 0 0 1 1.015625,-1.152344 z" />
  </g>
  <g
     transform="matrix(-0.625,0,0,0.625,100,32.000034)"
     id="media-seek-backward">
    <rect
       id="rect140"
       y="0"
       x="0"
       height="32"
       width="32"
       style="opacity:0.00100002" />
    <path
       inkscape:connector-curvature="0"
       id="path148"
       d="M 16,6 A 10,10 0 0 0 6,16 10,10 0 0 0 16,26 10,10 0 0 0 26,16 10,10 0 0 0 16,6 Z m -4.984375,5.003906 a 1.0911166,1.1542433 0 0 1 0.0293,0 1.0911166,1.1542433 0 0 1 0.623047,0.173828 L 14.578125,13.099609 16,14.039062 V 12.15625 a 1.0911166,1.1542433 0 0 1 1.044922,-1.152344 1.0911166,1.1542433 0 0 1 0.623047,0.173828 l 2.910156,1.921875 2.910156,1.923829 a 1.0911166,1.1542433 0 0 1 0,1.957031 l -2.910156,1.923828 -2.910156,1.921875 A 1.0911166,1.1542433 0 0 1 16,19.847656 v -1.882812 l -1.421875,0.939453 -2.910156,1.921875 A 1.0911166,1.1542433 0 0 1 10,19.847656 V 12.15625 a 1.0911166,1.1542433 0 0 1 1.015625,-1.152344 z"
       style="opacity:1;fill:#d3dae3;fill-opacity:1" />
  </g>
  <g
     transform="matrix(0.625,0,0,0.625,160,32)"
     id="media-record">
    <rect
       id="rect153"
       y="0"
       x="0"
       height="32"
       width="32"
       style="opacity:0.00100002" />
    <path
       inkscape:connector-curvature="0"
       id="path159"
       style="fill:#ffffff"
       d="M 16,6 A 10,10 0 0 0 6,16 10,10 0 0 0 16,26 10,10 0 0 0 26,16 10,10 0 0 0 16,6 Z" />
    <circle
       id="circle163"
       style="fill:#bf616a;fill-opacity:1"
       r="5"
       cy="16"
       cx="16" />
  </g>
  <g
     transform="matrix(0.625,0,0,0.625,140,32)"
     id="media-eject">
    <rect
       id="rect166"
       style="opacity:0.00100002"
       y="0"
       x="0"
       height="32"
       width="32" />
    <path
       inkscape:connector-curvature="0"
       id="path174"
       style="opacity:1;fill:#d3dae3;fill-opacity:1"
       d="M 16,6 A 10,10 0 0 0 6,16 10,10 0 0 0 16,26 10,10 0 0 0 26,16 10,10 0 0 0 16,6 Z m -0.01367,3 a 1.1542432,1.091172 0 0 1 0.992188,0.5117188 l 1.923828,2.9101562 1.921875,2.910156 A 1.1542432,1.091172 0 0 1 19.845703,17 h -7.691406 a 1.1542432,1.091172 0 0 1 -1.152344,-1.044922 1.1542432,1.091172 0 0 1 0.173828,-0.623047 l 1.921875,-2.910156 1.923828,-2.9101562 A 1.1542432,1.091172 0 0 1 15.986328,9 Z M 12.5,18 h 7 c 0.831,0 1.5,0.669 1.5,1.5 0,0.831 -0.669,1.5 -1.5,1.5 h -7 C 11.669,21 11,20.331 11,19.5 11,18.669 11.669,18 12.5,18 Z" />
  </g>
  <g
     id="media-playback-paused"
     transform="translate(100)">
    <rect
       id="rect192"
       y="0"
       x="0"
       height="20"
       width="20"
       style="opacity:0.00100002;stroke-width:0.625" />
    <path
       inkscape:connector-curvature="0"
       id="path202-3-3-6-7"
       d="M 9.95115,2 C 5.22975,2 1.5,5.371756 1.5,9.531031 1.5,9.621851 1.512,9.709987 1.5156,9.8 2.23286,6.303453 5.33278,2.796137 9.95112,2.796137 c 4.61833,0 7.81609,3.507316 8.53334,7.003863 0.004,-0.09001 0.0155,-0.178178 0.0155,-0.268969 C 18.50001,5.371756 14.67257,2 9.95116,2 Z"
       style="fill:#ffcc00;fill-opacity:1;stroke-width:0.573129"
       sodipodi:nodetypes="sscscss" />
    <path
       inkscape:connector-curvature="0"
       id="path200"
       d="m 10,4 c -3.865995,0 -7,3.134005 -7,7 0,3.865995 3.134005,7 7,7 3.865995,0 7,-3.134005 7,-7 C 17,7.134005 13.865995,4 10,4 Z M 7.55,7.5 c 0.5817,0 1.05,0.4683 1.05,1.05 v 4.9 C 8.6,14.0317 8.1317,14.5 7.55,14.5 6.9683,14.5 6.5,14.0317 6.5,13.45 V 8.55 C 6.5,7.9683 6.9683,7.5 7.55,7.5 Z m 4.9,0 c 0.5817,0 1.05,0.4683 1.05,1.05 v 4.9 c 0,0.5817 -0.4683,1.05 -1.05,1.05 -0.5817,0 -1.05,-0.4683 -1.05,-1.05 v -4.9 c 0,-0.5817 0.4683,-1.05 1.05,-1.05 z"
       style="fill:#d3dae3;fill-opacity:1;stroke-width:0.7" />
  </g>
  <g
     id="media-playback-playing"
     transform="translate(0,32)">
    <rect
       id="rect179"
       style="opacity:0.00100002;stroke-width:0.625"
       y="-32"
       x="0"
       height="20"
       width="20" />
    <path
       inkscape:connector-curvature="0"
       id="path187"
       d="m 10,-28 a 7,7 0 0 0 -7,7 7,7 0 0 0 7,7 7,7 0 0 0 7,-7 7,7 0 0 0 -7,-7 z m -1.8853514,2.801371 a 0.95473025,0.96942676 0 0 1 0.5455081,0.14629 l 2.5456983,1.614645 2.545709,1.616016 a 0.95473025,0.96942676 0 0 1 0,1.643356 l -2.545709,1.616016 -2.5456982,1.614645 A 0.95473025,0.96942676 0 0 1 7.2,-17.769339 v -6.461322 a 0.95473025,0.96942676 0 0 1 0.9146486,-0.967968 z"
       style="fill:#d3dae3;fill-opacity:1;stroke-width:0.7" />
    <path
       inkscape:connector-curvature="0"
       id="path202-3"
       d="M 9.95115,-30 C 5.2297494,-30 1.5,-26.628244 1.5,-22.468969 c 0,0.09082 0.012017,0.178956 0.015632,0.268969 0.7172539,-3.496547 3.8171773,-7.003863 8.435519,-7.003863 4.618331,0 7.816085,3.507316 8.53334,7.003863 C 18.488398,-22.29001 18.5,-22.378178 18.5,-22.468969 18.500007,-26.628244 14.672565,-30 9.95116,-30 Z"
       style="opacity:1;fill:#088699;fill-opacity:1;stroke-width:0.573129"
       sodipodi:nodetypes="sscscss" />
  </g>
  <g
     id="media-playback-stopped"
     transform="translate(120)">
    <rect
       id="rect205"
       y="0"
       x="0"
       height="20"
       width="20"
       style="opacity:0.00100002;stroke-width:0.625" />
    <path
       inkscape:connector-curvature="0"
       id="path213"
       d="m 10,4 c -3.8659932,0 -7,3.1340068 -7,7 0,3.865993 3.1340068,7 7,7 3.865993,0 7,-3.134007 7,-7 C 17,7.1340068 13.865993,4 10,4 Z M 8,7 v 0 h 4 c 1,0 2,1 2,2 v 2 2 c 0,1 -1,2 -2,2 H 8 v 0 C 7,15 6,14 6,13 V 9 C 6,8 7,7 8,7 Z"
       style="fill:#d3dae3;fill-opacity:1;stroke-width:0.7"
       sodipodi:nodetypes="ssssscccccccccccc" />
    <path
       inkscape:connector-curvature="0"
       id="path202-3-3-6-7-5"
       d="M 9.95115,2 C 5.22975,2 1.5,5.371756 1.5,9.531031 1.5,9.621851 1.512,9.709987 1.5156,9.8 2.23286,6.303453 5.33278,2.796137 9.95112,2.796137 c 4.61833,0 7.81609,3.507316 8.53334,7.003863 0.004,-0.09001 0.0155,-0.178178 0.0155,-0.268969 C 18.50001,5.371756 14.67257,2 9.95116,2 Z"
       style="fill:#bf616a;fill-opacity:1;stroke-width:0.573129"
       sodipodi:nodetypes="sscscss" />
  </g>
  <g
     id="22-22-media-playback-stopped"
     transform="translate(131,-26.999982)">
    <rect
       id="rect57"
       style="opacity:0.00100002;stroke-width:0.681818"
       y="0"
       x="-7.5000003e-07"
       height="14.99999"
       width="14.99999" />
    <path
       inkscape:connector-curvature="0"
       id="path213-3"
       d="M 7.5,2 C 4.4624411,2 2,4.4624341 2,7.5 2,10.537566 4.4624411,13 7.5,13 10.537559,13 13,10.537566 13,7.5 13,4.4624341 10.537559,2 7.5,2 Z M 5.92857,4.357143 v 0 h 3.14286 c 0.7857099,0 1.57143,0.785714 1.57143,1.571428 V 7.5 9.071429 c 0,0.785714 -0.7857201,1.571428 -1.57143,1.571428 H 5.92857 v 0 c -0.7857099,0 -1.5714301,-0.785714 -1.5714301,-1.571428 V 5.928571 c 0,-0.785714 0.7857202,-1.571428 1.5714301,-1.571428 z"
       style="fill:#d3dae3;fill-opacity:1;stroke-width:0.55"
       sodipodi:nodetypes="ssssscccccccccccc" />
  </g>
</svg>
