<?xml version="1.0" encoding="UTF-8" standalone="no"?>
<svg
   id="svg4153"
   version="1.1"
   width="22"
   height="22"
   viewBox="0 0 22 22"
   sodipodi:docname="pamac.svg"
   inkscape:version="1.2 (dc2aedaf03, 2022-05-15)"
   xmlns:inkscape="http://www.inkscape.org/namespaces/inkscape"
   xmlns:sodipodi="http://sodipodi.sourceforge.net/DTD/sodipodi-0.dtd"
   xmlns="http://www.w3.org/2000/svg"
   xmlns:svg="http://www.w3.org/2000/svg"
   xmlns:rdf="http://www.w3.org/1999/02/22-rdf-syntax-ns#"
   xmlns:cc="http://creativecommons.org/ns#"
   xmlns:dc="http://purl.org/dc/elements/1.1/">
  <g
     id="pamac-tray-no-update"
     transform="translate(22)">
    <rect
       style="fill:none;fill-opacity:1;stroke:none;stroke-width:0.1;stroke-linecap:square;stroke-linejoin:miter;stroke-miterlimit:4;stroke-dasharray:none;stroke-dashoffset:0;stroke-opacity:1"
       id="rect855"
       width="22"
       height="22"
       x="0"
       y="0" />
    <path
       d="M 11,3 C 6.582035,3 2.99999,6.58204 2.99999,10.999988 2.99999,15.417961 6.582035,19 11,19 15.417964,19 19.00001,15.417961 19.00001,10.999988 19.00001,6.58204 15.417964,3 11,3 Z m 0,0 z"
       id="path2107-9-0-7"
       sodipodi:nodetypes="ssssscccccccccc"
       style="fill:#d3dae3;fill-opacity:1;stroke-width:0.0163266" />
    <path
       d="M 14.943857,10.383991 11.129049,7.04879 c -0.0358,-0.0312 -0.08431,-0.04866 -0.135001,-0.04866 -0.05064,0 -0.09915,0.01766 -0.134979,0.04882 l -3.803382,3.33488 c -0.05451,0.04759 -0.07057,0.119184 -0.0412,0.181673 0.02975,0.06222 0.09915,0.102554 0.176164,0.102554 H 9 v 4.165263 c 0,0.09197 0.07373,0.166551 0.179,0.166551 h 3.650001 c 0.10525,0 0.171,-0.07458 0.171,-0.166551 v -4.16527 h 1.80923 c 0.07707,0 0.14643,-0.04062 0.176184,-0.103053 0.02977,-0.06221 0.013,-0.133545 -0.04155,-0.181173 z"
       id="path2-3-36-5"
       style="fill:#000000;fill-opacity:1;stroke-width:0.0167095"
       sodipodi:nodetypes="ccscccscsssscsccc" />
  </g>
  <sodipodi:namedview
     pagecolor="#ffffff"
     bordercolor="#666666"
     borderopacity="1"
     objecttolerance="10"
     gridtolerance="10"
     guidetolerance="10"
     inkscape:pageopacity="0"
     inkscape:pageshadow="2"
     inkscape:window-width="1920"
     inkscape:window-height="1002"
     id="namedview9"
     showgrid="false"
     inkscape:zoom="22.627418"
     inkscape:cx="15.269086"
     inkscape:cy="12.042912"
     inkscape:window-x="0"
     inkscape:window-y="0"
     inkscape:window-maximized="1"
     inkscape:current-layer="svg4153"
     inkscape:document-rotation="0"
     inkscape:pagecheckerboard="0"
     inkscape:lockguides="false"
     inkscape:showpageshadow="2"
     inkscape:deskcolor="#d1d1d1">
    <inkscape:grid
       type="xygrid"
       id="grid887"
       originx="0"
       originy="0" />
  </sodipodi:namedview>
  <metadata
     id="metadata4159">
    <rdf:RDF>
      <cc:Work
         rdf:about="">
        <dc:format>image/svg+xml</dc:format>
        <dc:type
           rdf:resource="http://purl.org/dc/dcmitype/StillImage" />
      </cc:Work>
    </rdf:RDF>
  </metadata>
  <defs
     id="defs4157">
    <style
       type="text/css"
       id="current-color-scheme" />
  </defs>
  <g
     id="pamac-tray-update">
    <rect
       y="0"
       x="0"
       height="22"
       width="22"
       id="rect4183"
       style="fill:none;fill-opacity:1;stroke:none;stroke-width:0.1;stroke-linecap:square;stroke-linejoin:miter;stroke-miterlimit:4;stroke-dasharray:none;stroke-dashoffset:0;stroke-opacity:1" />
    <path
       d="M 11,3 C 6.582035,3 2.99999,6.5820404 2.99999,10.999987 2.99999,15.41796 6.582035,19 11,19 15.417964,19 19.00001,15.41796 19.00001,10.999987 19.00001,6.5820404 15.417964,3 11,3 Z m 0,0 z"
       id="path2107-9-0"
       sodipodi:nodetypes="ssssscccccccccc"
       style="fill:#d3dae3;fill-opacity:1;stroke-width:0.0163266" />
    <path
       d="M 14.943857,10.38399 11.129049,7.0487896 c -0.0358,-0.0312 -0.08431,-0.04866 -0.135001,-0.04866 -0.05064,0 -0.09915,0.01766 -0.134979,0.04882 L 7.0556875,10.383829 c -0.05451,0.04759 -0.07057,0.119184 -0.0412,0.181674 0.02975,0.06222 0.09915,0.102553 0.176164,0.102553 h 1.80935 v 4.165263 c 0,0.09197 0.07373,0.166551 0.179,0.166551 h 3.6500005 c 0.10525,0 0.171,-0.07458 0.171,-0.166551 v -4.16527 h 1.80923 c 0.07707,0 0.14643,-0.04062 0.176184,-0.103053 0.02977,-0.06221 0.013,-0.133545 -0.04155,-0.181173 z"
       id="path2-3-36"
       style="fill:#bf616a;fill-opacity:1;stroke-width:0.0167095"
       sodipodi:nodetypes="ccscccscsssscsccc" />
  </g>
</svg>
