<?xml version="1.0" encoding="UTF-8" standalone="no"?>
<svg
   width="32"
   height="32"
   version="1.1"
   id="svg12"
   sodipodi:docname="plasmavault.svg"
   inkscape:version="1.1.2 (0a00cf5339, 2022-02-04)"
   xmlns:inkscape="http://www.inkscape.org/namespaces/inkscape"
   xmlns:sodipodi="http://sodipodi.sourceforge.net/DTD/sodipodi-0.dtd"
   xmlns="http://www.w3.org/2000/svg"
   xmlns:svg="http://www.w3.org/2000/svg"
   xmlns:rdf="http://www.w3.org/1999/02/22-rdf-syntax-ns#"
   xmlns:cc="http://creativecommons.org/ns#"
   xmlns:dc="http://purl.org/dc/elements/1.1/">
  <g
     id="22-22-plasmavault"
     transform="translate(32,10)"
     style="fill:#d3dae3;fill-opacity:1">
    <rect
       style="opacity:0.00100002;stroke-width:0.6875;fill:#d3dae3;fill-opacity:1"
       width="22"
       height="22"
       x="0"
       y="0"
       id="rect7-7" />
    <path
       style="color:#000000;font-style:normal;font-variant:normal;font-weight:normal;font-stretch:normal;font-size:medium;line-height:normal;font-family:Sans;-inkscape-font-specification:Sans;text-indent:0;text-align:start;text-decoration:none;text-decoration-line:none;letter-spacing:normal;word-spacing:normal;text-transform:none;writing-mode:lr-tb;direction:ltr;baseline-shift:baseline;text-anchor:start;display:inline;overflow:visible;visibility:visible;fill:#d3dae3;fill-opacity:1;fill-rule:nonzero;stroke:none;stroke-width:0.808683;marker:none;enable-background:accumulate"
       d="M 3.54552,4.000056 C 2.712107,4.000056 2,4.671741 2,5.431 V 15 16.8 c 0,0.604928 0.834101,1.200002 1.545751,1.2 l 14.394752,-4.9e-5 c 0.342976,0.0065 0.333213,-0.995169 8.4e-5,-0.999951 H 4.250002 C 3.849318,17 3,17 3,15.914894 V 14.921986 5.985816 C 3,5.602725 3,5 4.05,4.992908 H 8.536766 L 10.70975,6.66623 C 10.78217,6.72881 11.099874,6.998002 11.196499,7 h 6.972455 C 18.524468,6.998 18.513233,6.00546 18.157174,6 H 11.342877 L 8.801564,4.09375 C 8.728204,4.03344 8.635526,4.00025 8.539725,4 Z M 11.742082,4 c -0.319043,0 -0.352624,1 0,1 h 4.882932 1.86157 C 19.235973,5 19,6 19,6 v 11.599954 c 0.0015,0.371835 0.984074,0.384063 0.985456,0.01282 L 19.999996,5.4 C 20.000899,4.641695 19.484491,4 18.586997,4 h -0.849801 -4.737199 z"
       id="path2-3-3-5"
       sodipodi:nodetypes="ssccscccccccccccccccscccccccscccc" />
    <path
       style="color:#d5c289;fill:#088699;fill-opacity:1;stroke-width:0.693679"
       class="ColorScheme-Text"
       d="M 7.681142,8 C 7.323356,8 7.034334,8.03339 6.784152,8.13397 6.534052,8.234534 6.328967,8.421263 6.212158,8.647965 5.978548,9.101366 6.007768,9.629643 6,10.3499 v 0.0032 2.293848 0.0032 C 6.0072,13.370325 5.97867,13.89864 6.212158,14.352036 6.32889,14.578731 6.534052,14.76546 6.784152,14.86603 7.034334,14.966608 7.323356,15 7.681142,15 h 2.139021 c 0.357767,0 0.646865,-0.03336 0.896978,-0.13397 0.250181,-0.100564 0.453886,-0.287294 0.570697,-0.513994 0.20308,-0.394128 0.203978,-0.868948 0.206794,-1.453137 l 1.337396,-0.0032 0.386719,-0.345855 0.34375,0.349956 0.343751,-0.349956 L 14.25,12.8998 14.59375,12.549844 15.281248,13.249756 17,11.499999 l -1.375003,-1.399824 -4.130365,0.0016 c 0,-0.584174 -0.0062,-1.059015 -0.206794,-1.453136 C 11.171096,8.421809 10.965944,8.235087 10.715834,8.134517 10.465653,8.033393 10.17793,8 9.820163,8 Z m 0,0.699912 h 2.139021 c 0.310616,0 0.519884,0.03653 0.643223,0.08613 0.123342,0.04962 0.167816,0.09341 0.216152,0.187275 0.09678,0.187746 0.125052,0.660947 0.13296,1.384779 v 0.442912 l 4.527808,-0.0016 0.687502,0.699912 -0.74656,0.760064 -0.687498,-0.699911 -0.34375,0.349955 -0.343752,-0.349955 -0.343751,0.349955 -0.312879,-0.318517 -0.676778,0.604222 -1.760342,0.0047 v 0.441546 c -0.0068,0.723808 -0.03642,1.197065 -0.13296,1.38479 -0.04811,0.09386 -0.0927,0.137672 -0.216152,0.187274 -0.12341,0.04966 -0.332607,0.08613 -0.643223,0.08613 H 7.681142 c -0.310616,0 -0.521193,-0.03655 -0.644533,-0.08613 -0.12334,-0.04966 -0.166506,-0.09341 -0.214844,-0.187296 -0.09632,-0.187168 -0.126218,-0.660426 -0.134268,-1.380672 v -0.0048 -2.282919 -0.0048 C 6.696797,9.6328 6.725337,9.159516 6.821765,8.97234 6.869855,8.87849 6.913185,8.834668 7.036609,8.785065 7.160008,8.735445 7.370526,8.698935 7.681142,8.698935 Z m 0.381349,2.099735 c -0.379695,2e-6 -0.687497,0.313363 -0.687497,0.699912 0,0.386549 0.307802,0.69991 0.687497,0.699912 0.379699,5e-6 0.687508,-0.313358 0.687508,-0.699912 0,-0.386554 -0.307809,-0.699917 -0.687508,-0.699912 z"
       id="path58-6-3"
       sodipodi:nodetypes="sccccccccsscscccccccccccccsscscccccccccccccccccssccccccccccsssss" />
  </g>
  <metadata
     id="metadata18">
    <rdf:RDF>
      <cc:Work
         rdf:about="">
        <dc:format>image/svg+xml</dc:format>
        <dc:type
           rdf:resource="http://purl.org/dc/dcmitype/StillImage" />
      </cc:Work>
    </rdf:RDF>
  </metadata>
  <defs
     id="defs16">
    <linearGradient
       id="oomox"
       x1="895.72339"
       x2="895.72339"
       y1="-131.54958"
       y2="-118.90034"
       gradientTransform="matrix(1.2648997,0,0,0.79057653,-1125.0002,116.5)"
       gradientUnits="userSpaceOnUse">
      <stop
         offset="0%"
         style="stop-color:#303b3d; stop-opacity:1"
         id="stop18" />
      <stop
         offset="100%"
         style="stop-color:#bc985d; stop-opacity:1"
         id="stop20" />
    </linearGradient>
  </defs>
  <sodipodi:namedview
     pagecolor="#ffffff"
     bordercolor="#000000"
     borderopacity="1"
     objecttolerance="10"
     gridtolerance="10"
     guidetolerance="10"
     inkscape:pageopacity="0"
     inkscape:pageshadow="2"
     inkscape:window-width="1920"
     inkscape:window-height="1009"
     id="namedview14"
     showgrid="false"
     inkscape:zoom="9.8125"
     inkscape:cx="30.216561"
     inkscape:cy="24.56051"
     inkscape:window-x="0"
     inkscape:window-y="0"
     inkscape:window-maximized="1"
     inkscape:current-layer="svg12"
     inkscape:document-rotation="0"
     inkscape:lockguides="false"
     inkscape:showpageshadow="false"
     inkscape:pagecheckerboard="0">
    <inkscape:grid
       type="xygrid"
       id="grid868"
       originx="0"
       originy="0" />
  </sodipodi:namedview>
  <g
     id="plasmavault">
    <rect
       style="opacity:0.00100002;fill:#d3dae3;fill-opacity:1"
       width="32"
       height="32"
       x="0"
       y="0"
       id="rect7" />
    <path
       style="color:#000000;font-style:normal;font-variant:normal;font-weight:normal;font-stretch:normal;font-size:medium;line-height:normal;font-family:Sans;-inkscape-font-specification:Sans;text-indent:0;text-align:start;text-decoration:none;text-decoration-line:none;letter-spacing:normal;word-spacing:normal;text-transform:none;writing-mode:lr-tb;direction:ltr;baseline-shift:baseline;text-anchor:start;display:inline;overflow:visible;visibility:visible;fill:#d3dae3;fill-opacity:1;fill-rule:nonzero;stroke:none;stroke-width:1.11654;marker:none;enable-background:accumulate"
       d="M 6.062371,6.00008 C 4.950251,6.00008 4,6.8171977 4,7.9018537 V 23.906469 C 4,25 4.686009,25.51013 4.686009,25.51013 c 0,0 0.313991,0.489874 1.522321,0.48987 l 19.062962,-6.1e-5 C 25.728956,26.008042 25.71594,25.006827 25.2714,25 H 6.181959 C 5.6342089,25 5.291014,24.818419 5.291014,24.818419 5.291014,24.818419 5,24.528844 5,23.906412 V 7.9017965 C 5,7.8445185 5.0179999,7 6.012613,7 h 6.710162 l 3.199778,2.8089002 c 0.09669,0.0894 0.22048,0.1882448 0.349405,0.1910998 h 9.304184 c 0.474407,-0.0028 0.459415,-0.9922002 -0.015,-1 H 16.467958 L 13.076122,6.1339276 C 12.978232,6.0477656 12.854563,6.0003628 12.726715,6 Z M 17,7 C 16.567065,6.99883 16.55538,7.9934885 17,8 H 25.194697 26 c 1,0 0.974522,1.0469314 0.974522,1.0469314 L 27,25.428517 c 0.0025,0.531169 0.998181,0.548654 1.000002,0.01828 L 28.019467,8.9559031 C 28.020746,7.8726362 27.375146,7 26,7 h -1 -8 c -0.01704,-8.571e-4 0,0 0,0 z"
       id="path2-3"
       sodipodi:nodetypes="ssscsccscscsccccccccscccccccscccc" />
    <path
       style="color:#d5c289;fill:#088699;fill-opacity:1"
       class="ColorScheme-Text"
       d="M 10.4453,12 C 9.9249,12 9.5045,12.0477 9.1406,12.19141 8.7768,12.33509 8.4785,12.60188 8.3086,12.92578 7.9688,13.57358 8.0113,14.32836 8,15.35742 v 0.004 3.27734 0.004 c 0.012,1.029019 -0.031,1.783849 0.3086,2.431639 0.1698,0.323891 0.4682,0.590681 0.832,0.734371 0.3639,0.143699 0.7843,0.191409 1.3047,0.191409 h 3.1113 c 0.5204,0 0.9409,-0.0477 1.3047,-0.191409 0.3639,-0.143681 0.6602,-0.410471 0.8301,-0.734371 0.2954,-0.56311 0.2967,-1.24151 0.3008,-2.07617 l 1.9453,-0.004 0.5625,-0.49414 0.5,0.5 0.5,-0.5 0.5,0.5 0.5,-0.5 1,1 2.5,-2.5 -2,-2 -6.0078,0.002 c 0,-0.83464 -0.01,-1.51307 -0.3008,-2.07617 -0.1698,-0.3239 -0.4682,-0.59068 -0.832,-0.73437 C 14.4955,12.04771 14.077,12 13.5566,12 Z m 0,1 h 3.1113 c 0.4518,0 0.7562,0.0522 0.9356,0.12305 0.1794,0.0709 0.2441,0.13346 0.3144,0.26757 0.1407,0.26824 0.1819,0.94434 0.1934,1.97852 v 0.63281 l 6.5859,-0.002 1,1 -1.0859,1.08594 -1,-1 -0.5,0.5 -0.5,-0.5 -0.5,0.5 -0.4551,-0.45508 -0.9844,0.86328 L 15,17.99999 v 0.63086 c -0.011,1.034141 -0.053,1.71031 -0.1934,1.97852 -0.07,0.1341 -0.1349,0.1967 -0.3144,0.26757 -0.1795,0.0709 -0.4838,0.12305 -0.9356,0.12305 h -3.1113 c -0.4518,0 -0.7581,-0.0522 -0.9375,-0.12305 C 9.3284,20.80604 9.2656,20.74348 9.1953,20.60937 9.0551,20.34193 9.0117,19.66576 9,18.63671 v -0.006 -3.26172 -0.006 c 0.012,-1.02902 0.055,-1.70523 0.1953,-1.97266 0.07,-0.13409 0.1331,-0.1967 0.3125,-0.26757 0.1795,-0.0709 0.4857,-0.12305 0.9375,-0.12305 z M 11,16 a 1,1 0 0 0 -1,1 1,1 0 0 0 1,1 1,1 0 0 0 1,-1 1,1 0 0 0 -1,-1 z"
       id="path58" />
  </g>
</svg>
