<?xml version="1.0" encoding="UTF-8" standalone="no"?>
<svg
   width="32"
   height="32"
   viewBox="0 0 32 32"
   version="1.1"
   id="svg867"
   inkscape:version="1.2 (dc2aedaf03, 2022-05-15)"
   sodipodi:docname="redshift.svg"
   xmlns:inkscape="http://www.inkscape.org/namespaces/inkscape"
   xmlns:sodipodi="http://sodipodi.sourceforge.net/DTD/sodipodi-0.dtd"
   xmlns="http://www.w3.org/2000/svg"
   xmlns:svg="http://www.w3.org/2000/svg"
   xmlns:rdf="http://www.w3.org/1999/02/22-rdf-syntax-ns#"
   xmlns:cc="http://creativecommons.org/ns#"
   xmlns:dc="http://purl.org/dc/elements/1.1/">
  <defs
     id="defs3871">
    <style
       type="text/css"
       id="current-color-scheme">
      .ColorScheme-Text {
        color:#31363b;
      }
      </style>
  </defs>
  <sodipodi:namedview
     inkscape:object-paths="true"
     guideopacity="0.62745098"
     guidecolor="#0000ff"
     inkscape:bbox-nodes="true"
     inkscape:snap-intersection-paths="true"
     inkscape:snap-bbox="true"
     id="base"
     pagecolor="#ffffff"
     bordercolor="#666666"
     borderopacity="1.0"
     inkscape:pageopacity="0.0"
     inkscape:pageshadow="2"
     inkscape:zoom="7.9999996"
     inkscape:cx="20.062501"
     inkscape:cy="17.937501"
     inkscape:document-units="px"
     inkscape:current-layer="layer1"
     inkscape:document-rotation="0"
     showgrid="false"
     inkscape:window-width="1920"
     inkscape:window-height="1002"
     inkscape:window-x="0"
     inkscape:window-y="0"
     inkscape:window-maximized="1"
     units="px"
     inkscape:snap-bbox-edge-midpoints="false"
     inkscape:lockguides="false"
     inkscape:pagecheckerboard="0"
     inkscape:showpageshadow="2"
     inkscape:deskcolor="#d1d1d1">
    <inkscape:grid
       type="xygrid"
       id="grid9564"
       originx="-22"
       originy="10" />
  </sodipodi:namedview>
  <metadata
     id="metadata864">
    <rdf:RDF>
      <cc:Work
         rdf:about="">
        <dc:format>image/svg+xml</dc:format>
        <dc:type
           rdf:resource="http://purl.org/dc/dcmitype/StillImage" />
      </cc:Work>
    </rdf:RDF>
  </metadata>
  <g
     inkscape:label="Layer 1"
     inkscape:groupmode="layer"
     id="layer1">
    <g
       id="22-22-redshift-status-on">
      <rect
         y="10"
         x="-44"
         height="22"
         width="22"
         id="rect1467-9-7-9-9-4"
         style="opacity:0.003;fill:#eff0f1;fill-opacity:1" />
      <path
         d="m -34.523229,26 c -0.104874,0 -0.373581,0.01449 -0.474756,0 v 1 h 3.250899 v 1 h -3.250899 l 0.066,0.492 c 0.0226,0.168456 0.339035,0.508 0.509,0.508 h 2.884 c 0.169962,0 0.541,-0.338038 0.541,-0.508 V 26.008 C -31.099159,26.0225 -31.333749,26 -31.438625,26 Z"
         id="path14-7-5-7"
         style="fill:#d3dae3;fill-opacity:1;stroke-width:0.30846"
         sodipodi:nodetypes="ccccccsssscsc" />
      <path
         d="M -32.932499,12 C -36.229387,12 -39,14.566744 -39,17.766653 c 0,1.933354 1.087188,3.700034 2.735667,4.766586 0.140182,0.09998 0.210394,0.233452 0.210394,0.399931 v 1.133282 c 0,0.533397 0.456025,0.933344 0.982036,0.933344 h 4.138442 c 0.561217,0 0.982038,-0.433405 0.982038,-0.933344 l 2.48e-4,-1.166318 c 0,-0.166714 0.07016,-0.299946 0.210402,-0.39993 1.613464,-1.033281 2.735659,-2.76669 2.735659,-4.766587 C -26.864685,14.500023 -29.635556,12 -32.932448,12 Z m 4.3e-5,0 v 0 0 h -4.3e-5 v 0 z m 0,0 v 0 0 h -4.3e-5 v 0 0 z"
         id="path2971"
         sodipodi:nodetypes="sscssssccccsscccccccccccccccccc"
         style="fill:#d3dae3;fill-opacity:1;stroke-width:0.0610573" />
      <circle
         cx="-33.000008"
         cy="17.99999"
         r="1.8778623"
         id="circle2-3-2-0"
         style="fill:#088699;fill-opacity:1;stroke-width:0.152666" />
      <path
         d="m -33.748091,15.954192 0.24427,-0.09162 -0.305346,-0.854962 c -0.03051,-0.07628 -0.106897,-0.106841 -0.167936,-0.07628 -0.06103,0.03051 -0.106897,0.106897 -0.07628,0.167942 z"
         id="path4-5-0-3"
         style="fill:#088699;fill-opacity:1;stroke-width:0.152666" />
      <path
         d="m -32.938937,14.13741 c 0,-0.07631 -0.06103,-0.13741 -0.137397,-0.13741 -0.07628,0 -0.122141,0.06103 -0.122141,0.13741 v 1.694654 h 0.274809 V 14.13741 Z"
         id="path6-6-2-6"
         style="fill:#088699;fill-opacity:1;stroke-width:0.152666" />
      <path
         d="m -33.076334,21.86259 c 0,0.07628 0.06103,0.13741 0.137397,0.13741 0.07628,0 0.137412,-0.06103 0.137412,-0.13741 v -1.694654 h -0.274809 z"
         id="path8-2-3-1"
         style="fill:#088699;fill-opacity:1;stroke-width:0.152666" />
      <path
         d="m -32.25191,20.015269 -0.244269,0.09159 0.320602,0.854961 c 0.03051,0.07628 0.106902,0.106897 0.167948,0.07628 0.07628,-0.03051 0.106852,-0.106897 0.07628,-0.16794 z"
         id="path10-9-7-0"
         style="fill:#088699;fill-opacity:1;stroke-width:0.152666" />
      <path
         d="m -34.679385,16.610692 0.167936,-0.198474 -0.687026,-0.595423 c -0.06103,-0.04577 -0.137396,-0.04577 -0.183204,0.01525 -0.04576,0.06103 -0.04576,0.137398 0.01525,0.183206 z"
         id="path12-1-5-6"
         style="fill:#088699;fill-opacity:1;stroke-width:0.152666" />
      <path
         d="m -34.251911,16.229013 0.229014,-0.13741 -0.854962,-1.480911 c -0.03051,-0.06103 -0.122141,-0.09167 -0.183205,-0.04576 -0.06103,0.03051 -0.09167,0.12214 -0.04577,0.183209 z"
         id="path14-3-2-9-3"
         style="fill:#088699;fill-opacity:1;stroke-width:0.152666" />
      <path
         d="m -31.74809,19.770987 -0.229013,0.137409 0.854962,1.465655 c 0.03051,0.06103 0.122141,0.09156 0.183205,0.04576 0.06103,-0.03051 0.09161,-0.122141 0.04577,-0.183205 z"
         id="path16-7-2-2"
         style="fill:#088699;fill-opacity:1;stroke-width:0.152666" />
      <path
         d="m -31.351141,19.374051 -0.167949,0.198462 0.702295,0.595423 c 0.06103,0.04576 0.137411,0.04576 0.183205,-0.01525 0.04577,-0.06103 0.04577,-0.137405 -0.01525,-0.183212 z"
         id="path18-0-2-0"
         style="fill:#088699;fill-opacity:1;stroke-width:0.152666" />
      <path
         d="m -36.007628,17.206103 c -0.07628,-0.01525 -0.13741,0.03051 -0.15268,0.106903 -0.01525,0.07628 0.03051,0.137404 0.106897,0.152674 l 0.90077,0.152666 0.04576,-0.259539 z"
         id="path20-9-8-6"
         style="fill:#088699;fill-opacity:1;stroke-width:0.152666" />
      <path
         d="m -36.450384,16.244269 1.465653,0.854961 0.137398,-0.229 -1.465641,-0.854961 c -0.06103,-0.03051 -0.15268,-0.01525 -0.183206,0.04576 -0.04577,0.06103 -0.01525,0.13741 0.04576,0.183205 z"
         id="path22-3-9-1"
         style="fill:#088699;fill-opacity:1;stroke-width:0.152666" />
      <path
         d="m -29.549616,19.755731 -1.465653,-0.854962 -0.137398,0.229001 1.465641,0.854961 c 0.06103,0.03051 0.152679,0.01525 0.183205,-0.04577 0.03051,-0.06103 0.01525,-0.152678 -0.04577,-0.183205 z"
         id="path24-6-7-5"
         style="fill:#088699;fill-opacity:1;stroke-width:0.152666" />
      <path
         d="m -30.022898,18.778628 c 0.07628,0.01525 0.137398,-0.03051 0.152668,-0.106897 0.01525,-0.07628 -0.03051,-0.137411 -0.106897,-0.152678 l -0.900763,-0.152669 -0.04576,0.259539 z"
         id="path26-0-3-5"
         style="fill:#088699;fill-opacity:1;stroke-width:0.152666" />
      <path
         d="m -36.083975,18.977103 c 0.03051,0.07628 0.106903,0.106897 0.167949,0.07628 l 0.854962,-0.32061 -0.09167,-0.244276 -0.854962,0.32061 c -0.06103,0.03051 -0.09158,0.106896 -0.07628,0.167939 z"
         id="path28-6-6-4"
         style="fill:#088699;fill-opacity:1;stroke-width:0.152666" />
      <path
         d="m -35.167936,17.923666 h -1.694654 c -0.07636,0 -0.13741,0.06103 -0.13741,0.137397 0,0.07628 0.06103,0.137412 0.13741,0.137412 h 1.694654 z"
         id="path30-2-1-7"
         style="fill:#088699;fill-opacity:1;stroke-width:0.152666" />
      <path
         d="m -29.13741,17.801525 h -1.694654 v 0.274808 h 1.694654 c 0.07637,0 0.13741,-0.06103 0.13741,-0.137396 0,-0.07628 -0.06103,-0.137412 -0.13741,-0.137412 z"
         id="path32-6-2-6"
         style="fill:#088699;fill-opacity:1;stroke-width:0.152666" />
      <path
         d="m -29.946564,17.022897 c -0.03051,-0.07628 -0.106897,-0.106897 -0.167936,-0.07628 l -0.854962,0.32061 0.0916,0.244275 0.854961,-0.320609 c 0.06103,-0.03051 0.0916,-0.106896 0.07628,-0.167939 z"
         id="path34-1-9-5"
         style="fill:#088699;fill-opacity:1;stroke-width:0.152666" />
      <path
         d="m -34.404577,19.664128 -0.198474,-0.167949 -0.595424,0.702296 c -0.04577,0.06103 -0.04577,0.137396 0.01525,0.183204 0.06103,0.04576 0.137397,0.04576 0.183205,-0.01525 z"
         id="path36-8-3-6"
         style="fill:#088699;fill-opacity:1;stroke-width:0.152666" />
      <path
         d="m -34.908397,19.022897 -1.465654,0.854962 c -0.06103,0.03051 -0.09154,0.122141 -0.04577,0.183205 0.04577,0.06103 0.12214,0.09164 0.183204,0.04577 l 1.465654,-0.85496 z"
         id="path38-7-1-9"
         style="fill:#088699;fill-opacity:1;stroke-width:0.152666" />
      <path
         d="m -31.091603,16.977103 1.465654,-0.854962 c 0.06103,-0.03051 0.09156,-0.122141 0.04576,-0.183205 -0.04576,-0.06103 -0.122141,-0.09159 -0.183205,-0.04577 l -1.465655,0.854961 z"
         id="path40-9-9-3"
         style="fill:#088699;fill-opacity:1;stroke-width:0.152666" />
      <path
         d="m -31.625949,16.335871 0.198462,0.167949 0.595423,-0.702294 c 0.04576,-0.06103 0.04576,-0.137397 -0.01525,-0.183206 -0.06103,-0.04577 -0.137405,-0.04577 -0.183212,0.01525 z"
         id="path42-2-4-7"
         style="fill:#088699;fill-opacity:1;stroke-width:0.152666" />
      <path
         d="m -33.793897,20.992372 c -0.01525,0.07628 0.03051,0.137398 0.106903,0.152666 0.07628,0.01525 0.137405,-0.03051 0.152674,-0.106897 l 0.152666,-0.900767 -0.259539,-0.04576 z"
         id="path44-0-7-4"
         style="fill:#088699;fill-opacity:1;stroke-width:0.152666" />
      <path
         d="m -35,21.312974 c -0.03051,0.06103 -0.01525,0.152679 0.04576,0.183205 0.06103,0.03051 0.152679,0.01525 0.183207,-0.04576 l 0.854963,-1.465653 -0.229004,-0.137398 z"
         id="path46-2-8-5"
         style="fill:#088699;fill-opacity:1;stroke-width:0.152666" />
      <path
         d="m -31.015269,14.687026 c 0.03051,-0.06103 0.01525,-0.15268 -0.04576,-0.183206 -0.06103,-0.03051 -0.152678,-0.01525 -0.183205,0.04577 l -0.854962,1.465654 0.229,0.137398 z"
         id="path48-3-4-2"
         style="fill:#088699;fill-opacity:1;stroke-width:0.152666" />
      <path
         d="m -32.221372,15.022896 c 0.01525,-0.07628 -0.03051,-0.137397 -0.106897,-0.152666 -0.07628,-0.01525 -0.137411,0.03051 -0.152678,0.106897 l -0.152669,0.900763 0.259539,0.04576 z"
         id="path50-7-5-5"
         style="fill:#088699;fill-opacity:1;stroke-width:0.152666" />
    </g>
    <g
       id="22-22-redshift-status-off">
      <rect
         style="opacity:0.003;fill:#eff0f1;fill-opacity:1"
         id="rect1467-9-7-9-9-4-67"
         width="22"
         height="22"
         x="-22"
         y="10" />
      <path
         d="M -12.525244,26 C -12.630118,26 -12.898825,26.01449 -13,26 v 1 h 3.2508993 v 1 H -13 l 0.066,0.492 c 0.0226,0.168456 0.339035,0.508 0.509,0.508 h 2.884 C -9.371038,29 -9,28.661962 -9,28.492 V 26.008 C -9.1011741,26.0225 -9.3357637,26 -9.4406397,26 Z"
         id="path14-7-5"
         style="fill:#d3dae3;fill-opacity:1;stroke-width:0.30846"
         sodipodi:nodetypes="ccccccsssscsc" />
      <path
         d="M -10.932499,12 C -14.229387,12 -17,14.566744 -17,17.766653 c 0,1.933354 1.087188,3.700034 2.735667,4.766586 0.140182,0.09998 0.210394,0.233452 0.210394,0.399931 v 1.133282 c 0,0.533397 0.456025,0.933344 0.982036,0.933344 h 4.138442 c 0.561217,0 0.982038,-0.433405 0.982038,-0.933344 l 2.48e-4,-1.166318 c 0,-0.166714 0.07016,-0.299946 0.210402,-0.39993 1.613464,-1.033281 2.735659,-2.76669 2.735659,-4.766587 C -4.864685,14.500023 -7.635556,12 -10.932448,12 Z m 4.3e-5,0 v 0 0 h -4.3e-5 v 0 z m 0,0 v 0 0 h -4.3e-5 v 0 0 z"
         id="path2971-5"
         sodipodi:nodetypes="sscssssccccsscccccccccccccccccc"
         style="fill:#d3dae3;fill-opacity:0.4;stroke-width:0.0610573" />
    </g>
    <g
       id="redshift-status-on">
      <rect
         y="0"
         x="3.5527137e-15"
         height="32"
         width="32"
         id="rect910"
         style="opacity:0.003;fill:#eff0f1;fill-opacity:1;stroke-width:1" />
      <path
         d="m 13.499998,24 c -0.17,0 -0.335999,0.02909 -0.499998,3e-6 V 26 h 4.999998 v 2 H 13 v 0.381186 C 13,28.722152 13.224497,29 13.499998,29 h 5.000003 C 18.775501,29 19,28.722152 19,28.381188 V 24.000006 C 18.836001,24.029076 18.67,24 18.500001,24 Z"
         id="path14"
         style="fill:#d3dae3;fill-opacity:1;stroke-width:0.556243"
         sodipodi:nodetypes="scccccsssscss" />
      <path
         d="M 16.101249,3 C 11.155919,3 7,6.948899 7,11.871913 c 0,2.974437 1.6307821,5.692449 4.103502,7.333324 0.210274,0.153818 0.315589,0.359163 0.315589,0.615289 v 1.743538 C 11.419091,22.384687 12.103128,23 12.892146,23 h 6.207664 c 0.841823,0 1.473053,-0.666787 1.473053,-1.435936 l 3.74e-4,-1.794364 c 0,-0.256487 0.105239,-0.461463 0.315604,-0.615287 2.420194,-1.589688 4.103488,-4.256512 4.103488,-7.333325 C 25.202971,6.84625 21.046666,3 16.101328,3 Z m 6.7e-5,0 v 0 0 h -6.7e-5 v 0 z m 0,0 v 0 0 h -6.7e-5 v 0 0 z"
         id="path2971-4"
         sodipodi:nodetypes="sscssssccccsscccccccccccccccccc"
         style="fill:#d3dae3;fill-opacity:1;stroke-width:0.0927534" />
      <ellipse
         cx="15.999991"
         cy="12.2309"
         id="circle2-3-2-0-7"
         style="fill:#088699;fill-opacity:1;stroke-width:0.231918"
         rx="2.8167937"
         ry="2.8890643" />
      <path
         d="M 14.877863,9.0834678 15.244268,8.9425117 14.786249,7.6271649 c -0.04578,-0.1173557 -0.160344,-0.1643733 -0.251905,-0.1173557 -0.09153,0.046939 -0.160345,0.1644595 -0.114419,0.2583764 z"
         id="path4-5-0-3-4"
         style="fill:#088699;fill-opacity:1;stroke-width:0.231918" />
      <path
         d="m 16.091595,6.288375 c 0,-0.117402 -0.09154,-0.211404 -0.206096,-0.211404 -0.114418,0 -0.183211,0.09389 -0.183211,0.211404 v 2.6072006 h 0.412214 V 6.288375 Z"
         id="path6-6-2-6-4"
         style="fill:#088699;fill-opacity:1;stroke-width:0.231918" />
      <path
         d="m 15.885499,18.173453 c 0,0.117356 0.09153,0.211404 0.206096,0.211404 0.114418,0 0.206118,-0.09389 0.206118,-0.211404 v -2.6072 h -0.412214 z"
         id="path8-2-3-1-3"
         style="fill:#088699;fill-opacity:1;stroke-width:0.231918" />
      <path
         d="m 17.122136,15.331377 -0.366406,0.140909 0.480906,1.315346 c 0.04577,0.117355 0.160351,0.164459 0.251919,0.117355 0.114421,-0.04694 0.160281,-0.164459 0.114421,-0.258373 z"
         id="path10-9-7-0-0"
         style="fill:#088699;fill-opacity:1;stroke-width:0.231918" />
      <path
         d="M 13.480923,10.093484 13.732824,9.7881342 12.702289,8.8720845 c -0.09154,-0.070417 -0.206095,-0.070417 -0.27481,0.023462 -0.06864,0.093894 -0.06864,0.2113848 0.02286,0.2818598 z"
         id="path12-1-5-6-7"
         style="fill:#088699;fill-opacity:1;stroke-width:0.231918" />
      <path
         d="M 14.122133,9.5062759 14.465654,9.2948726 13.183212,7.0165123 c -0.04579,-0.093894 -0.18321,-0.1410333 -0.274807,-0.070401 -0.09154,0.04694 -0.137506,0.1879177 -0.06866,0.2818715 z"
         id="path14-3-2-9-3-8"
         style="fill:#088699;fill-opacity:1;stroke-width:0.231918" />
      <path
         d="m 17.877864,14.955552 -0.343518,0.211402 1.282442,2.254889 c 0.04578,0.09389 0.18321,0.140864 0.274807,0.0704 0.09153,-0.04694 0.137416,-0.187912 0.06866,-0.281858 z"
         id="path16-7-2-2-6"
         style="fill:#088699;fill-opacity:1;stroke-width:0.231918" />
      <path
         d="m 18.473288,14.344872 -0.251923,0.305331 1.053442,0.91605 c 0.09154,0.0704 0.206117,0.0704 0.274809,-0.02346 0.06866,-0.09389 0.06866,-0.211396 -0.02286,-0.281869 z"
         id="path18-0-2-0-8"
         style="fill:#088699;fill-opacity:1;stroke-width:0.231918" />
      <path
         d="m 11.488557,11.009515 c -0.114419,-0.02346 -0.206113,0.04694 -0.229019,0.164469 -0.02286,0.117355 0.04578,0.211394 0.160345,0.234886 l 1.351157,0.234875 0.06864,-0.399297 z"
         id="path20-9-8-6-8"
         style="fill:#088699;fill-opacity:1;stroke-width:0.231918" />
      <path
         d="M 10.824423,9.5297471 13.022902,10.845092 13.229,10.492779 11.030538,9.1774339 c -0.09154,-0.046939 -0.229021,-0.023462 -0.274807,0.070401 -0.06866,0.093894 -0.02286,0.2114033 0.06864,0.2818582 z"
         id="path22-3-9-1-4"
         style="fill:#088699;fill-opacity:1;stroke-width:0.231918" />
      <path
         d="m 21.175575,14.932081 -2.198478,-1.315347 -0.206097,0.352315 2.198461,1.315345 c 0.09154,0.04694 0.229018,0.02346 0.274806,-0.07042 0.04579,-0.09389 0.02286,-0.234893 -0.06866,-0.281858 z"
         id="path24-6-7-5-3"
         style="fill:#088699;fill-opacity:1;stroke-width:0.231918" />
      <path
         d="m 20.465655,13.428822 c 0.114416,0.02346 0.206097,-0.04694 0.229,-0.164459 0.02286,-0.117356 -0.04578,-0.211405 -0.160346,-0.234893 l -1.351143,-0.234879 -0.06864,0.399297 z"
         id="path26-0-3-5-1"
         style="fill:#088699;fill-opacity:1;stroke-width:0.231918" />
      <path
         d="m 11.374039,13.734173 c 0.04578,0.117356 0.160353,0.16446 0.251921,0.117356 l 1.282445,-0.493254 -0.137506,-0.375815 -1.282443,0.493254 c -0.09153,0.04694 -0.137372,0.164458 -0.114419,0.258371 z"
         id="path28-6-6-4-4"
         style="fill:#088699;fill-opacity:1;stroke-width:0.231918" />
      <path
         d="m 12.748096,12.113475 h -2.541982 c -0.114537,0 -0.206116,0.09389 -0.206116,0.211384 0,0.117355 0.09153,0.211406 0.206116,0.211406 h 2.541982 z"
         id="path30-2-1-7-9"
         style="fill:#088699;fill-opacity:1;stroke-width:0.231918" />
      <path
         d="m 21.793884,11.925563 h -2.541979 v 0.422788 h 2.541979 C 21.908439,12.348351 22,12.254461 22,12.136969 22,12.019614 21.90846,11.925563 21.793884,11.925563 Z"
         id="path32-6-2-6-2"
         style="fill:#088699;fill-opacity:1;stroke-width:0.231918" />
      <path
         d="m 20.580154,10.727655 c -0.04576,-0.117356 -0.160346,-0.164459 -0.251905,-0.117356 l -1.282441,0.493254 0.137399,0.375814 1.282443,-0.493252 c 0.09153,-0.04694 0.137398,-0.164458 0.114416,-0.258372 z"
         id="path34-1-9-5-0"
         style="fill:#088699;fill-opacity:1;stroke-width:0.231918" />
      <path
         d="m 13.893135,14.791151 -0.29771,-0.258387 -0.893136,1.080472 c -0.06866,0.09389 -0.06866,0.211382 0.02286,0.281857 0.09154,0.0704 0.206097,0.0704 0.274809,-0.02346 z"
         id="path36-8-3-6-6"
         style="fill:#088699;fill-opacity:1;stroke-width:0.231918" />
      <path
         d="m 13.137403,13.804626 -2.198479,1.315347 c -0.09154,0.04694 -0.13731,0.187912 -0.06866,0.281859 0.06866,0.09389 0.183213,0.140986 0.274809,0.07042 l 2.198481,-1.315343 z"
         id="path38-7-1-9-8"
         style="fill:#088699;fill-opacity:1;stroke-width:0.231918" />
      <path
         d="m 18.862596,10.657202 2.198481,-1.3153471 c 0.09153,-0.046939 0.137341,-0.1879122 0.06864,-0.2818583 -0.06864,-0.093894 -0.183212,-0.1409099 -0.274808,-0.070417 l -2.198482,1.3153454 z"
         id="path40-9-9-3-9"
         style="fill:#088699;fill-opacity:1;stroke-width:0.231918" />
      <path
         d="m 18.061077,9.6706754 0.297694,0.2583872 0.893134,-1.0804693 c 0.06864,-0.093894 0.06864,-0.2113833 -0.02286,-0.2818598 -0.09153,-0.070417 -0.206108,-0.070417 -0.274819,0.023462 z"
         id="path42-2-4-7-2"
         style="fill:#088699;fill-opacity:1;stroke-width:0.231918" />
      <path
         d="m 14.809156,16.834636 c -0.02286,0.117355 0.04578,0.211384 0.160354,0.234874 0.114417,0.02346 0.206107,-0.04694 0.229011,-0.164459 l 0.228997,-1.385818 -0.389309,-0.0704 z"
         id="path44-0-7-4-6"
         style="fill:#088699;fill-opacity:1;stroke-width:0.231918" />
      <path
         d="m 13.000002,17.327877 c -0.04579,0.09389 -0.02286,0.234895 0.06864,0.281858 0.09154,0.04694 0.22902,0.02346 0.274812,-0.0704 l 1.282448,-2.254887 -0.343509,-0.211385 z"
         id="path46-2-8-5-6"
         style="fill:#088699;fill-opacity:1;stroke-width:0.231918" />
      <path
         d="m 18.977097,7.133951 c 0.04578,-0.093894 0.02286,-0.234896 -0.06864,-0.28186 -0.09154,-0.04694 -0.22902,-0.02346 -0.274809,0.07042 l -1.282444,2.2548874 0.343502,0.2113849 z"
         id="path48-3-4-2-4"
         style="fill:#088699;fill-opacity:1;stroke-width:0.231918" />
      <path
         d="m 17.167941,7.6506822 c 0.02286,-0.1173557 -0.04578,-0.2113833 -0.160346,-0.2348744 -0.114417,-0.023462 -0.206117,0.046939 -0.229015,0.1644595 l -0.229003,1.3858109 0.389308,0.070401 z"
         id="path50-7-5-5-9"
         style="fill:#088699;fill-opacity:1;stroke-width:0.231918" />
    </g>
    <g
       id="redshift-status-off">
      <rect
         style="opacity:0.003;fill:#eff0f1;fill-opacity:1;stroke-width:1"
         id="rect1033"
         width="32"
         height="32"
         x="32"
         y="0" />
      <path
         d="m 45.5,24 c -0.17,0 -0.335999,0.02909 -0.499998,3e-6 V 26 H 50 v 2 h -4.999998 v 0.381186 C 45.000002,28.722152 45.224499,29 45.5,29 h 5.000003 c 0.2755,0 0.499999,-0.277848 0.499999,-0.618812 v -4.381182 c -0.163999,0.02907 -0.33,-6e-6 -0.499999,-6e-6 z"
         id="path14-36"
         style="fill:#d3dae3;fill-opacity:1;stroke-width:0.556243"
         sodipodi:nodetypes="scccccsssscss" />
      <path
         d="M 48.10125,3 C 43.155919,3 39,6.948899 39,11.871913 c 0,2.974438 1.630782,5.692449 4.103502,7.333324 0.210272,0.153818 0.31559,0.359163 0.31559,0.615288 v 1.743539 C 43.419092,22.384687 44.103129,23 44.892146,23 h 6.207663 c 0.841825,0 1.473056,-0.666787 1.473056,-1.435936 l 3.73e-4,-1.794364 c 0,-0.256487 0.105239,-0.461463 0.315602,-0.615287 2.420197,-1.589687 4.103489,-4.256512 4.103489,-7.333325 C 57.202972,6.84625 53.046666,3 48.101328,3 Z m 6.6e-5,0 v 0 0 h -6.6e-5 v 0 z m 0,0 v 0 0 h -6.6e-5 v 0 0 z"
         id="path2971-9"
         sodipodi:nodetypes="sscssssccccsscccccccccccccccccc"
         style="fill:#d3dae3;fill-opacity:0.4;stroke-width:0.0927536" />
    </g>
  </g>
</svg>
