<?xml version="1.0" encoding="UTF-8" standalone="no"?>
<svg
   sodipodi:docname="update.svg"
   inkscape:version="1.2 (dc2aedaf03, 2022-05-15)"
   id="svg846"
   version="1.1"
   viewBox="0 0 8.4666665 8.4666699"
   height="32.000011"
   width="32"
   xmlns:inkscape="http://www.inkscape.org/namespaces/inkscape"
   xmlns:sodipodi="http://sodipodi.sourceforge.net/DTD/sodipodi-0.dtd"
   xmlns="http://www.w3.org/2000/svg"
   xmlns:svg="http://www.w3.org/2000/svg"
   xmlns:rdf="http://www.w3.org/1999/02/22-rdf-syntax-ns#"
   xmlns:cc="http://creativecommons.org/ns#"
   xmlns:dc="http://purl.org/dc/elements/1.1/">
  <defs
     id="defs840" />
  <sodipodi:namedview
     inkscape:document-rotation="0"
     inkscape:snap-midpoints="true"
     inkscape:object-paths="true"
     inkscape:snap-intersection-paths="true"
     inkscape:snap-smooth-nodes="true"
     inkscape:window-maximized="1"
     inkscape:window-y="0"
     inkscape:window-x="0"
     inkscape:window-height="1002"
     inkscape:window-width="1920"
     units="px"
     showgrid="false"
     inkscape:current-layer="layer1"
     inkscape:document-units="px"
     inkscape:cy="4.5624998"
     inkscape:cx="-41.999998"
     inkscape:zoom="8.0000004"
     inkscape:pageshadow="2"
     inkscape:pageopacity="0.0"
     borderopacity="1"
     bordercolor="#000000"
     pagecolor="#ffffff"
     id="base"
     inkscape:lockguides="false"
     inkscape:pagecheckerboard="0"
     inkscape:showpageshadow="false"
     inkscape:deskcolor="#d1d1d1"
     showguides="true">
    <inkscape:grid
       type="xygrid"
       id="grid867" />
  </sodipodi:namedview>
  <metadata
     id="metadata843">
    <rdf:RDF>
      <cc:Work
         rdf:about="">
        <dc:format>image/svg+xml</dc:format>
        <dc:type
           rdf:resource="http://purl.org/dc/dcmitype/StillImage" />
      </cc:Work>
    </rdf:RDF>
  </metadata>
  <style
     type="text/css"
     id="current-color-scheme" />
  <g
     transform="translate(-25.4,-296.99997)"
     id="layer1"
     inkscape:groupmode="layer"
     inkscape:label="Layer 1">
    <g
       id="22-22-update-none">
      <rect
         style="opacity:0.003;fill:#000000;fill-opacity:1;stroke:none;stroke-width:0.10795;stroke-miterlimit:4;stroke-dasharray:none;stroke-opacity:1"
         id="rect1396"
         width="5.8208332"
         height="5.8208332"
         x="0"
         y="291.17914"
         ry="1.2988289e-06" />
      <path
         d="m 2.9104142,291.97289 c -1.1689198,0 -2.11666938,0.94775 -2.11666938,2.11666 0,1.16893 0.94774958,2.11667 2.11666938,2.11667 1.1689199,0 2.1166694,-0.94774 2.1166694,-2.11667 0,-1.16891 -0.9477495,-2.11666 -2.1166694,-2.11666 z m 0,0 z"
         id="path2107-367"
         sodipodi:nodetypes="ssssscccccccccc"
         style="fill:#d3dae3;fill-opacity:1;stroke-width:0.00431973" />
      <path
         d="m 2.297751,293.38141 c 0.019193,0.0172 0.048122,0.0157 0.066549,-0.002 0.1516625,-0.14873 0.3486053,-0.23516 0.5654199,-0.24653 0.4328994,-0.0193 0.8057712,0.28325 0.8826251,0.69503 0.00523,0.0279 -0.016816,0.0537 -0.04536,0.055 l -0.1893121,0.009 c -0.042791,0.002 -0.061847,0.0543 -0.030131,0.083 l 0.5487189,0.49534 c 0.019685,0.0178 0.050145,0.0163 0.06797,-0.003 l 0.4975603,-0.5452 c 0.028739,-0.0315 0.00482,-0.0817 -0.037894,-0.0797 l -0.2542178,0.012 c -0.071331,-0.73676 -0.7148498,-1.29647 -1.4681256,-1.26194 -0.3575441,0.0188 -0.6906179,0.16651 -0.9400908,0.42185 -0.018812,0.0193 -0.017198,0.0505 0.00281,0.0686 z"
         id="path73-5"
         style="stroke-width:0.00697294" />
      <path
         d="m 1.1947846,294.23981 h 0.2394847 c 0.024389,0 0.044376,0.0182 0.0473,0.0422 0.040329,0.3282 0.1876474,0.63362 0.425432,0.86974 0.2841331,0.28074 0.6604568,0.43685 1.0601298,0.43685 0.3832744,0.003 0.7450878,-0.13879 1.0242234,-0.39905 0.019685,-0.0183 0.019685,-0.0497 6.039e-4,-0.0686 L 3.616174,294.748 c -0.171646,0.17073 -0.4032565,0.26601 -0.6490554,0.26601 -0.2439634,0 -0.4730328,-0.0975 -0.6483484,-0.26976 -0.1245952,-0.12366 -0.2070283,-0.27922 -0.2417518,-0.44662 -0.00605,-0.029 0.017526,-0.0559 0.047381,-0.0559 H 2.327544 c 0.04279,0 0.064253,-0.0513 0.034068,-0.0814 L 1.7961367,293.5972 c -0.018728,-0.0187 -0.049187,-0.0187 -0.06797,-10e-5 l -0.5673866,0.56111 c -0.030321,0.0301 -0.00891,0.0815 0.033959,0.0815 z"
         id="path75-3"
         style="stroke-width:0.00697294" />
    </g>
    <g
       id="update-none">
      <rect
         style="opacity:0.003;fill:#000000;fill-opacity:1;stroke:none;stroke-width:0.157018;stroke-miterlimit:4;stroke-dasharray:none;stroke-opacity:1"
         id="rect1396-6"
         width="8.4666672"
         height="8.46667"
         x="0"
         y="296.99997"
         ry="1.8892064e-06" />
      <path
         d="m 4.2333324,298.05836 c -1.753377,0 -3.1749991,1.42162 -3.1749991,3.17499 0,1.75338 1.4216221,3.175 3.1749991,3.175 1.7533771,0 3.1749991,-1.42162 3.1749991,-3.175 0,-1.75337 -1.421622,-3.17499 -3.1749991,-3.17499 z m 0,0 z"
         id="path2107"
         sodipodi:nodetypes="ssssscccccccccc"
         style="fill:#d3dae3;fill-opacity:1;stroke-width:0.00647959" />
      <path
         d="m 3.314339,300.17113 c 0.02879,0.0258 0.072183,0.0236 0.099824,-0.003 0.2274934,-0.22309 0.5229071,-0.35274 0.8481284,-0.36979 0.6493482,-0.0289 1.2086549,0.42487 1.3239357,1.04254 0.00784,0.0418 -0.025224,0.0805 -0.06804,0.0825 l -0.2839678,0.013 c -0.064187,0.003 -0.09277,0.0815 -0.045197,0.12446 l 0.8230771,0.74301 c 0.029528,0.0267 0.075217,0.0245 0.1019544,-0.005 l 0.7463394,-0.81781 c 0.043109,-0.0472 0.00723,-0.12256 -0.056841,-0.11951 l -0.3813261,0.018 c -0.1069961,-1.10515 -1.0722731,-1.9447 -2.2021849,-1.89291 -0.5363153,0.0282 -1.0359252,0.24976 -1.4101339,0.63278 -0.028218,0.0289 -0.025797,0.0758 0.00421,0.10282 z"
         id="path73"
         style="stroke-width:0.0104594" />
      <path
         d="m 1.6598921,301.45874 h 0.3592265 c 0.036583,0 0.066564,0.0273 0.07095,0.0633 0.060493,0.4923 0.2814707,0.95043 0.638147,1.3046 0.426199,0.42111 0.9906836,0.65528 1.5901922,0.65528 0.5749107,0.004 1.1176299,-0.20819 1.5363326,-0.59858 0.029528,-0.0275 0.029528,-0.0745 9.058e-4,-0.10286 l -0.5636756,-0.55943 c -0.2574687,0.2561 -0.6048838,0.39901 -0.9735816,0.39901 -0.3659445,0 -0.7095481,-0.14624 -0.972521,-0.40463 -0.1868926,-0.18549 -0.310542,-0.41883 -0.3626272,-0.66994 -0.00908,-0.0435 0.026289,-0.0838 0.071072,-0.0838 h 0.3047164 c 0.064185,0 0.096379,-0.077 0.051102,-0.12207 l -0.8482116,-0.84469 c -0.028092,-0.028 -0.073781,-0.0281 -0.1019543,-1.6e-4 l -0.8510785,0.84167 c -0.045481,0.0451 -0.01337,0.12231 0.050938,0.12231 z"
         id="path75"
         style="stroke-width:0.0104594" />
    </g>
    <g
       id="update-low">
      <rect
         style="opacity:0.003;fill:#000000;fill-opacity:1;stroke:none;stroke-width:0.157018;stroke-miterlimit:4;stroke-dasharray:none;stroke-opacity:1"
         id="rect1396-6-9-1"
         width="8.4666672"
         height="8.46667"
         x="25.4"
         y="296.99997"
         ry="1.8892064e-06" />
      <path
         d="m 29.633332,298.0583 c -1.753377,0 -3.174999,1.42162 -3.174999,3.17499 0,1.75338 1.421622,3.175 3.174999,3.175 1.753377,0 3.174999,-1.42162 3.174999,-3.175 0,-1.75337 -1.421622,-3.17499 -3.174999,-3.17499 z m 0,0 z"
         id="path2107-9-0"
         sodipodi:nodetypes="ssssscccccccccc"
         style="fill:#d3dae3;fill-opacity:1;stroke-width:0.00647959" />
      <path
         d="m 28.714339,300.17107 c 0.02879,0.0258 0.07218,0.0236 0.09982,-0.003 0.227493,-0.22309 0.522907,-0.35274 0.848128,-0.36979 0.649349,-0.0289 1.208655,0.42487 1.323936,1.04254 0.0078,0.0418 -0.02522,0.0805 -0.06804,0.0825 l -0.283968,0.013 c -0.06419,0.003 -0.09277,0.0815 -0.0452,0.12446 l 0.823077,0.74301 c 0.02953,0.0267 0.07522,0.0245 0.101955,-0.005 l 0.746339,-0.81781 c 0.04311,-0.0472 0.0072,-0.12256 -0.05684,-0.11951 l -0.381326,0.018 c -0.106996,-1.10515 -1.072273,-1.9447 -2.202185,-1.89291 -0.536315,0.0282 -1.035925,0.24976 -1.410134,0.63278 -0.02822,0.0289 -0.0258,0.0758 0.0042,0.10282 z"
         id="path73-1-9"
         style="fill:#066f80;fill-opacity:1;stroke-width:0.0104594" />
      <path
         d="m 27.059892,301.45868 h 0.359227 c 0.03658,0 0.06656,0.0273 0.07095,0.0633 0.06049,0.4923 0.28147,0.95043 0.638147,1.3046 0.426199,0.42111 0.990683,0.65528 1.590192,0.65528 0.57491,0.004 1.11763,-0.20819 1.536332,-0.59858 0.02953,-0.0275 0.02953,-0.0745 9.06e-4,-0.10286 l -0.563675,-0.55943 c -0.257469,0.2561 -0.604884,0.39901 -0.973582,0.39901 -0.365945,0 -0.709548,-0.14624 -0.972521,-0.40463 -0.186893,-0.18549 -0.310542,-0.41883 -0.362627,-0.66994 -0.0091,-0.0435 0.02629,-0.0838 0.07107,-0.0838 h 0.304716 c 0.06418,0 0.09638,-0.077 0.0511,-0.12207 l -0.848211,-0.84469 c -0.02809,-0.028 -0.07378,-0.0281 -0.101955,-1.6e-4 l -0.851078,0.84167 c -0.04548,0.0451 -0.01337,0.12231 0.05094,0.12231 z"
         id="path75-27-3"
         style="fill:#087080;fill-opacity:1;stroke-width:0.0104594" />
      <circle
         id="circle-blue"
         cx="33.139061"
         cy="304.20987"
         r="0.72760415"
         class="ColorScheme-ButtonFocus"
         style="fill:#088699;fill-opacity:1;stroke-width:0.090944" />
    </g>
    <g
       id="update-medium">
      <rect
         style="opacity:0.003;fill:#000000;fill-opacity:1;stroke:none;stroke-width:0.157018;stroke-miterlimit:4;stroke-dasharray:none;stroke-opacity:1"
         id="rect1396-6-9-5"
         width="8.4666672"
         height="8.46667"
         x="16.933332"
         y="296.99997"
         ry="1.8892064e-06" />
      <path
         d="m 21.166669,298.0583 c -1.753377,0 -3.174999,1.42162 -3.174999,3.17499 0,1.75338 1.421622,3.175 3.174999,3.175 1.753377,0 3.174999,-1.42162 3.174999,-3.175 0,-1.75337 -1.421622,-3.17499 -3.174999,-3.17499 z m 0,0 z"
         id="path2107-9"
         sodipodi:nodetypes="ssssscccccccccc"
         style="fill:#d3dae3;fill-opacity:1;stroke-width:0.00647959" />
      <path
         d="m 20.247676,300.17107 c 0.02879,0.0258 0.07218,0.0236 0.09982,-0.003 0.227493,-0.22309 0.522907,-0.35274 0.848128,-0.36979 0.649349,-0.0289 1.208655,0.42487 1.323936,1.04254 0.0078,0.0418 -0.02522,0.0805 -0.06804,0.0825 l -0.283968,0.013 c -0.06419,0.003 -0.09277,0.0815 -0.0452,0.12446 l 0.823077,0.74301 c 0.02953,0.0267 0.07522,0.0245 0.101955,-0.005 l 0.746339,-0.81781 c 0.04311,-0.0472 0.0072,-0.12256 -0.05684,-0.11951 l -0.381326,0.018 c -0.106996,-1.10515 -1.072273,-1.9447 -2.202185,-1.89291 -0.536315,0.0282 -1.035925,0.24976 -1.410134,0.63278 -0.02822,0.0289 -0.0258,0.0758 0.0042,0.10282 z"
         id="path73-1"
         style="fill:#ff9955;fill-opacity:1;stroke-width:0.0104594" />
      <path
         d="m 18.593229,301.45868 h 0.359227 c 0.03658,0 0.06656,0.0273 0.07095,0.0633 0.06049,0.4923 0.28147,0.95043 0.638147,1.3046 0.426199,0.42111 0.990683,0.65528 1.590192,0.65528 0.57491,0.004 1.11763,-0.20819 1.536332,-0.59858 0.02953,-0.0275 0.02953,-0.0745 9.06e-4,-0.10286 l -0.563675,-0.55943 c -0.257469,0.2561 -0.604884,0.39901 -0.973582,0.39901 -0.365945,0 -0.709548,-0.14624 -0.972521,-0.40463 -0.186893,-0.18549 -0.310542,-0.41883 -0.362627,-0.66994 -0.0091,-0.0435 0.02629,-0.0838 0.07107,-0.0838 h 0.304716 c 0.06418,0 0.09638,-0.077 0.0511,-0.12207 l -0.848211,-0.84469 c -0.02809,-0.028 -0.07378,-0.0281 -0.101955,-1.6e-4 l -0.851078,0.84167 c -0.04548,0.0451 -0.01337,0.12231 0.05094,0.12231 z"
         id="path75-27"
         style="fill:#ff9955;fill-opacity:1;stroke-width:0.0104594" />
      <circle
         id="circle-blue-3"
         cx="24.672394"
         cy="304.20987"
         r="0.72760415"
         class="ColorScheme-ButtonFocus"
         style="fill:#ff9955;fill-opacity:1;stroke-width:0.090944" />
    </g>
    <g
       id="update-high">
      <rect
         style="opacity:0.003;fill:#000000;fill-opacity:1;stroke:none;stroke-width:0.157018;stroke-miterlimit:4;stroke-dasharray:none;stroke-opacity:1"
         id="rect1396-6-9"
         width="8.4666672"
         height="8.46667"
         x="8.4666672"
         y="296.99997"
         ry="1.8892064e-06" />
      <path
         d="m 12.7,298.0583 c -1.753377,0 -3.1749989,1.42162 -3.1749989,3.17499 0,1.75338 1.4216219,3.175 3.1749989,3.175 1.753377,0 3.174999,-1.42162 3.174999,-3.175 0,-1.75337 -1.421622,-3.17499 -3.174999,-3.17499 z m 0,0 z"
         id="path2107-5"
         sodipodi:nodetypes="ssssscccccccccc"
         style="fill:#d3dae3;fill-opacity:1;stroke-width:0.00647959" />
      <path
         d="m 11.781007,300.17107 c 0.02879,0.0258 0.07218,0.0236 0.09982,-0.003 0.227494,-0.22309 0.522908,-0.35274 0.848129,-0.36979 0.649348,-0.0289 1.208655,0.42487 1.323936,1.04254 0.0078,0.0418 -0.02522,0.0805 -0.06804,0.0825 l -0.283968,0.013 c -0.06419,0.003 -0.09277,0.0815 -0.0452,0.12446 l 0.823077,0.74301 c 0.02953,0.0267 0.07522,0.0245 0.101954,-0.005 l 0.74634,-0.81781 c 0.04311,-0.0472 0.0072,-0.12256 -0.05684,-0.11951 l -0.381326,0.018 c -0.106997,-1.10515 -1.072274,-1.9447 -2.202185,-1.89291 -0.536316,0.0282 -1.035926,0.24976 -1.410134,0.63278 -0.02822,0.0289 -0.0258,0.0758 0.0042,0.10282 z"
         id="path73-6"
         style="fill:#bf616a;fill-opacity:1;stroke-width:0.0104594" />
      <path
         d="m 10.12656,301.45868 h 0.359226 c 0.03658,0 0.06656,0.0273 0.07095,0.0633 0.06049,0.4923 0.281471,0.95043 0.638147,1.3046 0.426199,0.42111 0.990684,0.65528 1.590192,0.65528 0.574911,0.004 1.11763,-0.20819 1.536333,-0.59858 0.02953,-0.0275 0.02953,-0.0745 9.06e-4,-0.10286 l -0.563676,-0.55943 c -0.257469,0.2561 -0.604884,0.39901 -0.973582,0.39901 -0.365944,0 -0.709548,-0.14624 -0.972521,-0.40463 -0.186892,-0.18549 -0.310542,-0.41883 -0.362627,-0.66994 -0.0091,-0.0435 0.02629,-0.0838 0.07107,-0.0838 h 0.304717 c 0.06419,0 0.09638,-0.077 0.0511,-0.12207 l -0.848212,-0.84469 c -0.02809,-0.028 -0.07378,-0.0281 -0.101954,-1.6e-4 l -0.851079,0.84167 c -0.04548,0.0451 -0.01337,0.12231 0.05094,0.12231 z"
         id="path75-2"
         style="fill:#bf616a;fill-opacity:1;stroke-width:0.0104594" />
      <circle
         id="circle-blue-6"
         cx="16.20573"
         cy="304.20987"
         r="0.72760415"
         class="ColorScheme-ButtonFocus"
         style="fill:#bf616a;fill-opacity:1;stroke-width:0.090944" />
    </g>
    <g
       id="22-22-update-low">
      <rect
         style="opacity:0.003;fill:#000000;fill-opacity:1;stroke:none;stroke-width:0.10795;stroke-miterlimit:4;stroke-dasharray:none;stroke-opacity:1"
         id="rect1396-3-2"
         width="5.8208332"
         height="5.8208332"
         x="17.4625"
         y="291.17914"
         ry="1.2988288e-06" />
      <path
         d="m 20.372919,291.97289 c -1.16892,0 -2.116669,0.94775 -2.116669,2.11666 0,1.16893 0.947749,2.11667 2.116669,2.11667 1.16892,0 2.11667,-0.94774 2.11667,-2.11667 0,-1.16891 -0.94775,-2.11666 -2.11667,-2.11666 z m 0,0 z"
         id="path2107-367-8"
         sodipodi:nodetypes="ssssscccccccccc"
         style="fill:#d3dae3;fill-opacity:1;stroke-width:0.00431973" />
      <path
         d="m 19.760256,293.38141 c 0.01919,0.0172 0.04812,0.0157 0.06655,-0.002 0.151662,-0.14873 0.348605,-0.23516 0.56542,-0.24653 0.432899,-0.0193 0.805771,0.28325 0.882625,0.69503 0.0052,0.0279 -0.01682,0.0537 -0.04536,0.055 l -0.189312,0.009 c -0.04279,0.002 -0.06185,0.0543 -0.03013,0.083 l 0.548719,0.49534 c 0.01969,0.0178 0.05015,0.0163 0.06797,-0.003 l 0.49756,-0.5452 c 0.02874,-0.0315 0.0048,-0.0817 -0.03789,-0.0797 l -0.254218,0.012 c -0.07133,-0.73676 -0.714849,-1.29647 -1.468125,-1.26194 -0.357544,0.0188 -0.690618,0.16651 -0.940091,0.42185 -0.01881,0.0193 -0.0172,0.0505 0.0028,0.0686 z"
         id="path73-5-7"
         style="fill:#076f80;fill-opacity:1;stroke-width:0.00697294" />
      <path
         d="m 18.65729,294.23981 h 0.239484 c 0.02439,0 0.04438,0.0182 0.0473,0.0422 0.04033,0.3282 0.187648,0.63362 0.425432,0.86974 0.284133,0.28074 0.660457,0.43685 1.06013,0.43685 0.383275,0.003 0.745088,-0.13879 1.024223,-0.39905 0.01968,-0.0183 0.01968,-0.0497 6.04e-4,-0.0686 L 21.078679,294.748 c -0.171646,0.17073 -0.403257,0.26601 -0.649055,0.26601 -0.243964,0 -0.473033,-0.0975 -0.648349,-0.26976 -0.124595,-0.12366 -0.207028,-0.27922 -0.241752,-0.44662 -0.006,-0.029 0.01753,-0.0559 0.04738,-0.0559 h 0.203145 c 0.04279,0 0.06425,-0.0513 0.03407,-0.0814 l -0.565475,-0.56313 c -0.01873,-0.0187 -0.04919,-0.0187 -0.06797,-10e-5 l -0.567387,0.56111 c -0.03032,0.0301 -0.0089,0.0815 0.03396,0.0815 z"
         id="path75-3-9"
         style="fill:#067080;fill-opacity:1;stroke-width:0.00697294" />
      <circle
         id="circle-blue-7"
         cx="22.820312"
         cy="296.00778"
         r="0.46302083"
         class="ColorScheme-ButtonFocus"
         style="fill:#088699;fill-opacity:1;stroke-width:0.057874" />
    </g>
    <g
       id="22-22-update-medium">
      <rect
         style="opacity:0.003;fill:#000000;fill-opacity:1;stroke:none;stroke-width:0.10795;stroke-miterlimit:4;stroke-dasharray:none;stroke-opacity:1"
         id="rect1396-3-1"
         width="5.8208332"
         height="5.8208332"
         x="11.641666"
         y="291.17914"
         ry="1.2988288e-06" />
      <path
         d="m 14.552085,291.97289 c -1.16892,0 -2.116669,0.94775 -2.116669,2.11666 0,1.16893 0.947749,2.11667 2.116669,2.11667 1.16892,0 2.11667,-0.94774 2.11667,-2.11667 0,-1.16891 -0.94775,-2.11666 -2.11667,-2.11666 z m 0,0 z"
         id="path2107-367-2"
         sodipodi:nodetypes="ssssscccccccccc"
         style="fill:#d3dae3;fill-opacity:1;stroke-width:0.00431973" />
      <path
         d="m 13.939422,293.38141 c 0.01919,0.0172 0.04812,0.0157 0.06655,-0.002 0.151662,-0.14873 0.348605,-0.23516 0.56542,-0.24653 0.432899,-0.0193 0.805771,0.28325 0.882625,0.69503 0.0052,0.0279 -0.01682,0.0537 -0.04536,0.055 l -0.189312,0.009 c -0.04279,0.002 -0.06185,0.0543 -0.03013,0.083 l 0.548719,0.49534 c 0.01968,0.0178 0.05015,0.0163 0.06797,-0.003 l 0.49756,-0.5452 c 0.02874,-0.0315 0.0048,-0.0817 -0.03789,-0.0797 l -0.254218,0.012 c -0.07133,-0.73676 -0.71485,-1.29647 -1.468125,-1.26194 -0.357544,0.0188 -0.690618,0.16651 -0.940091,0.42185 -0.01881,0.0193 -0.0172,0.0505 0.0028,0.0686 z"
         id="path73-5-6"
         style="fill:#ff9955;fill-opacity:1;stroke-width:0.00697294" />
      <path
         d="m 12.836456,294.23981 h 0.239484 c 0.02439,0 0.04438,0.0182 0.0473,0.0422 0.04033,0.3282 0.187648,0.63362 0.425432,0.86974 0.284133,0.28074 0.660457,0.43685 1.06013,0.43685 0.383274,0.003 0.745088,-0.13879 1.024223,-0.39905 0.01968,-0.0183 0.01968,-0.0497 6.04e-4,-0.0686 L 15.257845,294.748 c -0.171646,0.17073 -0.403256,0.26601 -0.649055,0.26601 -0.243964,0 -0.473033,-0.0975 -0.648349,-0.26976 -0.124595,-0.12366 -0.207028,-0.27922 -0.241752,-0.44662 -0.0061,-0.029 0.01753,-0.0559 0.04738,-0.0559 h 0.203145 c 0.04279,0 0.06425,-0.0513 0.03407,-0.0814 l -0.565475,-0.56313 c -0.01873,-0.0187 -0.04919,-0.0187 -0.06797,-10e-5 l -0.567387,0.56111 c -0.03032,0.0301 -0.0089,0.0815 0.03396,0.0815 z"
         id="path75-3-1"
         style="fill:#ff9955;fill-opacity:1;stroke-width:0.00697294" />
      <circle
         id="circle-blue-7-5"
         cx="16.999479"
         cy="296.00784"
         r="0.46302083"
         class="ColorScheme-ButtonFocus"
         style="fill:#ff9955;fill-opacity:1;stroke-width:0.057874" />
    </g>
    <g
       id="22-22-update-high">
      <rect
         style="opacity:0.003;fill:#000000;fill-opacity:1;stroke:none;stroke-width:0.10795;stroke-miterlimit:4;stroke-dasharray:none;stroke-opacity:1"
         id="rect1396-3"
         width="5.8208332"
         height="5.8208332"
         x="5.8208332"
         y="291.17914"
         ry="1.2988288e-06" />
      <path
         d="m 8.7312471,291.97289 c -1.1689198,0 -2.1166694,0.94775 -2.1166694,2.11666 0,1.16893 0.9477496,2.11667 2.1166694,2.11667 1.1689199,0 2.1166689,-0.94774 2.1166689,-2.11667 0,-1.16891 -0.947749,-2.11666 -2.1166689,-2.11666 z m 0,0 z"
         id="path2107-367-6"
         sodipodi:nodetypes="ssssscccccccccc"
         style="fill:#d3dae3;fill-opacity:1;stroke-width:0.00431973" />
      <path
         d="m 8.1185839,293.38141 c 0.019193,0.0172 0.048122,0.0157 0.066549,-0.002 0.1516625,-0.14873 0.3486053,-0.23516 0.5654199,-0.24653 0.4328994,-0.0193 0.8057712,0.28325 0.8826251,0.69503 0.00523,0.0279 -0.016816,0.0537 -0.04536,0.055 l -0.1893121,0.009 c -0.042791,0.002 -0.061847,0.0543 -0.030131,0.083 l 0.5487192,0.49534 c 0.01969,0.0178 0.05015,0.0163 0.06797,-0.003 l 0.49756,-0.5452 c 0.02874,-0.0315 0.0048,-0.0817 -0.03789,-0.0797 l -0.254218,0.012 c -0.07133,-0.73676 -0.7148496,-1.29647 -1.4681254,-1.26194 -0.3575441,0.0188 -0.6906179,0.16651 -0.9400908,0.42185 -0.018812,0.0193 -0.017198,0.0505 0.00281,0.0686 z"
         id="path73-5-0"
         style="fill:#bf616a;fill-opacity:1;stroke-width:0.00697294" />
      <path
         d="m 7.0156175,294.23981 h 0.2394847 c 0.024389,0 0.044376,0.0182 0.0473,0.0422 0.040329,0.3282 0.1876474,0.63362 0.425432,0.86974 0.2841331,0.28074 0.6604568,0.43685 1.0601298,0.43685 0.3832744,0.003 0.7450878,-0.13879 1.024223,-0.39905 0.01968,-0.0183 0.01968,-0.0497 6.04e-4,-0.0686 L 9.4370069,294.748 c -0.171646,0.17073 -0.4032565,0.26601 -0.6490554,0.26601 -0.2439634,0 -0.4730328,-0.0975 -0.6483484,-0.26976 -0.1245952,-0.12366 -0.2070283,-0.27922 -0.2417518,-0.44662 -0.00605,-0.029 0.017526,-0.0559 0.047381,-0.0559 h 0.2031446 c 0.04279,0 0.064253,-0.0513 0.034068,-0.0814 L 7.6169696,293.5972 c -0.018728,-0.0187 -0.049187,-0.0187 -0.06797,-10e-5 l -0.5673866,0.56111 c -0.030321,0.0301 -0.00891,0.0815 0.033959,0.0815 z"
         id="path75-3-6"
         style="fill:#bf616a;fill-opacity:1;stroke-width:0.00697294" />
      <circle
         id="circle-blue-7-3"
         cx="11.178646"
         cy="296.00778"
         r="0.46302083"
         class="ColorScheme-ButtonFocus"
         style="fill:#bf616a;fill-opacity:1;stroke-width:0.057874" />
    </g>
  </g>
</svg>
