<?xml version="1.0" encoding="UTF-8" standalone="no"?>
<svg
   inkscape:version="1.2.1 (9c6d41e410, 2022-07-14)"
   sodipodi:docname="virt.svg"
   version="1.1"
   height="48"
   width="48"
   id="svg6"
   xmlns:inkscape="http://www.inkscape.org/namespaces/inkscape"
   xmlns:sodipodi="http://sodipodi.sourceforge.net/DTD/sodipodi-0.dtd"
   xmlns="http://www.w3.org/2000/svg"
   xmlns:svg="http://www.w3.org/2000/svg"
   xmlns:rdf="http://www.w3.org/1999/02/22-rdf-syntax-ns#"
   xmlns:cc="http://creativecommons.org/ns#"
   xmlns:dc="http://purl.org/dc/elements/1.1/">
  <metadata
     id="metadata11">
    <rdf:RDF>
      <cc:Work
         rdf:about="">
        <dc:format>image/svg+xml</dc:format>
        <dc:type
           rdf:resource="http://purl.org/dc/dcmitype/StillImage" />
      </cc:Work>
    </rdf:RDF>
  </metadata>
  <defs
     id="defs9" />
  <sodipodi:namedview
     inkscape:document-rotation="0"
     inkscape:lockguides="true"
     inkscape:current-layer="svg6"
     inkscape:window-maximized="1"
     inkscape:window-y="0"
     inkscape:window-x="0"
     inkscape:cy="30.65128"
     inkscape:cx="18.522602"
     inkscape:zoom="7.5853275"
     showgrid="false"
     id="namedview7"
     inkscape:window-height="1002"
     inkscape:window-width="1920"
     inkscape:pageshadow="2"
     inkscape:pageopacity="0"
     guidetolerance="10"
     gridtolerance="10"
     objecttolerance="10"
     borderopacity="1"
     bordercolor="#000000"
     pagecolor="#ffffff"
     inkscape:showpageshadow="true"
     inkscape:pagecheckerboard="0"
     inkscape:deskcolor="#cccccc">
    <inkscape:grid
       type="xygrid"
       id="grid1006" />
  </sodipodi:namedview>
  <g
     id="virt-manager">
    <rect
       y="0"
       x="0"
       height="48"
       width="48"
       style="opacity:0.00100002;stroke-width:2.18186"
       id="rect822" />
    <path
       style="fill:#cdd8e5;fill-opacity:1;stroke-width:2.16307"
       d="M 0,13 6.7217763,30.959071 H 11.515602 L 18.133167,13 H 13.599876 L 9.0665822,24.841761 4.585398,13 Z"
       id="path10-3" />
    <path
       fill-opacity="0.941"
       style="fill:#cdd8e5;fill-opacity:0.5;stroke-width:2.16307"
       d="m 22.562239,13 c -2.257471,6.017412 -4.551836,11.997107 -6.930199,17.959071 h 4.793832 l 4.481187,-11.785641 4.429076,11.785641 h 4.793825 l 4.429076,-12.122373 4.585394,12.122373 h 4.793826 C 45.559899,24.997107 43.213421,19.017412 40.95595,13 H 36.162123 L 31.733047,24.841761 27.199746,13 Z"
       id="path14-6" />
    <path
       style="fill:#7a7ab2;fill-opacity:1;stroke-width:2.16307"
       d="m 0,16.928548 6.7217763,17.95907 h 4.7938257 l 6.617565,-17.95907 H 13.599876 L 9.0665822,28.770308 4.585398,16.928548 Z"
       id="path10-3-3" />
    <path
       fill-opacity="0.941"
       style="fill:#088699;fill-opacity:1;stroke-width:2.16307"
       d="M 22.623986,17.04093 C 20.366514,23.058341 18.072148,29.038037 15.693786,35 h 4.793833 L 24.968808,23.214361 29.397884,35 h 4.793823 L 38.62078,22.877629 43.206175,35 H 48 C 45.621643,29.038037 43.275168,23.058341 41.017694,17.04093 h -4.793827 l -4.429073,11.841761 -4.5333,-11.841761 z"
       id="path14-6-6-4" />
  </g>
</svg>
